<svg width="1793" height="440" viewBox="0 0 1793 440" fill="none" xmlns="http://www.w3.org/2000/svg">
<path d="M944 0H1793V100H944V0Z" fill="#973123"/>
<path d="M0 230H1191.68V100H1456V230C1456 274.183 1422.9 310 1382.06 310H0V230Z" fill="#E3DEDB"/>
<path d="M0 100H1124C1124 144.183 1091.63 180 1051.7 180H0V100Z" fill="#E3DEDB"/>
<path d="M0 360H1523.93V100H1793V360C1793 404.183 1759.42 440 1718 440H0V360Z" fill="#E3DEDB"/>
<path d="M1153.84 50.5938C1153.84 52.6562 1153.57 54.6458 1153.03 56.5625C1152.51 58.4583 1151.76 60.2396 1150.78 61.9062C1149.8 63.5521 1148.64 65.0625 1147.28 66.4375C1145.93 67.7917 1144.42 68.9583 1142.75 69.9375C1141.08 70.9167 1139.29 71.6771 1137.38 72.2188C1135.48 72.7396 1133.5 73 1131.44 73H1117.94V28.1875H1131.44C1133.5 28.1875 1135.48 28.4583 1137.38 29C1139.29 29.5208 1141.08 30.2708 1142.75 31.25C1144.42 32.2292 1145.93 33.4062 1147.28 34.7812C1148.64 36.1354 1149.8 37.6458 1150.78 39.3125C1151.76 40.9583 1152.51 42.7396 1153.03 44.6562C1153.57 46.5521 1153.84 48.5312 1153.84 50.5938ZM1144.88 50.5938C1144.88 48.7396 1144.52 47 1143.81 45.375C1143.12 43.75 1142.17 42.3333 1140.94 41.125C1139.73 39.8958 1138.3 38.9271 1136.66 38.2188C1135.03 37.5104 1133.29 37.1562 1131.44 37.1562H1126.97V64.0312H1131.44C1133.29 64.0312 1135.03 63.6875 1136.66 63C1138.3 62.2917 1139.73 61.3333 1140.94 60.125C1142.17 58.8958 1143.12 57.4688 1143.81 55.8438C1144.52 54.1979 1144.88 52.4479 1144.88 50.5938Z" fill="#E3DEDB"/>
<path d="M1168.78 73H1159.81V28.1875H1168.78V73Z" fill="#E3DEDB"/>
<path d="M1203.5 55.0938V46.125C1203.5 44.8958 1203.26 43.7396 1202.78 42.6562C1202.32 41.5521 1201.69 40.5938 1200.88 39.7812C1200.06 38.9688 1199.1 38.3333 1198 37.875C1196.92 37.3958 1195.76 37.1562 1194.53 37.1562C1193.3 37.1562 1192.14 37.3958 1191.03 37.875C1189.95 38.3333 1189 38.9688 1188.19 39.7812C1187.38 40.5938 1186.73 41.5521 1186.25 42.6562C1185.79 43.7396 1185.56 44.8958 1185.56 46.125V55.0938H1203.5ZM1212.47 73H1203.5V64.0312H1185.56V73H1176.62V46.125C1176.62 43.6458 1177.09 41.3229 1178.03 39.1562C1178.97 36.9688 1180.24 35.0625 1181.84 33.4375C1183.47 31.8125 1185.36 30.5312 1187.53 29.5938C1189.72 28.6562 1192.05 28.1875 1194.53 28.1875C1197.01 28.1875 1199.33 28.6562 1201.5 29.5938C1203.69 30.5312 1205.59 31.8125 1207.22 33.4375C1208.84 35.0625 1210.12 36.9688 1211.06 39.1562C1212 41.3229 1212.47 43.6458 1212.47 46.125V73Z" fill="#E3DEDB"/>
<path d="M1249.91 73H1240.94V37.1562H1236.47V28.1875H1249.91V73Z" fill="#E3DEDB"/>
<path d="M1291.59 56.5625C1291.59 58.9792 1291.16 61.2604 1290.28 63.4062C1289.43 65.5521 1288.24 67.4375 1286.72 69.0625C1285.2 70.6667 1283.39 71.9375 1281.28 72.875C1279.2 73.8125 1276.94 74.2812 1274.5 74.2812C1272.06 74.2812 1269.76 73.8125 1267.59 72.875C1265.45 71.9375 1263.57 70.6667 1261.97 69.0625C1260.36 67.4375 1259.09 65.5521 1258.16 63.4062C1257.24 61.2604 1256.78 58.9792 1256.78 56.5625C1256.78 53.6875 1257.06 50.8854 1257.62 48.1562C1258.19 45.4062 1259.01 42.8125 1260.09 40.375C1261.18 37.9167 1262.5 35.6562 1264.06 33.5938C1265.62 31.5312 1267.4 29.7292 1269.38 28.1875H1281.47C1280.22 29 1279 29.9062 1277.81 30.9062C1276.62 31.9062 1275.49 32.9792 1274.41 34.125C1273.34 35.2708 1272.35 36.4792 1271.44 37.75C1270.52 39.0208 1269.71 40.3438 1269 41.7188C1269.9 41.1146 1270.86 40.6042 1271.91 40.1875C1272.97 39.75 1274.05 39.5312 1275.16 39.5312C1277.68 39.5312 1279.95 39.9583 1281.97 40.8125C1284.01 41.6458 1285.74 42.8229 1287.16 44.3438C1288.57 45.8438 1289.67 47.6354 1290.44 49.7188C1291.21 51.8021 1291.59 54.0833 1291.59 56.5625ZM1282.62 56.5625C1282.62 55.375 1282.43 54.2604 1282.03 53.2188C1281.66 52.1562 1281.11 51.2292 1280.41 50.4375C1279.7 49.625 1278.84 48.9896 1277.84 48.5312C1276.84 48.0729 1275.73 47.8438 1274.5 47.8438C1273.27 47.8438 1272.16 48.0729 1271.16 48.5312C1270.16 48.9896 1269.3 49.625 1268.59 50.4375C1267.91 51.2292 1267.38 52.1562 1267 53.2188C1266.62 54.2604 1266.44 55.375 1266.44 56.5625C1266.44 57.7083 1266.62 58.8125 1267 59.875C1267.4 60.9167 1267.95 61.8438 1268.66 62.6562C1269.36 63.4688 1270.21 64.1146 1271.19 64.5938C1272.19 65.0729 1273.29 65.3125 1274.5 65.3125C1275.73 65.3125 1276.84 65.0833 1277.84 64.625C1278.84 64.1667 1279.7 63.5417 1280.41 62.75C1281.11 61.9375 1281.66 61 1282.03 59.9375C1282.43 58.875 1282.62 57.75 1282.62 56.5625Z" fill="#E3DEDB"/>
<path d="M1341.75 46.125V54.625H1315.5V46.125H1341.75Z" fill="#E3DEDB"/>
<path d="M1365.06 41.625C1365.06 39.7708 1365.42 38.0312 1366.12 36.4062C1366.83 34.7812 1367.79 33.3646 1369 32.1562C1370.23 30.9271 1371.66 29.9583 1373.28 29.25C1374.91 28.5417 1376.65 28.1875 1378.5 28.1875H1399.06V37.1562H1378.5C1377.88 37.1562 1377.29 37.2708 1376.75 37.5C1376.21 37.7292 1375.73 38.0521 1375.31 38.4688C1374.92 38.8646 1374.6 39.3333 1374.38 39.875C1374.15 40.4167 1374.03 41 1374.03 41.625C1374.03 42.25 1374.15 42.8438 1374.38 43.4062C1374.6 43.9479 1374.92 44.4271 1375.31 44.8438C1375.73 45.2396 1376.21 45.5521 1376.75 45.7812C1377.29 46.0104 1377.88 46.125 1378.5 46.125H1387.47C1389.32 46.125 1391.06 46.4792 1392.69 47.1875C1394.33 47.875 1395.76 48.8333 1396.97 50.0625C1398.2 51.2708 1399.16 52.6979 1399.84 54.3438C1400.55 55.9688 1400.91 57.7083 1400.91 59.5625C1400.91 61.4167 1400.55 63.1562 1399.84 64.7812C1399.16 66.4062 1398.2 67.8333 1396.97 69.0625C1395.76 70.2708 1394.33 71.2292 1392.69 71.9375C1391.06 72.6458 1389.32 73 1387.47 73H1367.56V64.0312H1387.47C1388.09 64.0312 1388.68 63.9167 1389.22 63.6875C1389.76 63.4583 1390.23 63.1458 1390.62 62.75C1391.04 62.3333 1391.36 61.8542 1391.59 61.3125C1391.82 60.7708 1391.94 60.1875 1391.94 59.5625C1391.94 58.9375 1391.82 58.3542 1391.59 57.8125C1391.36 57.2708 1391.04 56.8021 1390.62 56.4062C1390.23 55.9896 1389.76 55.6667 1389.22 55.4375C1388.68 55.2083 1388.09 55.0938 1387.47 55.0938H1378.5C1376.65 55.0938 1374.91 54.7396 1373.28 54.0312C1371.66 53.3229 1370.23 52.3646 1369 51.1562C1367.79 49.9271 1366.83 48.5 1366.12 46.875C1365.42 45.2292 1365.06 43.4792 1365.06 41.625Z" fill="#E3DEDB"/>
<path d="M1433.19 55.0938V46.125C1433.19 44.8958 1432.95 43.7396 1432.47 42.6562C1432.01 41.5521 1431.38 40.5938 1430.56 39.7812C1429.75 38.9688 1428.79 38.3333 1427.69 37.875C1426.6 37.3958 1425.45 37.1562 1424.22 37.1562C1422.99 37.1562 1421.82 37.3958 1420.72 37.875C1419.64 38.3333 1418.69 38.9688 1417.88 39.7812C1417.06 40.5938 1416.42 41.5521 1415.94 42.6562C1415.48 43.7396 1415.25 44.8958 1415.25 46.125V55.0938H1433.19ZM1442.16 73H1433.19V64.0312H1415.25V73H1406.31V46.125C1406.31 43.6458 1406.78 41.3229 1407.72 39.1562C1408.66 36.9688 1409.93 35.0625 1411.53 33.4375C1413.16 31.8125 1415.05 30.5312 1417.22 29.5938C1419.41 28.6562 1421.74 28.1875 1424.22 28.1875C1426.7 28.1875 1429.02 28.6562 1431.19 29.5938C1433.38 30.5312 1435.28 31.8125 1436.91 33.4375C1438.53 35.0625 1439.81 36.9688 1440.75 39.1562C1441.69 41.3229 1442.16 43.6458 1442.16 46.125V73ZM1424.31 25.5625L1420.78 20.9062L1430.06 12.25L1435.19 18.7812L1424.31 25.5625Z" fill="#E3DEDB"/>
<path d="M1485.78 59.5625C1485.78 61.4167 1485.43 63.1562 1484.72 64.7812C1484.01 66.4062 1483.04 67.8333 1481.81 69.0625C1480.6 70.2708 1479.19 71.2292 1477.56 71.9375C1475.94 72.6458 1474.2 73 1472.34 73H1449.94V28.1875H1472.34C1474.2 28.1875 1475.94 28.5417 1477.56 29.25C1479.19 29.9583 1480.6 30.9271 1481.81 32.1562C1483.04 33.3646 1484.01 34.7812 1484.72 36.4062C1485.43 38.0312 1485.78 39.7708 1485.78 41.625C1485.78 42.4583 1485.67 43.3125 1485.44 44.1875C1485.21 45.0625 1484.89 45.9062 1484.47 46.7188C1484.05 47.5312 1483.55 48.2708 1482.97 48.9375C1482.39 49.6042 1481.74 50.1562 1481.03 50.5938C1481.76 50.9896 1482.42 51.5312 1483 52.2188C1483.58 52.8854 1484.08 53.625 1484.5 54.4375C1484.92 55.25 1485.23 56.1042 1485.44 57C1485.67 57.875 1485.78 58.7292 1485.78 59.5625ZM1458.91 64.0312H1472.34C1472.97 64.0312 1473.55 63.9167 1474.09 63.6875C1474.64 63.4583 1475.1 63.1458 1475.5 62.75C1475.92 62.3333 1476.24 61.8542 1476.47 61.3125C1476.7 60.7708 1476.81 60.1875 1476.81 59.5625C1476.81 58.9375 1476.7 58.3542 1476.47 57.8125C1476.24 57.2708 1475.92 56.8021 1475.5 56.4062C1475.1 55.9896 1474.64 55.6667 1474.09 55.4375C1473.55 55.2083 1472.97 55.0938 1472.34 55.0938H1458.91V64.0312ZM1458.91 46.125H1472.34C1472.97 46.125 1473.55 46.0104 1474.09 45.7812C1474.64 45.5521 1475.1 45.2396 1475.5 44.8438C1475.92 44.4271 1476.24 43.9479 1476.47 43.4062C1476.7 42.8438 1476.81 42.25 1476.81 41.625C1476.81 41 1476.7 40.4167 1476.47 39.875C1476.24 39.3333 1475.92 38.8646 1475.5 38.4688C1475.1 38.0521 1474.64 37.7292 1474.09 37.5C1473.55 37.2708 1472.97 37.1562 1472.34 37.1562H1458.91V46.125Z" fill="#E3DEDB"/>
<path d="M1518.94 55.0938V46.125C1518.94 44.8958 1518.7 43.7396 1518.22 42.6562C1517.76 41.5521 1517.12 40.5938 1516.31 39.7812C1515.5 38.9688 1514.54 38.3333 1513.44 37.875C1512.35 37.3958 1511.2 37.1562 1509.97 37.1562C1508.74 37.1562 1507.57 37.3958 1506.47 37.875C1505.39 38.3333 1504.44 38.9688 1503.62 39.7812C1502.81 40.5938 1502.17 41.5521 1501.69 42.6562C1501.23 43.7396 1501 44.8958 1501 46.125V55.0938H1518.94ZM1527.91 73H1518.94V64.0312H1501V73H1492.06V46.125C1492.06 43.6458 1492.53 41.3229 1493.47 39.1562C1494.41 36.9688 1495.68 35.0625 1497.28 33.4375C1498.91 31.8125 1500.8 30.5312 1502.97 29.5938C1505.16 28.6562 1507.49 28.1875 1509.97 28.1875C1512.45 28.1875 1514.77 28.6562 1516.94 29.5938C1519.12 30.5312 1521.03 31.8125 1522.66 33.4375C1524.28 35.0625 1525.56 36.9688 1526.5 39.1562C1527.44 41.3229 1527.91 43.6458 1527.91 46.125V73Z" fill="#E3DEDB"/>
<path d="M1571.59 50.5938C1571.59 52.6562 1571.32 54.6458 1570.78 56.5625C1570.26 58.4583 1569.51 60.2396 1568.53 61.9062C1567.55 63.5521 1566.39 65.0625 1565.03 66.4375C1563.68 67.7917 1562.17 68.9583 1560.5 69.9375C1558.83 70.9167 1557.04 71.6771 1555.12 72.2188C1553.23 72.7396 1551.25 73 1549.19 73H1535.69V28.1875H1549.19C1551.25 28.1875 1553.23 28.4583 1555.12 29C1557.04 29.5208 1558.83 30.2708 1560.5 31.25C1562.17 32.2292 1563.68 33.4062 1565.03 34.7812C1566.39 36.1354 1567.55 37.6458 1568.53 39.3125C1569.51 40.9583 1570.26 42.7396 1570.78 44.6562C1571.32 46.5521 1571.59 48.5312 1571.59 50.5938ZM1562.62 50.5938C1562.62 48.7396 1562.27 47 1561.56 45.375C1560.88 43.75 1559.92 42.3333 1558.69 41.125C1557.48 39.8958 1556.05 38.9271 1554.41 38.2188C1552.78 37.5104 1551.04 37.1562 1549.19 37.1562H1544.72V64.0312H1549.19C1551.04 64.0312 1552.78 63.6875 1554.41 63C1556.05 62.2917 1557.48 61.3333 1558.69 60.125C1559.92 58.8958 1560.88 57.4688 1561.56 55.8438C1562.27 54.1979 1562.62 52.4479 1562.62 50.5938Z" fill="#E3DEDB"/>
<path d="M1621.47 50.7812C1621.47 52.9062 1621.19 54.9583 1620.62 56.9375C1620.08 58.8958 1619.31 60.7396 1618.31 62.4688C1617.31 64.1771 1616.1 65.7396 1614.69 67.1562C1613.27 68.5729 1611.71 69.7917 1610 70.8125C1608.29 71.8125 1606.45 72.5833 1604.47 73.125C1602.49 73.6875 1600.44 73.9688 1598.31 73.9688C1596.19 73.9688 1594.14 73.6875 1592.16 73.125C1590.2 72.5833 1588.35 71.8125 1586.62 70.8125C1584.92 69.7917 1583.35 68.5729 1581.94 67.1562C1580.52 65.7396 1579.3 64.1771 1578.28 62.4688C1577.28 60.7396 1576.5 58.8958 1575.94 56.9375C1575.4 54.9583 1575.12 52.9062 1575.12 50.7812C1575.12 48.6562 1575.4 46.6042 1575.94 44.625C1576.5 42.6458 1577.28 40.8021 1578.28 39.0938C1579.3 37.3854 1580.52 35.8229 1581.94 34.4062C1583.35 32.9896 1584.92 31.7812 1586.62 30.7812C1588.35 29.7812 1590.2 29.0104 1592.16 28.4688C1594.14 27.9062 1596.19 27.625 1598.31 27.625C1600.44 27.625 1602.49 27.9062 1604.47 28.4688C1606.45 29.0104 1608.29 29.7812 1610 30.7812C1611.71 31.7812 1613.27 32.9896 1614.69 34.4062C1616.1 35.8229 1617.31 37.3854 1618.31 39.0938C1619.31 40.8021 1620.08 42.6458 1620.62 44.625C1621.19 46.6042 1621.47 48.6562 1621.47 50.7812ZM1612.56 50.7812C1612.56 48.8229 1612.19 46.9792 1611.44 45.25C1610.69 43.5 1609.67 41.9896 1608.38 40.7188C1607.1 39.4271 1605.59 38.4062 1603.84 37.6562C1602.11 36.9062 1600.27 36.5312 1598.31 36.5312C1596.33 36.5312 1594.48 36.9062 1592.75 37.6562C1591.02 38.4062 1589.51 39.4271 1588.22 40.7188C1586.93 41.9896 1585.91 43.5 1585.16 45.25C1584.41 46.9792 1584.03 48.8229 1584.03 50.7812C1584.03 52.7396 1584.41 54.5833 1585.16 56.3125C1585.91 58.0208 1586.93 59.5208 1588.22 60.8125C1589.51 62.1042 1591.02 63.125 1592.75 63.875C1594.48 64.625 1596.33 65 1598.31 65C1600.27 65 1602.11 64.625 1603.84 63.875C1605.59 63.125 1607.1 62.1042 1608.38 60.8125C1609.67 59.5208 1610.69 58.0208 1611.44 56.3125C1612.19 54.5833 1612.56 52.7396 1612.56 50.7812Z" fill="#E3DEDB"/>
<path d="M152.062 140.781C152.062 142.906 151.781 144.958 151.219 146.938C150.677 148.896 149.906 150.74 148.906 152.469C147.906 154.177 146.698 155.74 145.281 157.156C143.865 158.573 142.302 159.792 140.594 160.812C138.885 161.812 137.042 162.583 135.062 163.125C133.083 163.688 131.031 163.969 128.906 163.969C126.781 163.969 124.729 163.688 122.75 163.125C120.792 162.583 118.948 161.812 117.219 160.812C115.51 159.792 113.948 158.573 112.531 157.156C111.115 155.74 109.896 154.177 108.875 152.469C107.875 150.74 107.094 148.896 106.531 146.938C105.99 144.958 105.719 142.906 105.719 140.781C105.719 138.656 105.99 136.604 106.531 134.625C107.094 132.646 107.875 130.802 108.875 129.094C109.896 127.385 111.115 125.823 112.531 124.406C113.948 122.99 115.51 121.781 117.219 120.781C118.948 119.781 120.792 119.01 122.75 118.469C124.729 117.906 126.781 117.625 128.906 117.625C131.031 117.625 133.083 117.906 135.062 118.469C137.042 119.01 138.885 119.781 140.594 120.781C142.302 121.781 143.865 122.99 145.281 124.406C146.698 125.823 147.906 127.385 148.906 129.094C149.906 130.802 150.677 132.646 151.219 134.625C151.781 136.604 152.062 138.656 152.062 140.781ZM143.156 140.781C143.156 138.823 142.781 136.979 142.031 135.25C141.281 133.5 140.26 131.99 138.969 130.719C137.698 129.427 136.188 128.406 134.438 127.656C132.708 126.906 130.865 126.531 128.906 126.531C126.927 126.531 125.073 126.906 123.344 127.656C121.615 128.406 120.104 129.427 118.812 130.719C117.521 131.99 116.5 133.5 115.75 135.25C115 136.979 114.625 138.823 114.625 140.781C114.625 142.74 115 144.583 115.75 146.312C116.5 148.021 117.521 149.521 118.812 150.812C120.104 152.104 121.615 153.125 123.344 153.875C125.073 154.625 126.927 155 128.906 155C130.865 155 132.708 154.625 134.438 153.875C136.188 153.125 137.698 152.104 138.969 150.812C140.26 149.521 141.281 148.021 142.031 146.312C142.781 144.583 143.156 142.74 143.156 140.781Z" fill="#973123"/>
<path d="M175.438 163H155.938V154.5H175.438C176.021 154.5 176.521 154.292 176.938 153.875C177.354 153.458 177.562 152.958 177.562 152.375C177.562 151.771 177.354 151.375 176.938 151.188C176.521 151 176.021 150.906 175.438 150.906H166.562C165.083 150.906 163.698 150.625 162.406 150.062C161.115 149.5 159.99 148.74 159.031 147.781C158.073 146.802 157.312 145.667 156.75 144.375C156.208 143.083 155.938 141.698 155.938 140.219C155.938 138.74 156.208 137.354 156.75 136.062C157.312 134.771 158.073 133.646 159.031 132.688C159.99 131.729 161.115 130.979 162.406 130.438C163.698 129.875 165.083 129.594 166.562 129.594H183.844V138.094H166.562C165.979 138.094 165.479 138.302 165.062 138.719C164.646 139.135 164.438 139.635 164.438 140.219C164.438 140.823 164.646 141.344 165.062 141.781C165.479 142.198 165.979 142.406 166.562 142.406H175.438C176.896 142.406 178.271 142.656 179.562 143.156C180.854 143.635 181.979 144.312 182.938 145.188C183.896 146.062 184.656 147.115 185.219 148.344C185.781 149.573 186.062 150.917 186.062 152.375C186.062 153.854 185.781 155.24 185.219 156.531C184.656 157.802 183.896 158.927 182.938 159.906C181.979 160.865 180.854 161.625 179.562 162.188C178.271 162.729 176.896 163 175.438 163Z" fill="#973123"/>
<path d="M245.125 158.469C243.042 160.24 240.719 161.604 238.156 162.562C235.594 163.5 232.927 163.969 230.156 163.969C228.031 163.969 225.979 163.688 224 163.125C222.042 162.583 220.208 161.812 218.5 160.812C216.792 159.792 215.229 158.583 213.812 157.188C212.396 155.771 211.188 154.208 210.188 152.5C209.188 150.771 208.406 148.917 207.844 146.938C207.302 144.958 207.031 142.906 207.031 140.781C207.031 138.656 207.302 136.615 207.844 134.656C208.406 132.698 209.188 130.865 210.188 129.156C211.188 127.427 212.396 125.865 213.812 124.469C215.229 123.052 216.792 121.844 218.5 120.844C220.208 119.844 222.042 119.073 224 118.531C225.979 117.969 228.031 117.688 230.156 117.688C232.927 117.688 235.594 118.167 238.156 119.125C240.719 120.062 243.042 121.417 245.125 123.188L240.438 131C239.083 129.625 237.521 128.552 235.75 127.781C233.979 126.99 232.115 126.594 230.156 126.594C228.198 126.594 226.354 126.969 224.625 127.719C222.917 128.469 221.417 129.49 220.125 130.781C218.833 132.052 217.812 133.552 217.062 135.281C216.312 136.99 215.938 138.823 215.938 140.781C215.938 142.76 216.312 144.615 217.062 146.344C217.812 148.073 218.833 149.583 220.125 150.875C221.417 152.167 222.917 153.188 224.625 153.938C226.354 154.688 228.198 155.062 230.156 155.062C231.281 155.062 232.375 154.927 233.438 154.656C234.5 154.385 235.51 154.01 236.469 153.531V140.781H245.125V158.469Z" fill="#973123"/>
<path d="M283.531 163H281.469L278.156 158.406C277.344 159.135 276.479 159.823 275.562 160.469C274.667 161.094 273.719 161.646 272.719 162.125C271.719 162.583 270.688 162.948 269.625 163.219C268.583 163.49 267.521 163.625 266.438 163.625C264.083 163.625 261.865 163.229 259.781 162.438C257.719 161.646 255.906 160.5 254.344 159C252.802 157.479 251.583 155.625 250.688 153.438C249.792 151.25 249.344 148.76 249.344 145.969C249.344 143.365 249.792 140.979 250.688 138.812C251.583 136.625 252.802 134.75 254.344 133.188C255.906 131.625 257.719 130.417 259.781 129.562C261.865 128.688 264.083 128.25 266.438 128.25C267.521 128.25 268.594 128.385 269.656 128.656C270.719 128.927 271.75 129.302 272.75 129.781C273.75 130.26 274.698 130.823 275.594 131.469C276.51 132.115 277.365 132.812 278.156 133.562L281.469 129.594H283.531V163ZM274.938 145.969C274.938 144.802 274.708 143.677 274.25 142.594C273.812 141.49 273.208 140.521 272.438 139.688C271.667 138.833 270.76 138.156 269.719 137.656C268.698 137.135 267.604 136.875 266.438 136.875C265.271 136.875 264.167 137.073 263.125 137.469C262.104 137.865 261.208 138.448 260.438 139.219C259.688 139.99 259.094 140.948 258.656 142.094C258.219 143.219 258 144.51 258 145.969C258 147.427 258.219 148.729 258.656 149.875C259.094 151 259.688 151.948 260.438 152.719C261.208 153.49 262.104 154.073 263.125 154.469C264.167 154.865 265.271 155.062 266.438 155.062C267.604 155.062 268.698 154.812 269.719 154.312C270.76 153.792 271.667 153.115 272.438 152.281C273.208 151.427 273.812 150.458 274.25 149.375C274.708 148.271 274.938 147.135 274.938 145.969Z" fill="#973123"/>
<path d="M306.844 163C304.781 163 302.844 162.615 301.031 161.844C299.219 161.052 297.625 159.979 296.25 158.625C294.896 157.25 293.823 155.656 293.031 153.844C292.26 152.031 291.875 150.094 291.875 148.031V138.094H287.719V129.594H291.875V116.219H300.375V129.594H313.312V138.094H300.375V148.031C300.375 148.927 300.542 149.771 300.875 150.562C301.208 151.333 301.667 152.01 302.25 152.594C302.833 153.177 303.521 153.646 304.312 154C305.104 154.333 305.948 154.5 306.844 154.5H313.312V163H306.844Z" fill="#973123"/>
<path d="M350.469 145.969C350.469 148.469 350.021 150.802 349.125 152.969C348.229 155.115 347.01 156.979 345.469 158.562C343.927 160.125 342.115 161.365 340.031 162.281C337.969 163.177 335.75 163.625 333.375 163.625C331.021 163.625 328.802 163.177 326.719 162.281C324.656 161.365 322.844 160.125 321.281 158.562C319.74 156.979 318.521 155.115 317.625 152.969C316.729 150.802 316.281 148.469 316.281 145.969C316.281 143.427 316.729 141.073 317.625 138.906C318.521 136.74 319.74 134.875 321.281 133.312C322.844 131.729 324.656 130.49 326.719 129.594C328.802 128.698 331.021 128.25 333.375 128.25C335.75 128.25 337.969 128.677 340.031 129.531C342.115 130.365 343.927 131.562 345.469 133.125C347.01 134.667 348.229 136.531 349.125 138.719C350.021 140.885 350.469 143.302 350.469 145.969ZM341.875 145.969C341.875 144.594 341.646 143.354 341.188 142.25C340.75 141.125 340.146 140.167 339.375 139.375C338.604 138.562 337.698 137.948 336.656 137.531C335.635 137.094 334.542 136.875 333.375 136.875C332.208 136.875 331.104 137.094 330.062 137.531C329.042 137.948 328.146 138.562 327.375 139.375C326.625 140.167 326.031 141.125 325.594 142.25C325.156 143.354 324.938 144.594 324.938 145.969C324.938 147.26 325.156 148.458 325.594 149.562C326.031 150.667 326.625 151.625 327.375 152.438C328.146 153.25 329.042 153.896 330.062 154.375C331.104 154.833 332.208 155.062 333.375 155.062C334.542 155.062 335.635 154.844 336.656 154.406C337.698 153.969 338.604 153.354 339.375 152.562C340.146 151.771 340.75 150.812 341.188 149.688C341.646 148.562 341.875 147.323 341.875 145.969Z" fill="#973123"/>
<path d="M373.562 163H354.062V154.5H373.562C374.146 154.5 374.646 154.292 375.062 153.875C375.479 153.458 375.688 152.958 375.688 152.375C375.688 151.771 375.479 151.375 375.062 151.188C374.646 151 374.146 150.906 373.562 150.906H364.688C363.208 150.906 361.823 150.625 360.531 150.062C359.24 149.5 358.115 148.74 357.156 147.781C356.198 146.802 355.438 145.667 354.875 144.375C354.333 143.083 354.062 141.698 354.062 140.219C354.062 138.74 354.333 137.354 354.875 136.062C355.438 134.771 356.198 133.646 357.156 132.688C358.115 131.729 359.24 130.979 360.531 130.438C361.823 129.875 363.208 129.594 364.688 129.594H381.969V138.094H364.688C364.104 138.094 363.604 138.302 363.188 138.719C362.771 139.135 362.562 139.635 362.562 140.219C362.562 140.823 362.771 141.344 363.188 141.781C363.604 142.198 364.104 142.406 364.688 142.406H373.562C375.021 142.406 376.396 142.656 377.688 143.156C378.979 143.635 380.104 144.312 381.062 145.188C382.021 146.062 382.781 147.115 383.344 148.344C383.906 149.573 384.188 150.917 384.188 152.375C384.188 153.854 383.906 155.24 383.344 156.531C382.781 157.802 382.021 158.927 381.062 159.906C380.104 160.865 378.979 161.625 377.688 162.188C376.396 162.729 375.021 163 373.562 163Z" fill="#973123"/>
<path d="M443.438 163H433.844L416.562 133.5V163H407.594V118.188H417.188L434.469 147.719V118.188H443.438V163Z" fill="#973123"/>
<path d="M463.688 154.812C464.021 154.917 464.354 154.99 464.688 155.031C465.021 155.052 465.354 155.062 465.688 155.062C466.521 155.062 467.323 154.948 468.094 154.719C468.865 154.49 469.583 154.167 470.25 153.75C470.938 153.312 471.542 152.792 472.062 152.188C472.604 151.562 473.042 150.875 473.375 150.125L479.625 156.406C478.833 157.531 477.917 158.542 476.875 159.438C475.854 160.333 474.74 161.094 473.531 161.719C472.344 162.344 471.083 162.812 469.75 163.125C468.438 163.458 467.083 163.625 465.688 163.625C463.333 163.625 461.115 163.188 459.031 162.312C456.969 161.438 455.156 160.219 453.594 158.656C452.052 157.094 450.833 155.24 449.938 153.094C449.042 150.927 448.594 148.552 448.594 145.969C448.594 143.323 449.042 140.906 449.938 138.719C450.833 136.531 452.052 134.667 453.594 133.125C455.156 131.583 456.969 130.385 459.031 129.531C461.115 128.677 463.333 128.25 465.688 128.25C467.083 128.25 468.448 128.417 469.781 128.75C471.115 129.083 472.375 129.562 473.562 130.188C474.771 130.812 475.896 131.583 476.938 132.5C477.979 133.396 478.896 134.406 479.688 135.531L463.688 154.812ZM468.062 137.219C467.667 137.073 467.271 136.979 466.875 136.938C466.5 136.896 466.104 136.875 465.688 136.875C464.521 136.875 463.417 137.094 462.375 137.531C461.354 137.948 460.458 138.552 459.688 139.344C458.938 140.135 458.344 141.094 457.906 142.219C457.469 143.323 457.25 144.573 457.25 145.969C457.25 146.281 457.26 146.635 457.281 147.031C457.323 147.427 457.375 147.833 457.438 148.25C457.521 148.646 457.615 149.031 457.719 149.406C457.823 149.781 457.958 150.115 458.125 150.406L468.062 137.219Z" fill="#973123"/>
<path d="M507.562 145.969C507.562 144.802 507.333 143.677 506.875 142.594C506.438 141.49 505.833 140.521 505.062 139.688C504.292 138.833 503.385 138.156 502.344 137.656C501.323 137.135 500.229 136.875 499.062 136.875C497.896 136.875 496.792 137.073 495.75 137.469C494.729 137.865 493.833 138.448 493.062 139.219C492.312 139.99 491.719 140.948 491.281 142.094C490.844 143.219 490.625 144.51 490.625 145.969C490.625 147.365 490.844 148.625 491.281 149.75C491.719 150.854 492.312 151.802 493.062 152.594C493.833 153.385 494.729 154 495.75 154.438C496.792 154.854 497.896 155.062 499.062 155.062C500.229 155.062 501.323 154.812 502.344 154.312C503.385 153.792 504.292 153.115 505.062 152.281C505.833 151.427 506.438 150.458 506.875 149.375C507.333 148.271 507.562 147.135 507.562 145.969ZM516.156 158.781C516.156 161.135 515.708 163.344 514.812 165.406C513.917 167.469 512.688 169.271 511.125 170.812C509.583 172.354 507.771 173.573 505.688 174.469C503.625 175.365 501.417 175.812 499.062 175.812L494.781 175.75V167.219L499 167.281C500.333 167.281 501.469 167.104 502.406 166.75C503.344 166.417 504.135 165.948 504.781 165.344C505.427 164.76 505.938 164.083 506.312 163.312C506.708 162.542 507.021 161.729 507.25 160.875C506.917 161.417 506.438 161.865 505.812 162.219C505.188 162.552 504.49 162.823 503.719 163.031C502.969 163.26 502.177 163.417 501.344 163.5C500.531 163.583 499.771 163.625 499.062 163.625C496.708 163.625 494.49 163.219 492.406 162.406C490.344 161.594 488.531 160.438 486.969 158.938C485.427 157.417 484.208 155.562 483.312 153.375C482.417 151.188 481.969 148.719 481.969 145.969C481.969 143.448 482.417 141.104 483.312 138.938C484.208 136.771 485.427 134.896 486.969 133.312C488.531 131.729 490.344 130.49 492.406 129.594C494.49 128.698 496.708 128.25 499.062 128.25C500.146 128.25 501.219 128.385 502.281 128.656C503.344 128.927 504.375 129.302 505.375 129.781C506.375 130.26 507.323 130.823 508.219 131.469C509.135 132.115 509.99 132.812 510.781 133.562L514.094 129.594H516.156V158.781Z" fill="#973123"/>
<path d="M531.219 163H522.688V129.531H524.75L527.562 133.5C528.938 132.25 530.5 131.292 532.25 130.625C534 129.938 535.812 129.594 537.688 129.594H545.219V138.094H537.688C536.792 138.094 535.948 138.26 535.156 138.594C534.365 138.927 533.677 139.385 533.094 139.969C532.51 140.552 532.052 141.24 531.719 142.031C531.385 142.823 531.219 143.667 531.219 144.562V163Z" fill="#973123"/>
<path d="M580.906 145.969C580.906 148.469 580.458 150.802 579.562 152.969C578.667 155.115 577.448 156.979 575.906 158.562C574.365 160.125 572.552 161.365 570.469 162.281C568.406 163.177 566.188 163.625 563.812 163.625C561.458 163.625 559.24 163.177 557.156 162.281C555.094 161.365 553.281 160.125 551.719 158.562C550.177 156.979 548.958 155.115 548.062 152.969C547.167 150.802 546.719 148.469 546.719 145.969C546.719 143.427 547.167 141.073 548.062 138.906C548.958 136.74 550.177 134.875 551.719 133.312C553.281 131.729 555.094 130.49 557.156 129.594C559.24 128.698 561.458 128.25 563.812 128.25C566.188 128.25 568.406 128.677 570.469 129.531C572.552 130.365 574.365 131.562 575.906 133.125C577.448 134.667 578.667 136.531 579.562 138.719C580.458 140.885 580.906 143.302 580.906 145.969ZM572.312 145.969C572.312 144.594 572.083 143.354 571.625 142.25C571.188 141.125 570.583 140.167 569.812 139.375C569.042 138.562 568.135 137.948 567.094 137.531C566.073 137.094 564.979 136.875 563.812 136.875C562.646 136.875 561.542 137.094 560.5 137.531C559.479 137.948 558.583 138.562 557.812 139.375C557.062 140.167 556.469 141.125 556.031 142.25C555.594 143.354 555.375 144.594 555.375 145.969C555.375 147.26 555.594 148.458 556.031 149.562C556.469 150.667 557.062 151.625 557.812 152.438C558.583 153.25 559.479 153.896 560.5 154.375C561.542 154.833 562.646 155.062 563.812 155.062C564.979 155.062 566.073 154.844 567.094 154.406C568.135 153.969 569.042 153.354 569.812 152.562C570.583 151.771 571.188 150.812 571.625 149.688C572.083 148.562 572.312 147.323 572.312 145.969Z" fill="#973123"/>
<path d="M604 163H584.5V154.5H604C604.583 154.5 605.083 154.292 605.5 153.875C605.917 153.458 606.125 152.958 606.125 152.375C606.125 151.771 605.917 151.375 605.5 151.188C605.083 151 604.583 150.906 604 150.906H595.125C593.646 150.906 592.26 150.625 590.969 150.062C589.677 149.5 588.552 148.74 587.594 147.781C586.635 146.802 585.875 145.667 585.312 144.375C584.771 143.083 584.5 141.698 584.5 140.219C584.5 138.74 584.771 137.354 585.312 136.062C585.875 134.771 586.635 133.646 587.594 132.688C588.552 131.729 589.677 130.979 590.969 130.438C592.26 129.875 593.646 129.594 595.125 129.594H612.406V138.094H595.125C594.542 138.094 594.042 138.302 593.625 138.719C593.208 139.135 593 139.635 593 140.219C593 140.823 593.208 141.344 593.625 141.781C594.042 142.198 594.542 142.406 595.125 142.406H604C605.458 142.406 606.833 142.656 608.125 143.156C609.417 143.635 610.542 144.312 611.5 145.188C612.458 146.062 613.219 147.115 613.781 148.344C614.344 149.573 614.625 150.917 614.625 152.375C614.625 153.854 614.344 155.24 613.781 156.531C613.219 157.802 612.458 158.927 611.5 159.906C610.542 160.865 609.417 161.625 608.125 162.188C606.833 162.729 605.458 163 604 163Z" fill="#973123"/>
<path d="M152.625 293H143.688V261C143.688 260.375 143.562 259.792 143.312 259.25C143.083 258.708 142.76 258.24 142.344 257.844C141.948 257.427 141.479 257.104 140.938 256.875C140.396 256.646 139.812 256.531 139.188 256.531C138.562 256.531 137.979 256.646 137.438 256.875C136.896 257.104 136.417 257.427 136 257.844C135.604 258.24 135.292 258.708 135.062 259.25C134.833 259.792 134.719 260.375 134.719 261V293H125.75V261C125.75 260.375 125.635 259.792 125.406 259.25C125.177 258.708 124.854 258.24 124.438 257.844C124.042 257.427 123.573 257.104 123.031 256.875C122.49 256.646 121.906 256.531 121.281 256.531C120.656 256.531 120.073 256.646 119.531 256.875C118.99 257.104 118.51 257.427 118.094 257.844C117.698 258.24 117.385 258.708 117.156 259.25C116.927 259.792 116.812 260.375 116.812 261V293H107.844V261C107.844 259.146 108.188 257.406 108.875 255.781C109.583 254.135 110.542 252.708 111.75 251.5C112.979 250.271 114.406 249.312 116.031 248.625C117.677 247.917 119.427 247.562 121.281 247.562C122.948 247.562 124.552 247.865 126.094 248.469C127.635 249.052 129.021 249.906 130.25 251.031C131.479 249.906 132.854 249.052 134.375 248.469C135.917 247.865 137.521 247.562 139.188 247.562C141.042 247.562 142.781 247.917 144.406 248.625C146.052 249.312 147.479 250.271 148.688 251.5C149.917 252.708 150.875 254.135 151.562 255.781C152.271 257.406 152.625 259.146 152.625 261V293Z" fill="#973123"/>
<path d="M191.719 275.969C191.719 278.469 191.271 280.802 190.375 282.969C189.479 285.115 188.26 286.979 186.719 288.562C185.177 290.125 183.365 291.365 181.281 292.281C179.219 293.177 177 293.625 174.625 293.625C172.271 293.625 170.052 293.177 167.969 292.281C165.906 291.365 164.094 290.125 162.531 288.562C160.99 286.979 159.771 285.115 158.875 282.969C157.979 280.802 157.531 278.469 157.531 275.969C157.531 273.427 157.979 271.073 158.875 268.906C159.771 266.74 160.99 264.875 162.531 263.312C164.094 261.729 165.906 260.49 167.969 259.594C170.052 258.698 172.271 258.25 174.625 258.25C177 258.25 179.219 258.677 181.281 259.531C183.365 260.365 185.177 261.562 186.719 263.125C188.26 264.667 189.479 266.531 190.375 268.719C191.271 270.885 191.719 273.302 191.719 275.969ZM183.125 275.969C183.125 274.594 182.896 273.354 182.438 272.25C182 271.125 181.396 270.167 180.625 269.375C179.854 268.562 178.948 267.948 177.906 267.531C176.885 267.094 175.792 266.875 174.625 266.875C173.458 266.875 172.354 267.094 171.312 267.531C170.292 267.948 169.396 268.562 168.625 269.375C167.875 270.167 167.281 271.125 166.844 272.25C166.406 273.354 166.188 274.594 166.188 275.969C166.188 277.26 166.406 278.458 166.844 279.562C167.281 280.667 167.875 281.625 168.625 282.438C169.396 283.25 170.292 283.896 171.312 284.375C172.354 284.833 173.458 285.062 174.625 285.062C175.792 285.062 176.885 284.844 177.906 284.406C178.948 283.969 179.854 283.354 180.625 282.562C181.396 281.771 182 280.812 182.438 279.688C182.896 278.562 183.125 277.323 183.125 275.969Z" fill="#973123"/>
<path d="M206.5 250.438C206.5 251.229 206.344 251.969 206.031 252.656C205.74 253.344 205.333 253.948 204.812 254.469C204.292 254.969 203.677 255.375 202.969 255.688C202.281 255.979 201.542 256.125 200.75 256.125C199.958 256.125 199.208 255.979 198.5 255.688C197.812 255.375 197.208 254.969 196.688 254.469C196.188 253.948 195.781 253.344 195.469 252.656C195.177 251.969 195.031 251.229 195.031 250.438C195.031 249.667 195.177 248.938 195.469 248.25C195.781 247.542 196.188 246.938 196.688 246.438C197.208 245.917 197.812 245.51 198.5 245.219C199.208 244.906 199.958 244.75 200.75 244.75C201.542 244.75 202.281 244.906 202.969 245.219C203.677 245.51 204.292 245.917 204.812 246.438C205.333 246.938 205.74 247.542 206.031 248.25C206.344 248.938 206.5 249.667 206.5 250.438ZM205.031 293H196.438V259.531H205.031V293Z" fill="#973123"/>
<path d="M220.094 293H211.562V259.531H213.625L216.438 262.781C217.812 261.531 219.365 260.573 221.094 259.906C222.844 259.219 224.667 258.875 226.562 258.875C228.604 258.875 230.531 259.271 232.344 260.062C234.156 260.833 235.74 261.906 237.094 263.281C238.448 264.635 239.51 266.229 240.281 268.062C241.073 269.875 241.469 271.812 241.469 273.875V293H232.938V273.875C232.938 273 232.771 272.177 232.438 271.406C232.104 270.615 231.646 269.927 231.062 269.344C230.479 268.76 229.802 268.302 229.031 267.969C228.26 267.635 227.438 267.469 226.562 267.469C225.667 267.469 224.823 267.635 224.031 267.969C223.24 268.302 222.552 268.76 221.969 269.344C221.385 269.927 220.927 270.615 220.594 271.406C220.26 272.177 220.094 273 220.094 273.875V293Z" fill="#973123"/>
<path d="M256.094 293H247.562V246.219H256.094V261C257.115 260.229 258.167 259.688 259.25 259.375C260.333 259.042 261.438 258.875 262.562 258.875C264.625 258.875 266.562 259.271 268.375 260.062C270.188 260.833 271.76 261.906 273.094 263.281C274.448 264.635 275.51 266.229 276.281 268.062C277.073 269.875 277.469 271.812 277.469 273.875V293H268.875V273.875H268.938C268.938 273 268.771 272.177 268.438 271.406C268.104 270.615 267.646 269.927 267.062 269.344C266.479 268.76 265.802 268.302 265.031 267.969C264.26 267.635 263.438 267.469 262.562 267.469C261.667 267.469 260.823 267.635 260.031 267.969C259.24 268.302 258.552 268.76 257.969 269.344C257.385 269.927 256.927 270.615 256.594 271.406C256.26 272.177 256.094 273 256.094 273.875V293Z" fill="#973123"/>
<path d="M315.906 275.969C315.906 278.469 315.458 280.802 314.562 282.969C313.667 285.115 312.448 286.979 310.906 288.562C309.365 290.125 307.552 291.365 305.469 292.281C303.406 293.177 301.188 293.625 298.812 293.625C296.458 293.625 294.24 293.177 292.156 292.281C290.094 291.365 288.281 290.125 286.719 288.562C285.177 286.979 283.958 285.115 283.062 282.969C282.167 280.802 281.719 278.469 281.719 275.969C281.719 273.427 282.167 271.073 283.062 268.906C283.958 266.74 285.177 264.875 286.719 263.312C288.281 261.729 290.094 260.49 292.156 259.594C294.24 258.698 296.458 258.25 298.812 258.25C301.188 258.25 303.406 258.677 305.469 259.531C307.552 260.365 309.365 261.562 310.906 263.125C312.448 264.667 313.667 266.531 314.562 268.719C315.458 270.885 315.906 273.302 315.906 275.969ZM307.312 275.969C307.312 274.594 307.083 273.354 306.625 272.25C306.188 271.125 305.583 270.167 304.812 269.375C304.042 268.562 303.135 267.948 302.094 267.531C301.073 267.094 299.979 266.875 298.812 266.875C297.646 266.875 296.542 267.094 295.5 267.531C294.479 267.948 293.583 268.562 292.812 269.375C292.062 270.167 291.469 271.125 291.031 272.25C290.594 273.354 290.375 274.594 290.375 275.969C290.375 277.26 290.594 278.458 291.031 279.562C291.469 280.667 292.062 281.625 292.812 282.438C293.583 283.25 294.479 283.896 295.5 284.375C296.542 284.833 297.646 285.062 298.812 285.062C299.979 285.062 301.073 284.844 302.094 284.406C303.135 283.969 304.042 283.354 304.812 282.562C305.583 281.771 306.188 280.812 306.625 279.688C307.083 278.562 307.312 277.323 307.312 275.969Z" fill="#973123"/>
<path d="M373.719 248.188L359 293H350.031L335.375 248.188H345.562L354.5 278.094L363.469 248.188H373.719Z" fill="#973123"/>
<path d="M387.562 284.812C387.896 284.917 388.229 284.99 388.562 285.031C388.896 285.052 389.229 285.062 389.562 285.062C390.396 285.062 391.198 284.948 391.969 284.719C392.74 284.49 393.458 284.167 394.125 283.75C394.812 283.312 395.417 282.792 395.938 282.188C396.479 281.562 396.917 280.875 397.25 280.125L403.5 286.406C402.708 287.531 401.792 288.542 400.75 289.438C399.729 290.333 398.615 291.094 397.406 291.719C396.219 292.344 394.958 292.812 393.625 293.125C392.312 293.458 390.958 293.625 389.562 293.625C387.208 293.625 384.99 293.188 382.906 292.312C380.844 291.438 379.031 290.219 377.469 288.656C375.927 287.094 374.708 285.24 373.812 283.094C372.917 280.927 372.469 278.552 372.469 275.969C372.469 273.323 372.917 270.906 373.812 268.719C374.708 266.531 375.927 264.667 377.469 263.125C379.031 261.583 380.844 260.385 382.906 259.531C384.99 258.677 387.208 258.25 389.562 258.25C390.958 258.25 392.323 258.417 393.656 258.75C394.99 259.083 396.25 259.562 397.438 260.188C398.646 260.812 399.771 261.583 400.812 262.5C401.854 263.396 402.771 264.406 403.562 265.531L387.562 284.812ZM391.938 267.219C391.542 267.073 391.146 266.979 390.75 266.938C390.375 266.896 389.979 266.875 389.562 266.875C388.396 266.875 387.292 267.094 386.25 267.531C385.229 267.948 384.333 268.552 383.562 269.344C382.812 270.135 382.219 271.094 381.781 272.219C381.344 273.323 381.125 274.573 381.125 275.969C381.125 276.281 381.135 276.635 381.156 277.031C381.198 277.427 381.25 277.833 381.312 278.25C381.396 278.646 381.49 279.031 381.594 279.406C381.698 279.781 381.833 280.115 382 280.406L391.938 267.219Z" fill="#973123"/>
<path d="M416.406 293H407.875V259.531H409.938L412.75 263.5C414.125 262.25 415.688 261.292 417.438 260.625C419.188 259.938 421 259.594 422.875 259.594H430.406V268.094H422.875C421.979 268.094 421.135 268.26 420.344 268.594C419.552 268.927 418.865 269.385 418.281 269.969C417.698 270.552 417.24 271.24 416.906 272.031C416.573 272.823 416.406 273.667 416.406 274.562V293Z" fill="#973123"/>
<path d="M476.938 293H468.438V271.75C468.438 271.167 468.323 270.615 468.094 270.094C467.885 269.573 467.583 269.115 467.188 268.719C466.792 268.323 466.333 268.021 465.812 267.812C465.292 267.583 464.74 267.469 464.156 267.469C463.573 267.469 463.021 267.583 462.5 267.812C462 268.021 461.552 268.323 461.156 268.719C460.781 269.115 460.479 269.573 460.25 270.094C460.042 270.615 459.938 271.167 459.938 271.75V293H451.406V271.75C451.406 271.167 451.292 270.615 451.062 270.094C450.854 269.573 450.552 269.115 450.156 268.719C449.76 268.323 449.302 268.021 448.781 267.812C448.26 267.583 447.708 267.469 447.125 267.469C446.542 267.469 445.99 267.583 445.469 267.812C444.969 268.021 444.521 268.323 444.125 268.719C443.75 269.115 443.448 269.573 443.219 270.094C443.01 270.615 442.906 271.167 442.906 271.75V293H434.375V259.531H436.438L438.75 262.094C439.938 261.094 441.24 260.323 442.656 259.781C444.094 259.219 445.583 258.938 447.125 258.938C448.688 258.938 450.208 259.229 451.688 259.812C453.188 260.396 454.5 261.406 455.625 262.844C456.146 262.135 456.74 261.531 457.406 261.031C458.073 260.531 458.771 260.125 459.5 259.812C460.25 259.5 461.021 259.281 461.812 259.156C462.604 259.01 463.385 258.938 464.156 258.938C465.927 258.938 467.583 259.271 469.125 259.938C470.688 260.604 472.042 261.521 473.188 262.688C474.354 263.833 475.271 265.188 475.938 266.75C476.604 268.312 476.938 269.979 476.938 271.75V293Z" fill="#973123"/>
<path d="M496.5 284.812C496.833 284.917 497.167 284.99 497.5 285.031C497.833 285.052 498.167 285.062 498.5 285.062C499.333 285.062 500.135 284.948 500.906 284.719C501.677 284.49 502.396 284.167 503.062 283.75C503.75 283.312 504.354 282.792 504.875 282.188C505.417 281.562 505.854 280.875 506.188 280.125L512.438 286.406C511.646 287.531 510.729 288.542 509.688 289.438C508.667 290.333 507.552 291.094 506.344 291.719C505.156 292.344 503.896 292.812 502.562 293.125C501.25 293.458 499.896 293.625 498.5 293.625C496.146 293.625 493.927 293.188 491.844 292.312C489.781 291.438 487.969 290.219 486.406 288.656C484.865 287.094 483.646 285.24 482.75 283.094C481.854 280.927 481.406 278.552 481.406 275.969C481.406 273.323 481.854 270.906 482.75 268.719C483.646 266.531 484.865 264.667 486.406 263.125C487.969 261.583 489.781 260.385 491.844 259.531C493.927 258.677 496.146 258.25 498.5 258.25C499.896 258.25 501.26 258.417 502.594 258.75C503.927 259.083 505.188 259.562 506.375 260.188C507.583 260.812 508.708 261.583 509.75 262.5C510.792 263.396 511.708 264.406 512.5 265.531L496.5 284.812ZM500.875 267.219C500.479 267.073 500.083 266.979 499.688 266.938C499.312 266.896 498.917 266.875 498.5 266.875C497.333 266.875 496.229 267.094 495.188 267.531C494.167 267.948 493.271 268.552 492.5 269.344C491.75 270.135 491.156 271.094 490.719 272.219C490.281 273.323 490.062 274.573 490.062 275.969C490.062 276.281 490.073 276.635 490.094 277.031C490.135 277.427 490.188 277.833 490.25 278.25C490.333 278.646 490.427 279.031 490.531 279.406C490.635 279.781 490.771 280.115 490.938 280.406L500.875 267.219Z" fill="#973123"/>
<path d="M525.406 293H516.812V246.219H525.406V293Z" fill="#973123"/>
<path d="M540.469 293H531.938V246.219H540.469V261C541.49 260.229 542.542 259.688 543.625 259.375C544.708 259.042 545.812 258.875 546.938 258.875C549 258.875 550.938 259.271 552.75 260.062C554.562 260.833 556.135 261.906 557.469 263.281C558.823 264.635 559.885 266.229 560.656 268.062C561.448 269.875 561.844 271.812 561.844 273.875V293H553.25V273.875H553.312C553.312 273 553.146 272.177 552.812 271.406C552.479 270.615 552.021 269.927 551.438 269.344C550.854 268.76 550.177 268.302 549.406 267.969C548.635 267.635 547.812 267.469 546.938 267.469C546.042 267.469 545.198 267.635 544.406 267.969C543.615 268.302 542.927 268.76 542.344 269.344C541.76 269.927 541.302 270.615 540.969 271.406C540.635 272.177 540.469 273 540.469 273.875V293Z" fill="#973123"/>
<path d="M600.281 275.969C600.281 278.469 599.833 280.802 598.938 282.969C598.042 285.115 596.823 286.979 595.281 288.562C593.74 290.125 591.927 291.365 589.844 292.281C587.781 293.177 585.562 293.625 583.188 293.625C580.833 293.625 578.615 293.177 576.531 292.281C574.469 291.365 572.656 290.125 571.094 288.562C569.552 286.979 568.333 285.115 567.438 282.969C566.542 280.802 566.094 278.469 566.094 275.969C566.094 273.427 566.542 271.073 567.438 268.906C568.333 266.74 569.552 264.875 571.094 263.312C572.656 261.729 574.469 260.49 576.531 259.594C578.615 258.698 580.833 258.25 583.188 258.25C585.562 258.25 587.781 258.677 589.844 259.531C591.927 260.365 593.74 261.562 595.281 263.125C596.823 264.667 598.042 266.531 598.938 268.719C599.833 270.885 600.281 273.302 600.281 275.969ZM591.688 275.969C591.688 274.594 591.458 273.354 591 272.25C590.562 271.125 589.958 270.167 589.188 269.375C588.417 268.562 587.51 267.948 586.469 267.531C585.448 267.094 584.354 266.875 583.188 266.875C582.021 266.875 580.917 267.094 579.875 267.531C578.854 267.948 577.958 268.562 577.188 269.375C576.438 270.167 575.844 271.125 575.406 272.25C574.969 273.354 574.75 274.594 574.75 275.969C574.75 277.26 574.969 278.458 575.406 279.562C575.844 280.667 576.438 281.625 577.188 282.438C577.958 283.25 578.854 283.896 579.875 284.375C580.917 284.833 582.021 285.062 583.188 285.062C584.354 285.062 585.448 284.844 586.469 284.406C587.51 283.969 588.417 283.354 589.188 282.562C589.958 281.771 590.562 280.812 591 279.688C591.458 278.562 591.688 277.323 591.688 275.969Z" fill="#973123"/>
<path d="M143.938 418.406C141.854 420.198 139.521 421.573 136.938 422.531C134.354 423.49 131.677 423.969 128.906 423.969C126.781 423.969 124.729 423.688 122.75 423.125C120.792 422.583 118.948 421.812 117.219 420.812C115.51 419.792 113.948 418.573 112.531 417.156C111.115 415.74 109.896 414.177 108.875 412.469C107.875 410.74 107.094 408.896 106.531 406.938C105.99 404.958 105.719 402.906 105.719 400.781C105.719 398.656 105.99 396.604 106.531 394.625C107.094 392.646 107.875 390.802 108.875 389.094C109.896 387.365 111.115 385.792 112.531 384.375C113.948 382.958 115.51 381.75 117.219 380.75C118.948 379.729 120.792 378.948 122.75 378.406C124.729 377.844 126.781 377.562 128.906 377.562C131.677 377.562 134.354 378.042 136.938 379C139.521 379.938 141.854 381.312 143.938 383.125L139.188 390.938C137.875 389.521 136.323 388.438 134.531 387.688C132.74 386.917 130.865 386.531 128.906 386.531C126.927 386.531 125.073 386.906 123.344 387.656C121.615 388.406 120.104 389.427 118.812 390.719C117.521 391.99 116.5 393.5 115.75 395.25C115 396.979 114.625 398.823 114.625 400.781C114.625 402.74 115 404.583 115.75 406.312C116.5 408.021 117.521 409.521 118.812 410.812C120.104 412.104 121.615 413.125 123.344 413.875C125.073 414.625 126.927 415 128.906 415C130.865 415 132.74 414.625 134.531 413.875C136.323 413.104 137.875 412.01 139.188 410.594L143.938 418.406Z" fill="#973123"/>
<path d="M179.469 423H177.406L174.094 418.406C173.281 419.135 172.417 419.823 171.5 420.469C170.604 421.094 169.656 421.646 168.656 422.125C167.656 422.583 166.625 422.948 165.562 423.219C164.521 423.49 163.458 423.625 162.375 423.625C160.021 423.625 157.802 423.229 155.719 422.438C153.656 421.646 151.844 420.5 150.281 419C148.74 417.479 147.521 415.625 146.625 413.438C145.729 411.25 145.281 408.76 145.281 405.969C145.281 403.365 145.729 400.979 146.625 398.812C147.521 396.625 148.74 394.75 150.281 393.188C151.844 391.625 153.656 390.417 155.719 389.562C157.802 388.688 160.021 388.25 162.375 388.25C163.458 388.25 164.531 388.385 165.594 388.656C166.656 388.927 167.688 389.302 168.688 389.781C169.688 390.26 170.635 390.823 171.531 391.469C172.448 392.115 173.302 392.812 174.094 393.562L177.406 389.594H179.469V423ZM170.875 405.969C170.875 404.802 170.646 403.677 170.188 402.594C169.75 401.49 169.146 400.521 168.375 399.688C167.604 398.833 166.698 398.156 165.656 397.656C164.635 397.135 163.542 396.875 162.375 396.875C161.208 396.875 160.104 397.073 159.062 397.469C158.042 397.865 157.146 398.448 156.375 399.219C155.625 399.99 155.031 400.948 154.594 402.094C154.156 403.219 153.938 404.51 153.938 405.969C153.938 407.427 154.156 408.729 154.594 409.875C155.031 411 155.625 411.948 156.375 412.719C157.146 413.49 158.042 414.073 159.062 414.469C160.104 414.865 161.208 415.062 162.375 415.062C163.542 415.062 164.635 414.812 165.656 414.312C166.698 413.792 167.604 413.115 168.375 412.281C169.146 411.427 169.75 410.458 170.188 409.375C170.646 408.271 170.875 407.135 170.875 405.969Z" fill="#973123"/>
<path d="M219.5 405.969C219.5 408.594 219.052 410.99 218.156 413.156C217.26 415.323 216.042 417.188 214.5 418.75C212.958 420.292 211.146 421.49 209.062 422.344C207 423.198 204.781 423.625 202.406 423.625C200.052 423.625 197.833 423.188 195.75 422.312C193.688 421.438 191.875 420.219 190.312 418.656C188.771 417.094 187.552 415.24 186.656 413.094C185.76 410.927 185.312 408.552 185.312 405.969V376.219H193.875V391.844C194.333 391.26 194.885 390.74 195.531 390.281C196.198 389.823 196.906 389.448 197.656 389.156C198.427 388.865 199.219 388.646 200.031 388.5C200.844 388.333 201.635 388.25 202.406 388.25C204.781 388.25 207 388.698 209.062 389.594C211.146 390.469 212.958 391.698 214.5 393.281C216.042 394.865 217.26 396.74 218.156 398.906C219.052 401.052 219.5 403.406 219.5 405.969ZM210.906 405.969C210.906 404.677 210.677 403.479 210.219 402.375C209.781 401.25 209.177 400.281 208.406 399.469C207.635 398.656 206.729 398.021 205.688 397.562C204.667 397.104 203.573 396.875 202.406 396.875C201.24 396.875 200.135 397.135 199.094 397.656C198.073 398.156 197.177 398.833 196.406 399.688C195.635 400.521 195.031 401.49 194.594 402.594C194.156 403.677 193.938 404.802 193.938 405.969C193.938 407.26 194.156 408.458 194.594 409.562C195.031 410.667 195.635 411.625 196.406 412.438C197.177 413.25 198.073 413.896 199.094 414.375C200.135 414.833 201.24 415.062 202.406 415.062C203.573 415.062 204.667 414.833 205.688 414.375C206.729 413.896 207.635 413.25 208.406 412.438C209.177 411.625 209.781 410.667 210.219 409.562C210.677 408.458 210.906 407.26 210.906 405.969Z" fill="#973123"/>
<path d="M256.656 423H254.594L251.281 418.406C250.469 419.135 249.604 419.823 248.688 420.469C247.792 421.094 246.844 421.646 245.844 422.125C244.844 422.583 243.812 422.948 242.75 423.219C241.708 423.49 240.646 423.625 239.562 423.625C237.208 423.625 234.99 423.229 232.906 422.438C230.844 421.646 229.031 420.5 227.469 419C225.927 417.479 224.708 415.625 223.812 413.438C222.917 411.25 222.469 408.76 222.469 405.969C222.469 403.365 222.917 400.979 223.812 398.812C224.708 396.625 225.927 394.75 227.469 393.188C229.031 391.625 230.844 390.417 232.906 389.562C234.99 388.688 237.208 388.25 239.562 388.25C240.646 388.25 241.719 388.385 242.781 388.656C243.844 388.927 244.875 389.302 245.875 389.781C246.875 390.26 247.823 390.823 248.719 391.469C249.635 392.115 250.49 392.812 251.281 393.562L254.594 389.594H256.656V423ZM248.062 405.969C248.062 404.802 247.833 403.677 247.375 402.594C246.938 401.49 246.333 400.521 245.562 399.688C244.792 398.833 243.885 398.156 242.844 397.656C241.823 397.135 240.729 396.875 239.562 396.875C238.396 396.875 237.292 397.073 236.25 397.469C235.229 397.865 234.333 398.448 233.562 399.219C232.812 399.99 232.219 400.948 231.781 402.094C231.344 403.219 231.125 404.51 231.125 405.969C231.125 407.427 231.344 408.729 231.781 409.875C232.219 411 232.812 411.948 233.562 412.719C234.333 413.49 235.229 414.073 236.25 414.469C237.292 414.865 238.396 415.062 239.562 415.062C240.729 415.062 241.823 414.812 242.844 414.312C243.885 413.792 244.792 413.115 245.562 412.281C246.333 411.427 246.938 410.458 247.375 409.375C247.833 408.271 248.062 407.135 248.062 405.969Z" fill="#973123"/>
<path d="M271.719 423H263.188V389.531H265.25L268.062 393.5C269.438 392.25 271 391.292 272.75 390.625C274.5 389.938 276.312 389.594 278.188 389.594H285.719V398.094H278.188C277.292 398.094 276.448 398.26 275.656 398.594C274.865 398.927 274.177 399.385 273.594 399.969C273.01 400.552 272.552 401.24 272.219 402.031C271.885 402.823 271.719 403.667 271.719 404.562V423Z" fill="#973123"/>
<path d="M302.375 414.812C302.708 414.917 303.042 414.99 303.375 415.031C303.708 415.052 304.042 415.062 304.375 415.062C305.208 415.062 306.01 414.948 306.781 414.719C307.552 414.49 308.271 414.167 308.938 413.75C309.625 413.312 310.229 412.792 310.75 412.188C311.292 411.562 311.729 410.875 312.062 410.125L318.312 416.406C317.521 417.531 316.604 418.542 315.562 419.438C314.542 420.333 313.427 421.094 312.219 421.719C311.031 422.344 309.771 422.812 308.438 423.125C307.125 423.458 305.771 423.625 304.375 423.625C302.021 423.625 299.802 423.188 297.719 422.312C295.656 421.438 293.844 420.219 292.281 418.656C290.74 417.094 289.521 415.24 288.625 413.094C287.729 410.927 287.281 408.552 287.281 405.969C287.281 403.323 287.729 400.906 288.625 398.719C289.521 396.531 290.74 394.667 292.281 393.125C293.844 391.583 295.656 390.385 297.719 389.531C299.802 388.677 302.021 388.25 304.375 388.25C305.771 388.25 307.135 388.417 308.469 388.75C309.802 389.083 311.062 389.562 312.25 390.188C313.458 390.812 314.583 391.583 315.625 392.5C316.667 393.396 317.583 394.406 318.375 395.531L302.375 414.812ZM306.75 397.219C306.354 397.073 305.958 396.979 305.562 396.938C305.188 396.896 304.792 396.875 304.375 396.875C303.208 396.875 302.104 397.094 301.062 397.531C300.042 397.948 299.146 398.552 298.375 399.344C297.625 400.135 297.031 401.094 296.594 402.219C296.156 403.323 295.938 404.573 295.938 405.969C295.938 406.281 295.948 406.635 295.969 407.031C296.01 407.427 296.062 407.833 296.125 408.25C296.208 408.646 296.302 409.031 296.406 409.406C296.51 409.781 296.646 410.115 296.812 410.406L306.75 397.219Z" fill="#973123"/>
<path d="M339.469 423C337.406 423 335.469 422.615 333.656 421.844C331.844 421.052 330.25 419.979 328.875 418.625C327.521 417.25 326.448 415.656 325.656 413.844C324.885 412.031 324.5 410.094 324.5 408.031V398.094H320.344V389.594H324.5V376.219H333V389.594H345.938V398.094H333V408.031C333 408.927 333.167 409.771 333.5 410.562C333.833 411.333 334.292 412.01 334.875 412.594C335.458 413.177 336.146 413.646 336.938 414C337.729 414.333 338.573 414.5 339.469 414.5H345.938V423H339.469Z" fill="#973123"/>
<path d="M378.562 423H369.594V378.188H378.562V423Z" fill="#973123"/>
<path d="M394.531 423H386V389.531H388.062L390.875 392.781C392.25 391.531 393.802 390.573 395.531 389.906C397.281 389.219 399.104 388.875 401 388.875C403.042 388.875 404.969 389.271 406.781 390.062C408.594 390.833 410.177 391.906 411.531 393.281C412.885 394.635 413.948 396.229 414.719 398.062C415.51 399.875 415.906 401.812 415.906 403.875V423H407.375V403.875C407.375 403 407.208 402.177 406.875 401.406C406.542 400.615 406.083 399.927 405.5 399.344C404.917 398.76 404.24 398.302 403.469 397.969C402.698 397.635 401.875 397.469 401 397.469C400.104 397.469 399.26 397.635 398.469 397.969C397.677 398.302 396.99 398.76 396.406 399.344C395.823 399.927 395.365 400.615 395.031 401.406C394.698 402.177 394.531 403 394.531 403.875V423Z" fill="#973123"/>
<path d="M432.344 423H423.812V398.031H419.656V389.531H423.812V387.938C423.812 385.875 424.198 383.938 424.969 382.125C425.76 380.312 426.833 378.74 428.188 377.406C429.562 376.052 431.156 374.99 432.969 374.219C434.781 373.427 436.719 373.031 438.781 373.031H445.188V381.531H438.781C437.865 381.531 437.01 381.698 436.219 382.031C435.448 382.344 434.771 382.792 434.188 383.375C433.625 383.938 433.177 384.615 432.844 385.406C432.51 386.177 432.344 387.021 432.344 387.938V389.531H442.812V398.031H432.344V423Z" fill="#973123"/>
<path d="M459.562 414.812C459.896 414.917 460.229 414.99 460.562 415.031C460.896 415.052 461.229 415.062 461.562 415.062C462.396 415.062 463.198 414.948 463.969 414.719C464.74 414.49 465.458 414.167 466.125 413.75C466.812 413.312 467.417 412.792 467.938 412.188C468.479 411.562 468.917 410.875 469.25 410.125L475.5 416.406C474.708 417.531 473.792 418.542 472.75 419.438C471.729 420.333 470.615 421.094 469.406 421.719C468.219 422.344 466.958 422.812 465.625 423.125C464.312 423.458 462.958 423.625 461.562 423.625C459.208 423.625 456.99 423.188 454.906 422.312C452.844 421.438 451.031 420.219 449.469 418.656C447.927 417.094 446.708 415.24 445.812 413.094C444.917 410.927 444.469 408.552 444.469 405.969C444.469 403.323 444.917 400.906 445.812 398.719C446.708 396.531 447.927 394.667 449.469 393.125C451.031 391.583 452.844 390.385 454.906 389.531C456.99 388.677 459.208 388.25 461.562 388.25C462.958 388.25 464.323 388.417 465.656 388.75C466.99 389.083 468.25 389.562 469.438 390.188C470.646 390.812 471.771 391.583 472.812 392.5C473.854 393.396 474.771 394.406 475.562 395.531L459.562 414.812ZM463.938 397.219C463.542 397.073 463.146 396.979 462.75 396.938C462.375 396.896 461.979 396.875 461.562 396.875C460.396 396.875 459.292 397.094 458.25 397.531C457.229 397.948 456.333 398.552 455.562 399.344C454.812 400.135 454.219 401.094 453.781 402.219C453.344 403.323 453.125 404.573 453.125 405.969C453.125 406.281 453.135 406.635 453.156 407.031C453.198 407.427 453.25 407.833 453.312 408.25C453.396 408.646 453.49 409.031 453.594 409.406C453.698 409.781 453.833 410.115 454 410.406L463.938 397.219Z" fill="#973123"/>
<path d="M488.406 423H479.875V389.531H481.938L484.75 393.5C486.125 392.25 487.688 391.292 489.438 390.625C491.188 389.938 493 389.594 494.875 389.594H502.406V398.094H494.875C493.979 398.094 493.135 398.26 492.344 398.594C491.552 398.927 490.865 399.385 490.281 399.969C489.698 400.552 489.24 401.24 488.906 402.031C488.573 402.823 488.406 403.667 488.406 404.562V423Z" fill="#973123"/>
<path d="M514.906 423H506.375V389.531H508.438L511.25 392.781C512.625 391.531 514.177 390.573 515.906 389.906C517.656 389.219 519.479 388.875 521.375 388.875C523.417 388.875 525.344 389.271 527.156 390.062C528.969 390.833 530.552 391.906 531.906 393.281C533.26 394.635 534.323 396.229 535.094 398.062C535.885 399.875 536.281 401.812 536.281 403.875V423H527.75V403.875C527.75 403 527.583 402.177 527.25 401.406C526.917 400.615 526.458 399.927 525.875 399.344C525.292 398.76 524.615 398.302 523.844 397.969C523.073 397.635 522.25 397.469 521.375 397.469C520.479 397.469 519.635 397.635 518.844 397.969C518.052 398.302 517.365 398.76 516.781 399.344C516.198 399.927 515.74 400.615 515.406 401.406C515.073 402.177 514.906 403 514.906 403.875V423Z" fill="#973123"/>
<path d="M574.719 405.969C574.719 408.469 574.271 410.802 573.375 412.969C572.479 415.115 571.26 416.979 569.719 418.562C568.177 420.125 566.365 421.365 564.281 422.281C562.219 423.177 560 423.625 557.625 423.625C555.271 423.625 553.052 423.177 550.969 422.281C548.906 421.365 547.094 420.125 545.531 418.562C543.99 416.979 542.771 415.115 541.875 412.969C540.979 410.802 540.531 408.469 540.531 405.969C540.531 403.427 540.979 401.073 541.875 398.906C542.771 396.74 543.99 394.875 545.531 393.312C547.094 391.729 548.906 390.49 550.969 389.594C553.052 388.698 555.271 388.25 557.625 388.25C560 388.25 562.219 388.677 564.281 389.531C566.365 390.365 568.177 391.562 569.719 393.125C571.26 394.667 572.479 396.531 573.375 398.719C574.271 400.885 574.719 403.302 574.719 405.969ZM566.125 405.969C566.125 404.594 565.896 403.354 565.438 402.25C565 401.125 564.396 400.167 563.625 399.375C562.854 398.562 561.948 397.948 560.906 397.531C559.885 397.094 558.792 396.875 557.625 396.875C556.458 396.875 555.354 397.094 554.312 397.531C553.292 397.948 552.396 398.562 551.625 399.375C550.875 400.167 550.281 401.125 549.844 402.25C549.406 403.354 549.188 404.594 549.188 405.969C549.188 407.26 549.406 408.458 549.844 409.562C550.281 410.667 550.875 411.625 551.625 412.438C552.396 413.25 553.292 413.896 554.312 414.375C555.354 414.833 556.458 415.062 557.625 415.062C558.792 415.062 559.885 414.844 560.906 414.406C561.948 413.969 562.854 413.354 563.625 412.562C564.396 411.771 565 410.812 565.438 409.688C565.896 408.562 566.125 407.323 566.125 405.969Z" fill="#973123"/>
<path d="M985.977 157H979.25V130.117H975.898V123.391H985.977V157Z" fill="#973123"/>
<path d="M1017.1 135.742C1017.1 137.898 1016.88 140.008 1016.45 142.07C1016.02 144.117 1015.41 146.055 1014.59 147.883C1013.78 149.711 1012.79 151.398 1011.62 152.945C1010.45 154.492 1009.12 155.844 1007.63 157H998.562C999.516 156.391 1000.44 155.711 1001.33 154.961C1002.22 154.211 1003.06 153.406 1003.86 152.547C1004.67 151.688 1005.42 150.781 1006.11 149.828C1006.8 148.875 1007.41 147.891 1007.94 146.875C1007.25 147.328 1006.52 147.719 1005.73 148.047C1004.95 148.359 1004.15 148.516 1003.32 148.516C1001.41 148.516 999.703 148.203 998.188 147.578C996.672 146.938 995.375 146.055 994.297 144.93C993.234 143.789 992.414 142.438 991.836 140.875C991.273 139.312 990.992 137.602 990.992 135.742C990.992 133.93 991.312 132.219 991.953 130.609C992.609 128.984 993.508 127.57 994.648 126.367C995.789 125.148 997.141 124.188 998.703 123.484C1000.27 122.781 1001.96 122.43 1003.79 122.43C1005.63 122.43 1007.36 122.781 1008.97 123.484C1010.59 124.188 1012.01 125.148 1013.21 126.367C1014.41 127.57 1015.36 128.984 1016.05 130.609C1016.75 132.219 1017.1 133.93 1017.1 135.742ZM1009.91 135.742C1009.91 134.883 1009.76 134.055 1009.46 133.258C1009.16 132.461 1008.74 131.758 1008.2 131.148C1007.66 130.539 1007.02 130.055 1006.27 129.695C1005.52 129.336 1004.7 129.156 1003.79 129.156C1002.87 129.156 1002.03 129.336 1001.28 129.695C1000.55 130.039 999.914 130.508 999.383 131.102C998.852 131.695 998.445 132.391 998.164 133.188C997.883 133.984 997.742 134.836 997.742 135.742C997.742 136.633 997.883 137.477 998.164 138.273C998.445 139.055 998.852 139.742 999.383 140.336C999.914 140.93 1000.55 141.398 1001.28 141.742C1002.03 142.086 1002.87 142.258 1003.79 142.258C1004.71 142.258 1005.55 142.086 1006.3 141.742C1007.06 141.398 1007.71 140.93 1008.24 140.336C1008.77 139.742 1009.18 139.055 1009.46 138.273C1009.76 137.477 1009.91 136.633 1009.91 135.742Z" fill="#973123"/>
<path d="M1029.59 141.156C1029.59 141.719 1029.48 142.25 1029.27 142.75C1029.06 143.234 1028.78 143.656 1028.42 144.016C1028.06 144.375 1027.64 144.664 1027.16 144.883C1026.67 145.086 1026.16 145.188 1025.61 145.188C1025.05 145.188 1024.52 145.086 1024.04 144.883C1023.55 144.664 1023.12 144.375 1022.75 144.016C1022.39 143.656 1022.1 143.234 1021.88 142.75C1021.68 142.25 1021.58 141.719 1021.58 141.156C1021.58 140.625 1021.68 140.117 1021.88 139.633C1022.1 139.148 1022.39 138.727 1022.75 138.367C1023.12 137.992 1023.55 137.703 1024.04 137.5C1024.52 137.281 1025.05 137.172 1025.61 137.172C1026.16 137.172 1026.67 137.281 1027.16 137.5C1027.64 137.703 1028.06 137.992 1028.42 138.367C1028.78 138.727 1029.06 139.148 1029.27 139.633C1029.48 140.117 1029.59 140.625 1029.59 141.156ZM1029.59 154.609C1029.59 155.172 1029.48 155.703 1029.27 156.203C1029.06 156.688 1028.78 157.109 1028.42 157.469C1028.06 157.828 1027.64 158.109 1027.16 158.312C1026.67 158.531 1026.16 158.641 1025.61 158.641C1025.05 158.641 1024.52 158.531 1024.04 158.312C1023.55 158.109 1023.12 157.828 1022.75 157.469C1022.39 157.109 1022.1 156.688 1021.88 156.203C1021.68 155.703 1021.58 155.172 1021.58 154.609C1021.58 154.062 1021.68 153.547 1021.88 153.062C1022.1 152.578 1022.39 152.156 1022.75 151.797C1023.12 151.438 1023.55 151.156 1024.04 150.953C1024.52 150.734 1025.05 150.625 1025.61 150.625C1026.16 150.625 1026.67 150.734 1027.16 150.953C1027.64 151.156 1028.06 151.438 1028.42 151.797C1028.78 152.156 1029.06 152.578 1029.27 153.062C1029.48 153.547 1029.59 154.062 1029.59 154.609Z" fill="#973123"/>
<path d="M1054.7 140.195C1054.7 136.461 1054.07 133.688 1052.82 131.875C1051.59 130.062 1049.86 129.156 1047.64 129.156C1045.44 129.156 1043.73 130.055 1042.51 131.852C1041.29 133.648 1040.68 136.43 1040.68 140.195C1040.68 143.93 1041.29 146.703 1042.51 148.516C1043.73 150.328 1045.44 151.234 1047.64 151.234C1048.75 151.234 1049.74 151.016 1050.62 150.578C1051.49 150.125 1052.23 149.445 1052.82 148.539C1053.43 147.633 1053.89 146.492 1054.2 145.117C1054.53 143.727 1054.7 142.086 1054.7 140.195ZM1061.09 140.195C1061.09 143.383 1060.74 146.078 1060.04 148.281C1059.34 150.484 1058.38 152.266 1057.16 153.625C1055.94 154.984 1054.51 155.969 1052.87 156.578C1051.24 157.172 1049.5 157.469 1047.64 157.469C1045.78 157.469 1044.03 157.164 1042.39 156.555C1040.77 155.93 1039.34 154.938 1038.12 153.578C1036.92 152.203 1035.97 150.422 1035.27 148.234C1034.56 146.031 1034.21 143.352 1034.21 140.195C1034.21 137.008 1034.56 134.32 1035.27 132.133C1035.97 129.93 1036.92 128.148 1038.12 126.789C1039.34 125.43 1040.77 124.445 1042.39 123.836C1044.03 123.227 1045.78 122.922 1047.64 122.922C1049.5 122.922 1051.24 123.234 1052.87 123.859C1054.51 124.469 1055.94 125.461 1057.16 126.836C1058.38 128.211 1059.34 129.992 1060.04 132.18C1060.74 134.367 1061.09 137.039 1061.09 140.195Z" fill="#973123"/>
<path d="M1085.54 140.195C1085.54 136.461 1084.91 133.688 1083.66 131.875C1082.43 130.062 1080.7 129.156 1078.48 129.156C1076.28 129.156 1074.57 130.055 1073.35 131.852C1072.13 133.648 1071.52 136.43 1071.52 140.195C1071.52 143.93 1072.13 146.703 1073.35 148.516C1074.57 150.328 1076.28 151.234 1078.48 151.234C1079.59 151.234 1080.59 151.016 1081.46 150.578C1082.34 150.125 1083.07 149.445 1083.66 148.539C1084.27 147.633 1084.73 146.492 1085.05 145.117C1085.38 143.727 1085.54 142.086 1085.54 140.195ZM1091.94 140.195C1091.94 143.383 1091.59 146.078 1090.88 148.281C1090.18 150.484 1089.22 152.266 1088 153.625C1086.78 154.984 1085.35 155.969 1083.71 156.578C1082.09 157.172 1080.34 157.469 1078.48 157.469C1076.62 157.469 1074.88 157.164 1073.23 156.555C1071.61 155.93 1070.19 154.938 1068.97 153.578C1067.77 152.203 1066.81 150.422 1066.11 148.234C1065.41 146.031 1065.05 143.352 1065.05 140.195C1065.05 137.008 1065.41 134.32 1066.11 132.133C1066.81 129.93 1067.77 128.148 1068.97 126.789C1070.19 125.43 1071.61 124.445 1073.23 123.836C1074.88 123.227 1076.62 122.922 1078.48 122.922C1080.34 122.922 1082.09 123.234 1083.71 123.859C1085.35 124.469 1086.78 125.461 1088 126.836C1089.22 128.211 1090.18 129.992 1090.88 132.18C1091.59 134.367 1091.94 137.039 1091.94 140.195Z" fill="#973123"/>
<path d="M1282.96 263.469C1282.96 264.859 1282.7 266.172 1282.16 267.406C1281.63 268.625 1280.91 269.695 1279.98 270.617C1279.08 271.523 1278.02 272.242 1276.8 272.773C1275.58 273.305 1274.27 273.57 1272.88 273.57H1269.51C1269.04 273.57 1268.6 273.656 1268.2 273.828C1267.79 274 1267.43 274.242 1267.12 274.555C1266.82 274.852 1266.59 275.203 1266.41 275.609C1266.24 276.016 1266.16 276.453 1266.16 276.922V280.273H1282.05V287H1259.43V276.922C1259.43 275.531 1259.7 274.227 1260.23 273.008C1260.76 271.773 1261.48 270.703 1262.38 269.797C1263.3 268.875 1264.38 268.156 1265.59 267.641C1266.81 267.109 1268.12 266.844 1269.51 266.844H1272.88C1273.35 266.844 1273.79 266.758 1274.2 266.586C1274.6 266.414 1274.95 266.18 1275.25 265.883C1275.56 265.57 1275.8 265.211 1275.98 264.805C1276.15 264.383 1276.23 263.938 1276.23 263.469C1276.23 263 1276.15 262.562 1275.98 262.156C1275.8 261.75 1275.56 261.398 1275.25 261.102C1274.95 260.789 1274.6 260.547 1274.2 260.375C1273.79 260.203 1273.35 260.117 1272.88 260.117H1260.88V253.391H1272.88C1274.27 253.391 1275.58 253.656 1276.8 254.188C1278.02 254.719 1279.08 255.445 1279.98 256.367C1280.91 257.273 1281.63 258.336 1282.16 259.555C1282.7 260.773 1282.96 262.078 1282.96 263.469Z" fill="#973123"/>
<path d="M1307.24 270.195C1307.24 266.461 1306.62 263.688 1305.37 261.875C1304.13 260.062 1302.41 259.156 1300.19 259.156C1297.98 259.156 1296.27 260.055 1295.05 261.852C1293.84 263.648 1293.23 266.43 1293.23 270.195C1293.23 273.93 1293.84 276.703 1295.05 278.516C1296.27 280.328 1297.98 281.234 1300.19 281.234C1301.3 281.234 1302.29 281.016 1303.16 280.578C1304.04 280.125 1304.77 279.445 1305.37 278.539C1305.98 277.633 1306.44 276.492 1306.75 275.117C1307.08 273.727 1307.24 272.086 1307.24 270.195ZM1313.64 270.195C1313.64 273.383 1313.29 276.078 1312.59 278.281C1311.88 280.484 1310.92 282.266 1309.7 283.625C1308.48 284.984 1307.05 285.969 1305.41 286.578C1303.79 287.172 1302.05 287.469 1300.19 287.469C1298.33 287.469 1296.58 287.164 1294.94 286.555C1293.31 285.93 1291.89 284.938 1290.67 283.578C1289.47 282.203 1288.52 280.422 1287.81 278.234C1287.11 276.031 1286.76 273.352 1286.76 270.195C1286.76 267.008 1287.11 264.32 1287.81 262.133C1288.52 259.93 1289.47 258.148 1290.67 256.789C1291.89 255.43 1293.31 254.445 1294.94 253.836C1296.58 253.227 1298.33 252.922 1300.19 252.922C1302.05 252.922 1303.79 253.234 1305.41 253.859C1307.05 254.469 1308.48 255.461 1309.7 256.836C1310.92 258.211 1311.88 259.992 1312.59 262.18C1313.29 264.367 1313.64 267.039 1313.64 270.195Z" fill="#973123"/>
<path d="M1326.3 271.156C1326.3 271.719 1326.19 272.25 1325.97 272.75C1325.77 273.234 1325.48 273.656 1325.12 274.016C1324.77 274.375 1324.34 274.664 1323.86 274.883C1323.38 275.086 1322.86 275.188 1322.31 275.188C1321.75 275.188 1321.23 275.086 1320.74 274.883C1320.26 274.664 1319.83 274.375 1319.45 274.016C1319.09 273.656 1318.8 273.234 1318.59 272.75C1318.38 272.25 1318.28 271.719 1318.28 271.156C1318.28 270.625 1318.38 270.117 1318.59 269.633C1318.8 269.148 1319.09 268.727 1319.45 268.367C1319.83 267.992 1320.26 267.703 1320.74 267.5C1321.23 267.281 1321.75 267.172 1322.31 267.172C1322.86 267.172 1323.38 267.281 1323.86 267.5C1324.34 267.703 1324.77 267.992 1325.12 268.367C1325.48 268.727 1325.77 269.148 1325.97 269.633C1326.19 270.117 1326.3 270.625 1326.3 271.156ZM1326.3 284.609C1326.3 285.172 1326.19 285.703 1325.97 286.203C1325.77 286.688 1325.48 287.109 1325.12 287.469C1324.77 287.828 1324.34 288.109 1323.86 288.312C1323.38 288.531 1322.86 288.641 1322.31 288.641C1321.75 288.641 1321.23 288.531 1320.74 288.312C1320.26 288.109 1319.83 287.828 1319.45 287.469C1319.09 287.109 1318.8 286.688 1318.59 286.203C1318.38 285.703 1318.28 285.172 1318.28 284.609C1318.28 284.062 1318.38 283.547 1318.59 283.062C1318.8 282.578 1319.09 282.156 1319.45 281.797C1319.83 281.438 1320.26 281.156 1320.74 280.953C1321.23 280.734 1321.75 280.625 1322.31 280.625C1322.86 280.625 1323.38 280.734 1323.86 280.953C1324.34 281.156 1324.77 281.438 1325.12 281.797C1325.48 282.156 1325.77 282.578 1325.97 283.062C1326.19 283.547 1326.3 284.062 1326.3 284.609Z" fill="#973123"/>
<path d="M1351.4 270.195C1351.4 266.461 1350.77 263.688 1349.52 261.875C1348.29 260.062 1346.56 259.156 1344.34 259.156C1342.14 259.156 1340.43 260.055 1339.21 261.852C1337.99 263.648 1337.38 266.43 1337.38 270.195C1337.38 273.93 1337.99 276.703 1339.21 278.516C1340.43 280.328 1342.14 281.234 1344.34 281.234C1345.45 281.234 1346.45 281.016 1347.32 280.578C1348.2 280.125 1348.93 279.445 1349.52 278.539C1350.13 277.633 1350.59 276.492 1350.91 275.117C1351.23 273.727 1351.4 272.086 1351.4 270.195ZM1357.8 270.195C1357.8 273.383 1357.45 276.078 1356.74 278.281C1356.04 280.484 1355.08 282.266 1353.86 283.625C1352.64 284.984 1351.21 285.969 1349.57 286.578C1347.95 287.172 1346.2 287.469 1344.34 287.469C1342.48 287.469 1340.73 287.164 1339.09 286.555C1337.47 285.93 1336.05 284.938 1334.83 283.578C1333.62 282.203 1332.67 280.422 1331.97 278.234C1331.27 276.031 1330.91 273.352 1330.91 270.195C1330.91 267.008 1331.27 264.32 1331.97 262.133C1332.67 259.93 1333.62 258.148 1334.83 256.789C1336.05 255.43 1337.47 254.445 1339.09 253.836C1340.73 253.227 1342.48 252.922 1344.34 252.922C1346.2 252.922 1347.95 253.234 1349.57 253.859C1351.21 254.469 1352.64 255.461 1353.86 256.836C1355.08 258.211 1356.04 259.992 1356.74 262.18C1357.45 264.367 1357.8 267.039 1357.8 270.195Z" fill="#973123"/>
<path d="M1382.24 270.195C1382.24 266.461 1381.62 263.688 1380.37 261.875C1379.13 260.062 1377.41 259.156 1375.19 259.156C1372.98 259.156 1371.27 260.055 1370.05 261.852C1368.84 263.648 1368.23 266.43 1368.23 270.195C1368.23 273.93 1368.84 276.703 1370.05 278.516C1371.27 280.328 1372.98 281.234 1375.19 281.234C1376.3 281.234 1377.29 281.016 1378.16 280.578C1379.04 280.125 1379.77 279.445 1380.37 278.539C1380.98 277.633 1381.44 276.492 1381.75 275.117C1382.08 273.727 1382.24 272.086 1382.24 270.195ZM1388.64 270.195C1388.64 273.383 1388.29 276.078 1387.59 278.281C1386.88 280.484 1385.92 282.266 1384.7 283.625C1383.48 284.984 1382.05 285.969 1380.41 286.578C1378.79 287.172 1377.05 287.469 1375.19 287.469C1373.33 287.469 1371.58 287.164 1369.94 286.555C1368.31 285.93 1366.89 284.938 1365.67 283.578C1364.47 282.203 1363.52 280.422 1362.81 278.234C1362.11 276.031 1361.76 273.352 1361.76 270.195C1361.76 267.008 1362.11 264.32 1362.81 262.133C1363.52 259.93 1364.47 258.148 1365.67 256.789C1366.89 255.43 1368.31 254.445 1369.94 253.836C1371.58 253.227 1373.33 252.922 1375.19 252.922C1377.05 252.922 1378.79 253.234 1380.41 253.859C1382.05 254.469 1383.48 255.461 1384.7 256.836C1385.92 258.211 1386.88 259.992 1387.59 262.18C1388.29 264.367 1388.64 267.039 1388.64 270.195Z" fill="#973123"/>
<path d="M1625.24 393.469C1625.24 394.859 1624.98 396.172 1624.45 397.406C1623.91 398.625 1623.19 399.695 1622.27 400.617C1621.36 401.523 1620.3 402.242 1619.08 402.773C1617.86 403.305 1616.55 403.57 1615.16 403.57H1611.79C1611.32 403.57 1610.88 403.656 1610.48 403.828C1610.07 404 1609.71 404.242 1609.4 404.555C1609.1 404.852 1608.87 405.203 1608.7 405.609C1608.52 406.016 1608.44 406.453 1608.44 406.922V410.273H1624.33V417H1601.71V406.922C1601.71 405.531 1601.98 404.227 1602.51 403.008C1603.04 401.773 1603.76 400.703 1604.66 399.797C1605.59 398.875 1606.66 398.156 1607.88 397.641C1609.09 397.109 1610.4 396.844 1611.79 396.844H1615.16C1615.63 396.844 1616.07 396.758 1616.48 396.586C1616.88 396.414 1617.23 396.18 1617.53 395.883C1617.84 395.57 1618.09 395.211 1618.26 394.805C1618.43 394.383 1618.52 393.938 1618.52 393.469C1618.52 393 1618.43 392.562 1618.26 392.156C1618.09 391.75 1617.84 391.398 1617.53 391.102C1617.23 390.789 1616.88 390.547 1616.48 390.375C1616.07 390.203 1615.63 390.117 1615.16 390.117H1603.16V383.391H1615.16C1616.55 383.391 1617.86 383.656 1619.08 384.188C1620.3 384.719 1621.36 385.445 1622.27 386.367C1623.19 387.273 1623.91 388.336 1624.45 389.555C1624.98 390.773 1625.24 392.078 1625.24 393.469Z" fill="#973123"/>
<path d="M1638.98 417H1632.25V390.117H1628.9V383.391H1638.98V417Z" fill="#973123"/>
<path d="M1653.02 401.156C1653.02 401.719 1652.91 402.25 1652.69 402.75C1652.48 403.234 1652.2 403.656 1651.84 404.016C1651.48 404.375 1651.06 404.664 1650.58 404.883C1650.09 405.086 1649.58 405.188 1649.03 405.188C1648.47 405.188 1647.95 405.086 1647.46 404.883C1646.98 404.664 1646.55 404.375 1646.17 404.016C1645.81 403.656 1645.52 403.234 1645.3 402.75C1645.1 402.25 1645 401.719 1645 401.156C1645 400.625 1645.1 400.117 1645.3 399.633C1645.52 399.148 1645.81 398.727 1646.17 398.367C1646.55 397.992 1646.98 397.703 1647.46 397.5C1647.95 397.281 1648.47 397.172 1649.03 397.172C1649.58 397.172 1650.09 397.281 1650.58 397.5C1651.06 397.703 1651.48 397.992 1651.84 398.367C1652.2 398.727 1652.48 399.148 1652.69 399.633C1652.91 400.117 1653.02 400.625 1653.02 401.156ZM1653.02 414.609C1653.02 415.172 1652.91 415.703 1652.69 416.203C1652.48 416.688 1652.2 417.109 1651.84 417.469C1651.48 417.828 1651.06 418.109 1650.58 418.312C1650.09 418.531 1649.58 418.641 1649.03 418.641C1648.47 418.641 1647.95 418.531 1647.46 418.312C1646.98 418.109 1646.55 417.828 1646.17 417.469C1645.81 417.109 1645.52 416.688 1645.3 416.203C1645.1 415.703 1645 415.172 1645 414.609C1645 414.062 1645.1 413.547 1645.3 413.062C1645.52 412.578 1645.81 412.156 1646.17 411.797C1646.55 411.438 1646.98 411.156 1647.46 410.953C1647.95 410.734 1648.47 410.625 1649.03 410.625C1649.58 410.625 1650.09 410.734 1650.58 410.953C1651.06 411.156 1651.48 411.438 1651.84 411.797C1652.2 412.156 1652.48 412.578 1652.69 413.062C1652.91 413.547 1653.02 414.062 1653.02 414.609Z" fill="#973123"/>
<path d="M1678.12 400.195C1678.12 396.461 1677.49 393.688 1676.24 391.875C1675.01 390.062 1673.28 389.156 1671.06 389.156C1668.86 389.156 1667.15 390.055 1665.93 391.852C1664.71 393.648 1664.1 396.43 1664.1 400.195C1664.1 403.93 1664.71 406.703 1665.93 408.516C1667.15 410.328 1668.86 411.234 1671.06 411.234C1672.17 411.234 1673.16 411.016 1674.04 410.578C1674.91 410.125 1675.65 409.445 1676.24 408.539C1676.85 407.633 1677.31 406.492 1677.62 405.117C1677.95 403.727 1678.12 402.086 1678.12 400.195ZM1684.52 400.195C1684.52 403.383 1684.16 406.078 1683.46 408.281C1682.76 410.484 1681.8 412.266 1680.58 413.625C1679.36 414.984 1677.93 415.969 1676.29 416.578C1674.66 417.172 1672.92 417.469 1671.06 417.469C1669.2 417.469 1667.45 417.164 1665.81 416.555C1664.19 415.93 1662.77 414.938 1661.55 413.578C1660.34 412.203 1659.39 410.422 1658.69 408.234C1657.98 406.031 1657.63 403.352 1657.63 400.195C1657.63 397.008 1657.98 394.32 1658.69 392.133C1659.39 389.93 1660.34 388.148 1661.55 386.789C1662.77 385.43 1664.19 384.445 1665.81 383.836C1667.45 383.227 1669.2 382.922 1671.06 382.922C1672.92 382.922 1674.66 383.234 1676.29 383.859C1677.93 384.469 1679.36 385.461 1680.58 386.836C1681.8 388.211 1682.76 389.992 1683.46 392.18C1684.16 394.367 1684.52 397.039 1684.52 400.195Z" fill="#973123"/>
<path d="M1708.96 400.195C1708.96 396.461 1708.34 393.688 1707.09 391.875C1705.85 390.062 1704.12 389.156 1701.91 389.156C1699.7 389.156 1697.99 390.055 1696.77 391.852C1695.55 393.648 1694.95 396.43 1694.95 400.195C1694.95 403.93 1695.55 406.703 1696.77 408.516C1697.99 410.328 1699.7 411.234 1701.91 411.234C1703.02 411.234 1704.01 411.016 1704.88 410.578C1705.76 410.125 1706.49 409.445 1707.09 408.539C1707.7 407.633 1708.16 406.492 1708.47 405.117C1708.8 403.727 1708.96 402.086 1708.96 400.195ZM1715.36 400.195C1715.36 403.383 1715.01 406.078 1714.3 408.281C1713.6 410.484 1712.64 412.266 1711.42 413.625C1710.2 414.984 1708.77 415.969 1707.13 416.578C1705.51 417.172 1703.77 417.469 1701.91 417.469C1700.05 417.469 1698.3 417.164 1696.66 416.555C1695.03 415.93 1693.61 414.938 1692.39 413.578C1691.19 412.203 1690.23 410.422 1689.53 408.234C1688.83 406.031 1688.48 403.352 1688.48 400.195C1688.48 397.008 1688.83 394.32 1689.53 392.133C1690.23 389.93 1691.19 388.148 1692.39 386.789C1693.61 385.43 1695.03 384.445 1696.66 383.836C1698.3 383.227 1700.05 382.922 1701.91 382.922C1703.77 382.922 1705.51 383.234 1707.13 383.859C1708.77 384.469 1710.2 385.461 1711.42 386.836C1712.64 388.211 1713.6 389.992 1714.3 392.18C1715.01 394.367 1715.36 397.039 1715.36 400.195Z" fill="#973123"/>
</svg>
