<svg width="1786" height="440" viewBox="0 0 1786 440" fill="none" xmlns="http://www.w3.org/2000/svg">
<path d="M1786 100H669C669 144.183 700.448 180 739.241 180H1786V100Z" fill="#973123"/>
<path d="M1786 360H269.072V100H0V360C0 404.183 33.5798 440 75.0026 440H1786V360Z" fill="#973123"/>
<path d="M1786 230H599.61V100H338V230C338 274.183 370.763 310 411.177 310H1786V230Z" fill="#973123"/>
<path d="M849 0H0V100H849V0Z" fill="#E3DEDB"/>
<path d="M1317.41 163H1286.03V118.188H1295V154.031H1317.41V163Z" fill="#E3DEDB"/>
<path d="M1333.62 154.812C1333.96 154.917 1334.29 154.99 1334.62 155.031C1334.96 155.052 1335.29 155.062 1335.62 155.062C1336.46 155.062 1337.26 154.948 1338.03 154.719C1338.8 154.49 1339.52 154.167 1340.19 153.75C1340.88 153.312 1341.48 152.792 1342 152.188C1342.54 151.562 1342.98 150.875 1343.31 150.125L1349.56 156.406C1348.77 157.531 1347.85 158.542 1346.81 159.438C1345.79 160.333 1344.68 161.094 1343.47 161.719C1342.28 162.344 1341.02 162.812 1339.69 163.125C1338.38 163.458 1337.02 163.625 1335.62 163.625C1333.27 163.625 1331.05 163.188 1328.97 162.312C1326.91 161.438 1325.09 160.219 1323.53 158.656C1321.99 157.094 1320.77 155.24 1319.88 153.094C1318.98 150.927 1318.53 148.552 1318.53 145.969C1318.53 143.323 1318.98 140.906 1319.88 138.719C1320.77 136.531 1321.99 134.667 1323.53 133.125C1325.09 131.583 1326.91 130.385 1328.97 129.531C1331.05 128.677 1333.27 128.25 1335.62 128.25C1337.02 128.25 1338.39 128.417 1339.72 128.75C1341.05 129.083 1342.31 129.562 1343.5 130.188C1344.71 130.812 1345.83 131.583 1346.88 132.5C1347.92 133.396 1348.83 134.406 1349.62 135.531L1333.62 154.812ZM1338 137.219C1337.6 137.073 1337.21 136.979 1336.81 136.938C1336.44 136.896 1336.04 136.875 1335.62 136.875C1334.46 136.875 1333.35 137.094 1332.31 137.531C1331.29 137.948 1330.4 138.552 1329.62 139.344C1328.88 140.135 1328.28 141.094 1327.84 142.219C1327.41 143.323 1327.19 144.573 1327.19 145.969C1327.19 146.281 1327.2 146.635 1327.22 147.031C1327.26 147.427 1327.31 147.833 1327.38 148.25C1327.46 148.646 1327.55 149.031 1327.66 149.406C1327.76 149.781 1327.9 150.115 1328.06 150.406L1338 137.219Z" fill="#E3DEDB"/>
<path d="M1408.56 158.406C1406.48 160.198 1404.15 161.573 1401.56 162.531C1398.98 163.49 1396.3 163.969 1393.53 163.969C1391.41 163.969 1389.35 163.688 1387.38 163.125C1385.42 162.583 1383.57 161.812 1381.84 160.812C1380.14 159.792 1378.57 158.573 1377.16 157.156C1375.74 155.74 1374.52 154.177 1373.5 152.469C1372.5 150.74 1371.72 148.896 1371.16 146.938C1370.61 144.958 1370.34 142.906 1370.34 140.781C1370.34 138.656 1370.61 136.604 1371.16 134.625C1371.72 132.646 1372.5 130.802 1373.5 129.094C1374.52 127.365 1375.74 125.792 1377.16 124.375C1378.57 122.958 1380.14 121.75 1381.84 120.75C1383.57 119.729 1385.42 118.948 1387.38 118.406C1389.35 117.844 1391.41 117.562 1393.53 117.562C1396.3 117.562 1398.98 118.042 1401.56 119C1404.15 119.938 1406.48 121.312 1408.56 123.125L1403.81 130.938C1402.5 129.521 1400.95 128.438 1399.16 127.688C1397.36 126.917 1395.49 126.531 1393.53 126.531C1391.55 126.531 1389.7 126.906 1387.97 127.656C1386.24 128.406 1384.73 129.427 1383.44 130.719C1382.15 131.99 1381.12 133.5 1380.38 135.25C1379.62 136.979 1379.25 138.823 1379.25 140.781C1379.25 142.74 1379.62 144.583 1380.38 146.312C1381.12 148.021 1382.15 149.521 1383.44 150.812C1384.73 152.104 1386.24 153.125 1387.97 153.875C1389.7 154.625 1391.55 155 1393.53 155C1395.49 155 1397.36 154.625 1399.16 153.875C1400.95 153.104 1402.5 152.01 1403.81 150.594L1408.56 158.406Z" fill="#E3DEDB"/>
<path d="M1421.41 163H1412.88V116.219H1421.41V131C1422.43 130.229 1423.48 129.688 1424.56 129.375C1425.65 129.042 1426.75 128.875 1427.88 128.875C1429.94 128.875 1431.88 129.271 1433.69 130.062C1435.5 130.833 1437.07 131.906 1438.41 133.281C1439.76 134.635 1440.82 136.229 1441.59 138.062C1442.39 139.875 1442.78 141.812 1442.78 143.875V163H1434.19V143.875H1434.25C1434.25 143 1434.08 142.177 1433.75 141.406C1433.42 140.615 1432.96 139.927 1432.38 139.344C1431.79 138.76 1431.11 138.302 1430.34 137.969C1429.57 137.635 1428.75 137.469 1427.88 137.469C1426.98 137.469 1426.14 137.635 1425.34 137.969C1424.55 138.302 1423.86 138.76 1423.28 139.344C1422.7 139.927 1422.24 140.615 1421.91 141.406C1421.57 142.177 1421.41 143 1421.41 143.875V163Z" fill="#E3DEDB"/>
<path d="M1462.19 154.812C1462.52 154.917 1462.85 154.99 1463.19 155.031C1463.52 155.052 1463.85 155.062 1464.19 155.062C1465.02 155.062 1465.82 154.948 1466.59 154.719C1467.36 154.49 1468.08 154.167 1468.75 153.75C1469.44 153.312 1470.04 152.792 1470.56 152.188C1471.1 151.562 1471.54 150.875 1471.88 150.125L1478.12 156.406C1477.33 157.531 1476.42 158.542 1475.38 159.438C1474.35 160.333 1473.24 161.094 1472.03 161.719C1470.84 162.344 1469.58 162.812 1468.25 163.125C1466.94 163.458 1465.58 163.625 1464.19 163.625C1461.83 163.625 1459.61 163.188 1457.53 162.312C1455.47 161.438 1453.66 160.219 1452.09 158.656C1450.55 157.094 1449.33 155.24 1448.44 153.094C1447.54 150.927 1447.09 148.552 1447.09 145.969C1447.09 143.323 1447.54 140.906 1448.44 138.719C1449.33 136.531 1450.55 134.667 1452.09 133.125C1453.66 131.583 1455.47 130.385 1457.53 129.531C1459.61 128.677 1461.83 128.25 1464.19 128.25C1465.58 128.25 1466.95 128.417 1468.28 128.75C1469.61 129.083 1470.88 129.562 1472.06 130.188C1473.27 130.812 1474.4 131.583 1475.44 132.5C1476.48 133.396 1477.4 134.406 1478.19 135.531L1462.19 154.812ZM1466.56 137.219C1466.17 137.073 1465.77 136.979 1465.38 136.938C1465 136.896 1464.6 136.875 1464.19 136.875C1463.02 136.875 1461.92 137.094 1460.88 137.531C1459.85 137.948 1458.96 138.552 1458.19 139.344C1457.44 140.135 1456.84 141.094 1456.41 142.219C1455.97 143.323 1455.75 144.573 1455.75 145.969C1455.75 146.281 1455.76 146.635 1455.78 147.031C1455.82 147.427 1455.88 147.833 1455.94 148.25C1456.02 148.646 1456.11 149.031 1456.22 149.406C1456.32 149.781 1456.46 150.115 1456.62 150.406L1466.56 137.219Z" fill="#E3DEDB"/>
<path d="M1491.56 163L1478.81 129.531H1488.53L1495.84 150.406L1503.12 129.531H1512.88L1500.12 163H1491.56Z" fill="#E3DEDB"/>
<path d="M1547.53 163H1545.47L1542.16 158.406C1541.34 159.135 1540.48 159.823 1539.56 160.469C1538.67 161.094 1537.72 161.646 1536.72 162.125C1535.72 162.583 1534.69 162.948 1533.62 163.219C1532.58 163.49 1531.52 163.625 1530.44 163.625C1528.08 163.625 1525.86 163.229 1523.78 162.438C1521.72 161.646 1519.91 160.5 1518.34 159C1516.8 157.479 1515.58 155.625 1514.69 153.438C1513.79 151.25 1513.34 148.76 1513.34 145.969C1513.34 143.365 1513.79 140.979 1514.69 138.812C1515.58 136.625 1516.8 134.75 1518.34 133.188C1519.91 131.625 1521.72 130.417 1523.78 129.562C1525.86 128.688 1528.08 128.25 1530.44 128.25C1531.52 128.25 1532.59 128.385 1533.66 128.656C1534.72 128.927 1535.75 129.302 1536.75 129.781C1537.75 130.26 1538.7 130.823 1539.59 131.469C1540.51 132.115 1541.36 132.812 1542.16 133.562L1545.47 129.594H1547.53V163ZM1538.94 145.969C1538.94 144.802 1538.71 143.677 1538.25 142.594C1537.81 141.49 1537.21 140.521 1536.44 139.688C1535.67 138.833 1534.76 138.156 1533.72 137.656C1532.7 137.135 1531.6 136.875 1530.44 136.875C1529.27 136.875 1528.17 137.073 1527.12 137.469C1526.1 137.865 1525.21 138.448 1524.44 139.219C1523.69 139.99 1523.09 140.948 1522.66 142.094C1522.22 143.219 1522 144.51 1522 145.969C1522 147.427 1522.22 148.729 1522.66 149.875C1523.09 151 1523.69 151.948 1524.44 152.719C1525.21 153.49 1526.1 154.073 1527.12 154.469C1528.17 154.865 1529.27 155.062 1530.44 155.062C1531.6 155.062 1532.7 154.812 1533.72 154.312C1534.76 153.792 1535.67 153.115 1536.44 152.281C1537.21 151.427 1537.81 150.458 1538.25 149.375C1538.71 148.271 1538.94 147.135 1538.94 145.969Z" fill="#E3DEDB"/>
<path d="M1562.66 163H1554.06V116.219H1562.66V163Z" fill="#E3DEDB"/>
<path d="M1597 163H1588.03V118.188H1619.41V127.156H1597V136.125H1610.44V145.094H1597V163Z" fill="#E3DEDB"/>
<path d="M1651.53 145.969C1651.53 148.469 1651.08 150.802 1650.19 152.969C1649.29 155.115 1648.07 156.979 1646.53 158.562C1644.99 160.125 1643.18 161.365 1641.09 162.281C1639.03 163.177 1636.81 163.625 1634.44 163.625C1632.08 163.625 1629.86 163.177 1627.78 162.281C1625.72 161.365 1623.91 160.125 1622.34 158.562C1620.8 156.979 1619.58 155.115 1618.69 152.969C1617.79 150.802 1617.34 148.469 1617.34 145.969C1617.34 143.427 1617.79 141.073 1618.69 138.906C1619.58 136.74 1620.8 134.875 1622.34 133.312C1623.91 131.729 1625.72 130.49 1627.78 129.594C1629.86 128.698 1632.08 128.25 1634.44 128.25C1636.81 128.25 1639.03 128.677 1641.09 129.531C1643.18 130.365 1644.99 131.562 1646.53 133.125C1648.07 134.667 1649.29 136.531 1650.19 138.719C1651.08 140.885 1651.53 143.302 1651.53 145.969ZM1642.94 145.969C1642.94 144.594 1642.71 143.354 1642.25 142.25C1641.81 141.125 1641.21 140.167 1640.44 139.375C1639.67 138.562 1638.76 137.948 1637.72 137.531C1636.7 137.094 1635.6 136.875 1634.44 136.875C1633.27 136.875 1632.17 137.094 1631.12 137.531C1630.1 137.948 1629.21 138.562 1628.44 139.375C1627.69 140.167 1627.09 141.125 1626.66 142.25C1626.22 143.354 1626 144.594 1626 145.969C1626 147.26 1626.22 148.458 1626.66 149.562C1627.09 150.667 1627.69 151.625 1628.44 152.438C1629.21 153.25 1630.1 153.896 1631.12 154.375C1632.17 154.833 1633.27 155.062 1634.44 155.062C1635.6 155.062 1636.7 154.844 1637.72 154.406C1638.76 153.969 1639.67 153.354 1640.44 152.562C1641.21 151.771 1641.81 150.812 1642.25 149.688C1642.71 148.562 1642.94 147.323 1642.94 145.969Z" fill="#E3DEDB"/>
<path d="M1680.84 159.094C1680.16 159.719 1679.42 160.312 1678.62 160.875C1677.85 161.417 1677.04 161.896 1676.19 162.312C1675.33 162.708 1674.45 163.021 1673.53 163.25C1672.64 163.5 1671.72 163.625 1670.78 163.625C1668.72 163.625 1666.78 163.26 1664.97 162.531C1663.16 161.802 1661.56 160.771 1660.19 159.438C1658.83 158.083 1657.76 156.448 1656.97 154.531C1656.2 152.594 1655.81 150.427 1655.81 148.031V129.531H1664.31V148.031C1664.31 149.156 1664.48 150.167 1664.81 151.062C1665.17 151.938 1665.64 152.677 1666.22 153.281C1666.8 153.885 1667.48 154.344 1668.25 154.656C1669.04 154.969 1669.89 155.125 1670.78 155.125C1671.66 155.125 1672.48 154.927 1673.25 154.531C1674.04 154.115 1674.73 153.573 1675.31 152.906C1675.9 152.24 1676.35 151.49 1676.69 150.656C1677.02 149.802 1677.19 148.927 1677.19 148.031V129.531H1685.72V163H1683.66L1680.84 159.094Z" fill="#E3DEDB"/>
<path d="M710.977 157H704.25V130.117H700.898V123.391H710.977V157Z" fill="#E3DEDB"/>
<path d="M742.102 135.742C742.102 137.898 741.883 140.008 741.445 142.07C741.023 144.117 740.406 146.055 739.594 147.883C738.781 149.711 737.789 151.398 736.617 152.945C735.445 154.492 734.117 155.844 732.633 157H723.562C724.516 156.391 725.438 155.711 726.328 154.961C727.219 154.211 728.062 153.406 728.859 152.547C729.672 151.688 730.422 150.781 731.109 149.828C731.797 148.875 732.406 147.891 732.938 146.875C732.25 147.328 731.516 147.719 730.734 148.047C729.953 148.359 729.148 148.516 728.32 148.516C726.414 148.516 724.703 148.203 723.188 147.578C721.672 146.938 720.375 146.055 719.297 144.93C718.234 143.789 717.414 142.438 716.836 140.875C716.273 139.312 715.992 137.602 715.992 135.742C715.992 133.93 716.312 132.219 716.953 130.609C717.609 128.984 718.508 127.57 719.648 126.367C720.789 125.148 722.141 124.188 723.703 123.484C725.266 122.781 726.961 122.43 728.789 122.43C730.633 122.43 732.359 122.781 733.969 123.484C735.594 124.188 737.008 125.148 738.211 126.367C739.414 127.57 740.359 128.984 741.047 130.609C741.75 132.219 742.102 133.93 742.102 135.742ZM734.906 135.742C734.906 134.883 734.758 134.055 734.461 133.258C734.164 132.461 733.742 131.758 733.195 131.148C732.664 130.539 732.023 130.055 731.273 129.695C730.523 129.336 729.695 129.156 728.789 129.156C727.867 129.156 727.031 129.336 726.281 129.695C725.547 130.039 724.914 130.508 724.383 131.102C723.852 131.695 723.445 132.391 723.164 133.188C722.883 133.984 722.742 134.836 722.742 135.742C722.742 136.633 722.883 137.477 723.164 138.273C723.445 139.055 723.852 139.742 724.383 140.336C724.914 140.93 725.547 141.398 726.281 141.742C727.031 142.086 727.867 142.258 728.789 142.258C729.711 142.258 730.547 142.086 731.297 141.742C732.062 141.398 732.711 140.93 733.242 140.336C733.773 139.742 734.18 139.055 734.461 138.273C734.758 137.477 734.906 136.633 734.906 135.742Z" fill="#E3DEDB"/>
<path d="M754.594 141.156C754.594 141.719 754.484 142.25 754.266 142.75C754.062 143.234 753.781 143.656 753.422 144.016C753.062 144.375 752.641 144.664 752.156 144.883C751.672 145.086 751.156 145.188 750.609 145.188C750.047 145.188 749.523 145.086 749.039 144.883C748.555 144.664 748.125 144.375 747.75 144.016C747.391 143.656 747.102 143.234 746.883 142.75C746.68 142.25 746.578 141.719 746.578 141.156C746.578 140.625 746.68 140.117 746.883 139.633C747.102 139.148 747.391 138.727 747.75 138.367C748.125 137.992 748.555 137.703 749.039 137.5C749.523 137.281 750.047 137.172 750.609 137.172C751.156 137.172 751.672 137.281 752.156 137.5C752.641 137.703 753.062 137.992 753.422 138.367C753.781 138.727 754.062 139.148 754.266 139.633C754.484 140.117 754.594 140.625 754.594 141.156ZM754.594 154.609C754.594 155.172 754.484 155.703 754.266 156.203C754.062 156.688 753.781 157.109 753.422 157.469C753.062 157.828 752.641 158.109 752.156 158.312C751.672 158.531 751.156 158.641 750.609 158.641C750.047 158.641 749.523 158.531 749.039 158.312C748.555 158.109 748.125 157.828 747.75 157.469C747.391 157.109 747.102 156.688 746.883 156.203C746.68 155.703 746.578 155.172 746.578 154.609C746.578 154.062 746.68 153.547 746.883 153.062C747.102 152.578 747.391 152.156 747.75 151.797C748.125 151.438 748.555 151.156 749.039 150.953C749.523 150.734 750.047 150.625 750.609 150.625C751.156 150.625 751.672 150.734 752.156 150.953C752.641 151.156 753.062 151.438 753.422 151.797C753.781 152.156 754.062 152.578 754.266 153.062C754.484 153.547 754.594 154.062 754.594 154.609Z" fill="#E3DEDB"/>
<path d="M779.695 140.195C779.695 136.461 779.07 133.688 777.82 131.875C776.586 130.062 774.859 129.156 772.641 129.156C770.438 129.156 768.727 130.055 767.508 131.852C766.289 133.648 765.68 136.43 765.68 140.195C765.68 143.93 766.289 146.703 767.508 148.516C768.727 150.328 770.438 151.234 772.641 151.234C773.75 151.234 774.742 151.016 775.617 150.578C776.492 150.125 777.227 149.445 777.82 148.539C778.43 147.633 778.891 146.492 779.203 145.117C779.531 143.727 779.695 142.086 779.695 140.195ZM786.094 140.195C786.094 143.383 785.742 146.078 785.039 148.281C784.336 150.484 783.375 152.266 782.156 153.625C780.938 154.984 779.508 155.969 777.867 156.578C776.242 157.172 774.5 157.469 772.641 157.469C770.781 157.469 769.031 157.164 767.391 156.555C765.766 155.93 764.344 154.938 763.125 153.578C761.922 152.203 760.969 150.422 760.266 148.234C759.562 146.031 759.211 143.352 759.211 140.195C759.211 137.008 759.562 134.32 760.266 132.133C760.969 129.93 761.922 128.148 763.125 126.789C764.344 125.43 765.766 124.445 767.391 123.836C769.031 123.227 770.781 122.922 772.641 122.922C774.5 122.922 776.242 123.234 777.867 123.859C779.508 124.469 780.938 125.461 782.156 126.836C783.375 128.211 784.336 129.992 785.039 132.18C785.742 134.367 786.094 137.039 786.094 140.195Z" fill="#E3DEDB"/>
<path d="M810.539 140.195C810.539 136.461 809.914 133.688 808.664 131.875C807.43 130.062 805.703 129.156 803.484 129.156C801.281 129.156 799.57 130.055 798.352 131.852C797.133 133.648 796.523 136.43 796.523 140.195C796.523 143.93 797.133 146.703 798.352 148.516C799.57 150.328 801.281 151.234 803.484 151.234C804.594 151.234 805.586 151.016 806.461 150.578C807.336 150.125 808.07 149.445 808.664 148.539C809.273 147.633 809.734 146.492 810.047 145.117C810.375 143.727 810.539 142.086 810.539 140.195ZM816.938 140.195C816.938 143.383 816.586 146.078 815.883 148.281C815.18 150.484 814.219 152.266 813 153.625C811.781 154.984 810.352 155.969 808.711 156.578C807.086 157.172 805.344 157.469 803.484 157.469C801.625 157.469 799.875 157.164 798.234 156.555C796.609 155.93 795.188 154.938 793.969 153.578C792.766 152.203 791.812 150.422 791.109 148.234C790.406 146.031 790.055 143.352 790.055 140.195C790.055 137.008 790.406 134.32 791.109 132.133C791.812 129.93 792.766 128.148 793.969 126.789C795.188 125.43 796.609 124.445 798.234 123.836C799.875 123.227 801.625 122.922 803.484 122.922C805.344 122.922 807.086 123.234 808.711 123.859C810.352 124.469 811.781 125.461 813 126.836C814.219 128.211 815.18 129.992 815.883 132.18C816.586 134.367 816.938 137.039 816.938 140.195Z" fill="#E3DEDB"/>
<path d="M1417.88 257.156V275.094H1426.84C1428.07 275.094 1429.23 274.865 1430.31 274.406C1431.4 273.927 1432.34 273.281 1433.16 272.469C1433.97 271.656 1434.6 270.708 1435.06 269.625C1435.54 268.521 1435.78 267.354 1435.78 266.125C1435.78 264.896 1435.54 263.74 1435.06 262.656C1434.6 261.552 1433.97 260.594 1433.16 259.781C1432.34 258.969 1431.4 258.333 1430.31 257.875C1429.23 257.396 1428.07 257.156 1426.84 257.156H1417.88ZM1417.88 293H1408.91V248.188H1426.84C1428.49 248.188 1430.07 248.406 1431.59 248.844C1433.11 249.26 1434.53 249.865 1435.84 250.656C1437.18 251.427 1438.39 252.365 1439.47 253.469C1440.57 254.552 1441.51 255.76 1442.28 257.094C1443.07 258.427 1443.68 259.854 1444.09 261.375C1444.53 262.896 1444.75 264.479 1444.75 266.125C1444.75 268.583 1444.28 270.906 1443.34 273.094C1442.41 275.26 1441.12 277.156 1439.5 278.781C1437.88 280.406 1435.97 281.688 1433.78 282.625C1431.61 283.562 1429.3 284.031 1426.84 284.031H1417.88V293Z" fill="#E3DEDB"/>
<path d="M1481.53 293H1479.47L1476.16 288.406C1475.34 289.135 1474.48 289.823 1473.56 290.469C1472.67 291.094 1471.72 291.646 1470.72 292.125C1469.72 292.583 1468.69 292.948 1467.62 293.219C1466.58 293.49 1465.52 293.625 1464.44 293.625C1462.08 293.625 1459.86 293.229 1457.78 292.438C1455.72 291.646 1453.91 290.5 1452.34 289C1450.8 287.479 1449.58 285.625 1448.69 283.438C1447.79 281.25 1447.34 278.76 1447.34 275.969C1447.34 273.365 1447.79 270.979 1448.69 268.812C1449.58 266.625 1450.8 264.75 1452.34 263.188C1453.91 261.625 1455.72 260.417 1457.78 259.562C1459.86 258.688 1462.08 258.25 1464.44 258.25C1465.52 258.25 1466.59 258.385 1467.66 258.656C1468.72 258.927 1469.75 259.302 1470.75 259.781C1471.75 260.26 1472.7 260.823 1473.59 261.469C1474.51 262.115 1475.36 262.812 1476.16 263.562L1479.47 259.594H1481.53V293ZM1472.94 275.969C1472.94 274.802 1472.71 273.677 1472.25 272.594C1471.81 271.49 1471.21 270.521 1470.44 269.688C1469.67 268.833 1468.76 268.156 1467.72 267.656C1466.7 267.135 1465.6 266.875 1464.44 266.875C1463.27 266.875 1462.17 267.073 1461.12 267.469C1460.1 267.865 1459.21 268.448 1458.44 269.219C1457.69 269.99 1457.09 270.948 1456.66 272.094C1456.22 273.219 1456 274.51 1456 275.969C1456 277.427 1456.22 278.729 1456.66 279.875C1457.09 281 1457.69 281.948 1458.44 282.719C1459.21 283.49 1460.1 284.073 1461.12 284.469C1462.17 284.865 1463.27 285.062 1464.44 285.062C1465.6 285.062 1466.7 284.812 1467.72 284.312C1468.76 283.792 1469.67 283.115 1470.44 282.281C1471.21 281.427 1471.81 280.458 1472.25 279.375C1472.71 278.271 1472.94 277.135 1472.94 275.969Z" fill="#E3DEDB"/>
<path d="M1496.59 293H1488.06V259.531H1490.12L1492.94 263.5C1494.31 262.25 1495.88 261.292 1497.62 260.625C1499.38 259.938 1501.19 259.594 1503.06 259.594H1510.59V268.094H1503.06C1502.17 268.094 1501.32 268.26 1500.53 268.594C1499.74 268.927 1499.05 269.385 1498.47 269.969C1497.89 270.552 1497.43 271.24 1497.09 272.031C1496.76 272.823 1496.59 273.667 1496.59 274.562V293Z" fill="#E3DEDB"/>
<path d="M1524.62 250.438C1524.62 251.229 1524.47 251.969 1524.16 252.656C1523.86 253.344 1523.46 253.948 1522.94 254.469C1522.42 254.969 1521.8 255.375 1521.09 255.688C1520.41 255.979 1519.67 256.125 1518.88 256.125C1518.08 256.125 1517.33 255.979 1516.62 255.688C1515.94 255.375 1515.33 254.969 1514.81 254.469C1514.31 253.948 1513.91 253.344 1513.59 252.656C1513.3 251.969 1513.16 251.229 1513.16 250.438C1513.16 249.667 1513.3 248.938 1513.59 248.25C1513.91 247.542 1514.31 246.938 1514.81 246.438C1515.33 245.917 1515.94 245.51 1516.62 245.219C1517.33 244.906 1518.08 244.75 1518.88 244.75C1519.67 244.75 1520.41 244.906 1521.09 245.219C1521.8 245.51 1522.42 245.917 1522.94 246.438C1523.46 246.938 1523.86 247.542 1524.16 248.25C1524.47 248.938 1524.62 249.667 1524.62 250.438ZM1523.16 293H1514.56V259.531H1523.16V293Z" fill="#E3DEDB"/>
<path d="M1548.06 293H1528.56V284.5H1548.06C1548.65 284.5 1549.15 284.292 1549.56 283.875C1549.98 283.458 1550.19 282.958 1550.19 282.375C1550.19 281.771 1549.98 281.375 1549.56 281.188C1549.15 281 1548.65 280.906 1548.06 280.906H1539.19C1537.71 280.906 1536.32 280.625 1535.03 280.062C1533.74 279.5 1532.61 278.74 1531.66 277.781C1530.7 276.802 1529.94 275.667 1529.38 274.375C1528.83 273.083 1528.56 271.698 1528.56 270.219C1528.56 268.74 1528.83 267.354 1529.38 266.062C1529.94 264.771 1530.7 263.646 1531.66 262.688C1532.61 261.729 1533.74 260.979 1535.03 260.438C1536.32 259.875 1537.71 259.594 1539.19 259.594H1556.47V268.094H1539.19C1538.6 268.094 1538.1 268.302 1537.69 268.719C1537.27 269.135 1537.06 269.635 1537.06 270.219C1537.06 270.823 1537.27 271.344 1537.69 271.781C1538.1 272.198 1538.6 272.406 1539.19 272.406H1548.06C1549.52 272.406 1550.9 272.656 1552.19 273.156C1553.48 273.635 1554.6 274.312 1555.56 275.188C1556.52 276.062 1557.28 277.115 1557.84 278.344C1558.41 279.573 1558.69 280.917 1558.69 282.375C1558.69 283.854 1558.41 285.24 1557.84 286.531C1557.28 287.802 1556.52 288.927 1555.56 289.906C1554.6 290.865 1553.48 291.625 1552.19 292.188C1550.9 292.729 1549.52 293 1548.06 293Z" fill="#E3DEDB"/>
<path d="M1573.31 250.438C1573.31 251.229 1573.16 251.969 1572.84 252.656C1572.55 253.344 1572.15 253.948 1571.62 254.469C1571.1 254.969 1570.49 255.375 1569.78 255.688C1569.09 255.979 1568.35 256.125 1567.56 256.125C1566.77 256.125 1566.02 255.979 1565.31 255.688C1564.62 255.375 1564.02 254.969 1563.5 254.469C1563 253.948 1562.59 253.344 1562.28 252.656C1561.99 251.969 1561.84 251.229 1561.84 250.438C1561.84 249.667 1561.99 248.938 1562.28 248.25C1562.59 247.542 1563 246.938 1563.5 246.438C1564.02 245.917 1564.62 245.51 1565.31 245.219C1566.02 244.906 1566.77 244.75 1567.56 244.75C1568.35 244.75 1569.09 244.906 1569.78 245.219C1570.49 245.51 1571.1 245.917 1571.62 246.438C1572.15 246.938 1572.55 247.542 1572.84 248.25C1573.16 248.938 1573.31 249.667 1573.31 250.438ZM1571.84 293H1563.25V259.531H1571.84V293Z" fill="#E3DEDB"/>
<path d="M1610.78 293H1608.72L1605.41 288.406C1604.59 289.135 1603.73 289.823 1602.81 290.469C1601.92 291.094 1600.97 291.646 1599.97 292.125C1598.97 292.583 1597.94 292.948 1596.88 293.219C1595.83 293.49 1594.77 293.625 1593.69 293.625C1591.33 293.625 1589.11 293.229 1587.03 292.438C1584.97 291.646 1583.16 290.5 1581.59 289C1580.05 287.479 1578.83 285.625 1577.94 283.438C1577.04 281.25 1576.59 278.76 1576.59 275.969C1576.59 273.365 1577.04 270.979 1577.94 268.812C1578.83 266.625 1580.05 264.75 1581.59 263.188C1583.16 261.625 1584.97 260.417 1587.03 259.562C1589.11 258.688 1591.33 258.25 1593.69 258.25C1594.77 258.25 1595.84 258.385 1596.91 258.656C1597.97 258.927 1599 259.302 1600 259.781C1601 260.26 1601.95 260.823 1602.84 261.469C1603.76 262.115 1604.61 262.812 1605.41 263.562L1608.72 259.594H1610.78V293ZM1602.19 275.969C1602.19 274.802 1601.96 273.677 1601.5 272.594C1601.06 271.49 1600.46 270.521 1599.69 269.688C1598.92 268.833 1598.01 268.156 1596.97 267.656C1595.95 267.135 1594.85 266.875 1593.69 266.875C1592.52 266.875 1591.42 267.073 1590.38 267.469C1589.35 267.865 1588.46 268.448 1587.69 269.219C1586.94 269.99 1586.34 270.948 1585.91 272.094C1585.47 273.219 1585.25 274.51 1585.25 275.969C1585.25 277.427 1585.47 278.729 1585.91 279.875C1586.34 281 1586.94 281.948 1587.69 282.719C1588.46 283.49 1589.35 284.073 1590.38 284.469C1591.42 284.865 1592.52 285.062 1593.69 285.062C1594.85 285.062 1595.95 284.812 1596.97 284.312C1598.01 283.792 1598.92 283.115 1599.69 282.281C1600.46 281.427 1601.06 280.458 1601.5 279.375C1601.96 278.271 1602.19 277.135 1602.19 275.969Z" fill="#E3DEDB"/>
<path d="M1625.84 293H1617.31V259.531H1619.38L1622.19 262.781C1623.56 261.531 1625.11 260.573 1626.84 259.906C1628.59 259.219 1630.42 258.875 1632.31 258.875C1634.35 258.875 1636.28 259.271 1638.09 260.062C1639.91 260.833 1641.49 261.906 1642.84 263.281C1644.2 264.635 1645.26 266.229 1646.03 268.062C1646.82 269.875 1647.22 271.812 1647.22 273.875V293H1638.69V273.875C1638.69 273 1638.52 272.177 1638.19 271.406C1637.85 270.615 1637.4 269.927 1636.81 269.344C1636.23 268.76 1635.55 268.302 1634.78 267.969C1634.01 267.635 1633.19 267.469 1632.31 267.469C1631.42 267.469 1630.57 267.635 1629.78 267.969C1628.99 268.302 1628.3 268.76 1627.72 269.344C1627.14 269.927 1626.68 270.615 1626.34 271.406C1626.01 272.177 1625.84 273 1625.84 273.875V293Z" fill="#E3DEDB"/>
<path d="M1685.72 293H1683.66L1680.34 288.406C1679.53 289.135 1678.67 289.823 1677.75 290.469C1676.85 291.094 1675.91 291.646 1674.91 292.125C1673.91 292.583 1672.88 292.948 1671.81 293.219C1670.77 293.49 1669.71 293.625 1668.62 293.625C1666.27 293.625 1664.05 293.229 1661.97 292.438C1659.91 291.646 1658.09 290.5 1656.53 289C1654.99 287.479 1653.77 285.625 1652.88 283.438C1651.98 281.25 1651.53 278.76 1651.53 275.969C1651.53 273.365 1651.98 270.979 1652.88 268.812C1653.77 266.625 1654.99 264.75 1656.53 263.188C1658.09 261.625 1659.91 260.417 1661.97 259.562C1664.05 258.688 1666.27 258.25 1668.62 258.25C1669.71 258.25 1670.78 258.385 1671.84 258.656C1672.91 258.927 1673.94 259.302 1674.94 259.781C1675.94 260.26 1676.89 260.823 1677.78 261.469C1678.7 262.115 1679.55 262.812 1680.34 263.562L1683.66 259.594H1685.72V293ZM1677.12 275.969C1677.12 274.802 1676.9 273.677 1676.44 272.594C1676 271.49 1675.4 270.521 1674.62 269.688C1673.85 268.833 1672.95 268.156 1671.91 267.656C1670.89 267.135 1669.79 266.875 1668.62 266.875C1667.46 266.875 1666.35 267.073 1665.31 267.469C1664.29 267.865 1663.4 268.448 1662.62 269.219C1661.88 269.99 1661.28 270.948 1660.84 272.094C1660.41 273.219 1660.19 274.51 1660.19 275.969C1660.19 277.427 1660.41 278.729 1660.84 279.875C1661.28 281 1661.88 281.948 1662.62 282.719C1663.4 283.49 1664.29 284.073 1665.31 284.469C1666.35 284.865 1667.46 285.062 1668.62 285.062C1669.79 285.062 1670.89 284.812 1671.91 284.312C1672.95 283.792 1673.85 283.115 1674.62 282.281C1675.4 281.427 1676 280.458 1676.44 279.375C1676.9 278.271 1677.12 277.135 1677.12 275.969Z" fill="#E3DEDB"/>
<path d="M427.461 263.469C427.461 264.859 427.195 266.172 426.664 267.406C426.133 268.625 425.406 269.695 424.484 270.617C423.578 271.523 422.516 272.242 421.297 272.773C420.078 273.305 418.773 273.57 417.383 273.57H414.008C413.539 273.57 413.102 273.656 412.695 273.828C412.289 274 411.93 274.242 411.617 274.555C411.32 274.852 411.086 275.203 410.914 275.609C410.742 276.016 410.656 276.453 410.656 276.922V280.273H426.547V287H403.93V276.922C403.93 275.531 404.195 274.227 404.727 273.008C405.258 271.773 405.977 270.703 406.883 269.797C407.805 268.875 408.875 268.156 410.094 267.641C411.312 267.109 412.617 266.844 414.008 266.844H417.383C417.852 266.844 418.289 266.758 418.695 266.586C419.102 266.414 419.453 266.18 419.75 265.883C420.062 265.57 420.305 265.211 420.477 264.805C420.648 264.383 420.734 263.938 420.734 263.469C420.734 263 420.648 262.562 420.477 262.156C420.305 261.75 420.062 261.398 419.75 261.102C419.453 260.789 419.102 260.547 418.695 260.375C418.289 260.203 417.852 260.117 417.383 260.117H405.383V253.391H417.383C418.773 253.391 420.078 253.656 421.297 254.188C422.516 254.719 423.578 255.445 424.484 256.367C425.406 257.273 426.133 258.336 426.664 259.555C427.195 260.773 427.461 262.078 427.461 263.469Z" fill="#E3DEDB"/>
<path d="M451.742 270.195C451.742 266.461 451.117 263.688 449.867 261.875C448.633 260.062 446.906 259.156 444.688 259.156C442.484 259.156 440.773 260.055 439.555 261.852C438.336 263.648 437.727 266.43 437.727 270.195C437.727 273.93 438.336 276.703 439.555 278.516C440.773 280.328 442.484 281.234 444.688 281.234C445.797 281.234 446.789 281.016 447.664 280.578C448.539 280.125 449.273 279.445 449.867 278.539C450.477 277.633 450.938 276.492 451.25 275.117C451.578 273.727 451.742 272.086 451.742 270.195ZM458.141 270.195C458.141 273.383 457.789 276.078 457.086 278.281C456.383 280.484 455.422 282.266 454.203 283.625C452.984 284.984 451.555 285.969 449.914 286.578C448.289 287.172 446.547 287.469 444.688 287.469C442.828 287.469 441.078 287.164 439.438 286.555C437.812 285.93 436.391 284.938 435.172 283.578C433.969 282.203 433.016 280.422 432.312 278.234C431.609 276.031 431.258 273.352 431.258 270.195C431.258 267.008 431.609 264.32 432.312 262.133C433.016 259.93 433.969 258.148 435.172 256.789C436.391 255.43 437.812 254.445 439.438 253.836C441.078 253.227 442.828 252.922 444.688 252.922C446.547 252.922 448.289 253.234 449.914 253.859C451.555 254.469 452.984 255.461 454.203 256.836C455.422 258.211 456.383 259.992 457.086 262.18C457.789 264.367 458.141 267.039 458.141 270.195Z" fill="#E3DEDB"/>
<path d="M470.797 271.156C470.797 271.719 470.688 272.25 470.469 272.75C470.266 273.234 469.984 273.656 469.625 274.016C469.266 274.375 468.844 274.664 468.359 274.883C467.875 275.086 467.359 275.188 466.812 275.188C466.25 275.188 465.727 275.086 465.242 274.883C464.758 274.664 464.328 274.375 463.953 274.016C463.594 273.656 463.305 273.234 463.086 272.75C462.883 272.25 462.781 271.719 462.781 271.156C462.781 270.625 462.883 270.117 463.086 269.633C463.305 269.148 463.594 268.727 463.953 268.367C464.328 267.992 464.758 267.703 465.242 267.5C465.727 267.281 466.25 267.172 466.812 267.172C467.359 267.172 467.875 267.281 468.359 267.5C468.844 267.703 469.266 267.992 469.625 268.367C469.984 268.727 470.266 269.148 470.469 269.633C470.688 270.117 470.797 270.625 470.797 271.156ZM470.797 284.609C470.797 285.172 470.688 285.703 470.469 286.203C470.266 286.688 469.984 287.109 469.625 287.469C469.266 287.828 468.844 288.109 468.359 288.312C467.875 288.531 467.359 288.641 466.812 288.641C466.25 288.641 465.727 288.531 465.242 288.312C464.758 288.109 464.328 287.828 463.953 287.469C463.594 287.109 463.305 286.688 463.086 286.203C462.883 285.703 462.781 285.172 462.781 284.609C462.781 284.062 462.883 283.547 463.086 283.062C463.305 282.578 463.594 282.156 463.953 281.797C464.328 281.438 464.758 281.156 465.242 280.953C465.727 280.734 466.25 280.625 466.812 280.625C467.359 280.625 467.875 280.734 468.359 280.953C468.844 281.156 469.266 281.438 469.625 281.797C469.984 282.156 470.266 282.578 470.469 283.062C470.688 283.547 470.797 284.062 470.797 284.609Z" fill="#E3DEDB"/>
<path d="M495.898 270.195C495.898 266.461 495.273 263.688 494.023 261.875C492.789 260.062 491.062 259.156 488.844 259.156C486.641 259.156 484.93 260.055 483.711 261.852C482.492 263.648 481.883 266.43 481.883 270.195C481.883 273.93 482.492 276.703 483.711 278.516C484.93 280.328 486.641 281.234 488.844 281.234C489.953 281.234 490.945 281.016 491.82 280.578C492.695 280.125 493.43 279.445 494.023 278.539C494.633 277.633 495.094 276.492 495.406 275.117C495.734 273.727 495.898 272.086 495.898 270.195ZM502.297 270.195C502.297 273.383 501.945 276.078 501.242 278.281C500.539 280.484 499.578 282.266 498.359 283.625C497.141 284.984 495.711 285.969 494.07 286.578C492.445 287.172 490.703 287.469 488.844 287.469C486.984 287.469 485.234 287.164 483.594 286.555C481.969 285.93 480.547 284.938 479.328 283.578C478.125 282.203 477.172 280.422 476.469 278.234C475.766 276.031 475.414 273.352 475.414 270.195C475.414 267.008 475.766 264.32 476.469 262.133C477.172 259.93 478.125 258.148 479.328 256.789C480.547 255.43 481.969 254.445 483.594 253.836C485.234 253.227 486.984 252.922 488.844 252.922C490.703 252.922 492.445 253.234 494.07 253.859C495.711 254.469 497.141 255.461 498.359 256.836C499.578 258.211 500.539 259.992 501.242 262.18C501.945 264.367 502.297 267.039 502.297 270.195Z" fill="#E3DEDB"/>
<path d="M526.742 270.195C526.742 266.461 526.117 263.688 524.867 261.875C523.633 260.062 521.906 259.156 519.688 259.156C517.484 259.156 515.773 260.055 514.555 261.852C513.336 263.648 512.727 266.43 512.727 270.195C512.727 273.93 513.336 276.703 514.555 278.516C515.773 280.328 517.484 281.234 519.688 281.234C520.797 281.234 521.789 281.016 522.664 280.578C523.539 280.125 524.273 279.445 524.867 278.539C525.477 277.633 525.938 276.492 526.25 275.117C526.578 273.727 526.742 272.086 526.742 270.195ZM533.141 270.195C533.141 273.383 532.789 276.078 532.086 278.281C531.383 280.484 530.422 282.266 529.203 283.625C527.984 284.984 526.555 285.969 524.914 286.578C523.289 287.172 521.547 287.469 519.688 287.469C517.828 287.469 516.078 287.164 514.438 286.555C512.812 285.93 511.391 284.938 510.172 283.578C508.969 282.203 508.016 280.422 507.312 278.234C506.609 276.031 506.258 273.352 506.258 270.195C506.258 267.008 506.609 264.32 507.312 262.133C508.016 259.93 508.969 258.148 510.172 256.789C511.391 255.43 512.812 254.445 514.438 253.836C516.078 253.227 517.828 252.922 519.688 252.922C521.547 252.922 523.289 253.234 524.914 253.859C526.555 254.469 527.984 255.461 529.203 256.836C530.422 258.211 531.383 259.992 532.086 262.18C532.789 264.367 533.141 267.039 533.141 270.195Z" fill="#E3DEDB"/>
<path d="M1444.88 418.406C1442.79 420.198 1440.46 421.573 1437.88 422.531C1435.29 423.49 1432.61 423.969 1429.84 423.969C1427.72 423.969 1425.67 423.688 1423.69 423.125C1421.73 422.583 1419.89 421.812 1418.16 420.812C1416.45 419.792 1414.89 418.573 1413.47 417.156C1412.05 415.74 1410.83 414.177 1409.81 412.469C1408.81 410.74 1408.03 408.896 1407.47 406.938C1406.93 404.958 1406.66 402.906 1406.66 400.781C1406.66 398.656 1406.93 396.604 1407.47 394.625C1408.03 392.646 1408.81 390.802 1409.81 389.094C1410.83 387.365 1412.05 385.792 1413.47 384.375C1414.89 382.958 1416.45 381.75 1418.16 380.75C1419.89 379.729 1421.73 378.948 1423.69 378.406C1425.67 377.844 1427.72 377.562 1429.84 377.562C1432.61 377.562 1435.29 378.042 1437.88 379C1440.46 379.938 1442.79 381.312 1444.88 383.125L1440.12 390.938C1438.81 389.521 1437.26 388.438 1435.47 387.688C1433.68 386.917 1431.8 386.531 1429.84 386.531C1427.86 386.531 1426.01 386.906 1424.28 387.656C1422.55 388.406 1421.04 389.427 1419.75 390.719C1418.46 391.99 1417.44 393.5 1416.69 395.25C1415.94 396.979 1415.56 398.823 1415.56 400.781C1415.56 402.74 1415.94 404.583 1416.69 406.312C1417.44 408.021 1418.46 409.521 1419.75 410.812C1421.04 412.104 1422.55 413.125 1424.28 413.875C1426.01 414.625 1427.86 415 1429.84 415C1431.8 415 1433.68 414.625 1435.47 413.875C1437.26 413.104 1438.81 412.01 1440.12 410.594L1444.88 418.406Z" fill="#E3DEDB"/>
<path d="M1480.41 423H1478.34L1475.03 418.406C1474.22 419.135 1473.35 419.823 1472.44 420.469C1471.54 421.094 1470.59 421.646 1469.59 422.125C1468.59 422.583 1467.56 422.948 1466.5 423.219C1465.46 423.49 1464.4 423.625 1463.31 423.625C1460.96 423.625 1458.74 423.229 1456.66 422.438C1454.59 421.646 1452.78 420.5 1451.22 419C1449.68 417.479 1448.46 415.625 1447.56 413.438C1446.67 411.25 1446.22 408.76 1446.22 405.969C1446.22 403.365 1446.67 400.979 1447.56 398.812C1448.46 396.625 1449.68 394.75 1451.22 393.188C1452.78 391.625 1454.59 390.417 1456.66 389.562C1458.74 388.688 1460.96 388.25 1463.31 388.25C1464.4 388.25 1465.47 388.385 1466.53 388.656C1467.59 388.927 1468.62 389.302 1469.62 389.781C1470.62 390.26 1471.57 390.823 1472.47 391.469C1473.39 392.115 1474.24 392.812 1475.03 393.562L1478.34 389.594H1480.41V423ZM1471.81 405.969C1471.81 404.802 1471.58 403.677 1471.12 402.594C1470.69 401.49 1470.08 400.521 1469.31 399.688C1468.54 398.833 1467.64 398.156 1466.59 397.656C1465.57 397.135 1464.48 396.875 1463.31 396.875C1462.15 396.875 1461.04 397.073 1460 397.469C1458.98 397.865 1458.08 398.448 1457.31 399.219C1456.56 399.99 1455.97 400.948 1455.53 402.094C1455.09 403.219 1454.88 404.51 1454.88 405.969C1454.88 407.427 1455.09 408.729 1455.53 409.875C1455.97 411 1456.56 411.948 1457.31 412.719C1458.08 413.49 1458.98 414.073 1460 414.469C1461.04 414.865 1462.15 415.062 1463.31 415.062C1464.48 415.062 1465.57 414.812 1466.59 414.312C1467.64 413.792 1468.54 413.115 1469.31 412.281C1470.08 411.427 1470.69 410.458 1471.12 409.375C1471.58 408.271 1471.81 407.135 1471.81 405.969Z" fill="#E3DEDB"/>
<path d="M1495.47 423H1486.94V389.531H1489L1491.81 393.5C1493.19 392.25 1494.75 391.292 1496.5 390.625C1498.25 389.938 1500.06 389.594 1501.94 389.594H1509.47V398.094H1501.94C1501.04 398.094 1500.2 398.26 1499.41 398.594C1498.61 398.927 1497.93 399.385 1497.34 399.969C1496.76 400.552 1496.3 401.24 1495.97 402.031C1495.64 402.823 1495.47 403.667 1495.47 404.562V423Z" fill="#E3DEDB"/>
<path d="M1521.97 423H1513.44V389.531H1515.5L1518.31 393.5C1519.69 392.25 1521.25 391.292 1523 390.625C1524.75 389.938 1526.56 389.594 1528.44 389.594H1535.97V398.094H1528.44C1527.54 398.094 1526.7 398.26 1525.91 398.594C1525.11 398.927 1524.43 399.385 1523.84 399.969C1523.26 400.552 1522.8 401.24 1522.47 402.031C1522.14 402.823 1521.97 403.667 1521.97 404.562V423Z" fill="#E3DEDB"/>
<path d="M1571.66 405.969C1571.66 408.469 1571.21 410.802 1570.31 412.969C1569.42 415.115 1568.2 416.979 1566.66 418.562C1565.11 420.125 1563.3 421.365 1561.22 422.281C1559.16 423.177 1556.94 423.625 1554.56 423.625C1552.21 423.625 1549.99 423.177 1547.91 422.281C1545.84 421.365 1544.03 420.125 1542.47 418.562C1540.93 416.979 1539.71 415.115 1538.81 412.969C1537.92 410.802 1537.47 408.469 1537.47 405.969C1537.47 403.427 1537.92 401.073 1538.81 398.906C1539.71 396.74 1540.93 394.875 1542.47 393.312C1544.03 391.729 1545.84 390.49 1547.91 389.594C1549.99 388.698 1552.21 388.25 1554.56 388.25C1556.94 388.25 1559.16 388.677 1561.22 389.531C1563.3 390.365 1565.11 391.562 1566.66 393.125C1568.2 394.667 1569.42 396.531 1570.31 398.719C1571.21 400.885 1571.66 403.302 1571.66 405.969ZM1563.06 405.969C1563.06 404.594 1562.83 403.354 1562.38 402.25C1561.94 401.125 1561.33 400.167 1560.56 399.375C1559.79 398.562 1558.89 397.948 1557.84 397.531C1556.82 397.094 1555.73 396.875 1554.56 396.875C1553.4 396.875 1552.29 397.094 1551.25 397.531C1550.23 397.948 1549.33 398.562 1548.56 399.375C1547.81 400.167 1547.22 401.125 1546.78 402.25C1546.34 403.354 1546.12 404.594 1546.12 405.969C1546.12 407.26 1546.34 408.458 1546.78 409.562C1547.22 410.667 1547.81 411.625 1548.56 412.438C1549.33 413.25 1550.23 413.896 1551.25 414.375C1552.29 414.833 1553.4 415.062 1554.56 415.062C1555.73 415.062 1556.82 414.844 1557.84 414.406C1558.89 413.969 1559.79 413.354 1560.56 412.562C1561.33 411.771 1561.94 410.812 1562.38 409.688C1562.83 408.562 1563.06 407.323 1563.06 405.969Z" fill="#E3DEDB"/>
<path d="M1594.75 423H1575.25V414.5H1594.75C1595.33 414.5 1595.83 414.292 1596.25 413.875C1596.67 413.458 1596.88 412.958 1596.88 412.375C1596.88 411.771 1596.67 411.375 1596.25 411.188C1595.83 411 1595.33 410.906 1594.75 410.906H1585.88C1584.4 410.906 1583.01 410.625 1581.72 410.062C1580.43 409.5 1579.3 408.74 1578.34 407.781C1577.39 406.802 1576.62 405.667 1576.06 404.375C1575.52 403.083 1575.25 401.698 1575.25 400.219C1575.25 398.74 1575.52 397.354 1576.06 396.062C1576.62 394.771 1577.39 393.646 1578.34 392.688C1579.3 391.729 1580.43 390.979 1581.72 390.438C1583.01 389.875 1584.4 389.594 1585.88 389.594H1603.16V398.094H1585.88C1585.29 398.094 1584.79 398.302 1584.38 398.719C1583.96 399.135 1583.75 399.635 1583.75 400.219C1583.75 400.823 1583.96 401.344 1584.38 401.781C1584.79 402.198 1585.29 402.406 1585.88 402.406H1594.75C1596.21 402.406 1597.58 402.656 1598.88 403.156C1600.17 403.635 1601.29 404.312 1602.25 405.188C1603.21 406.062 1603.97 407.115 1604.53 408.344C1605.09 409.573 1605.38 410.917 1605.38 412.375C1605.38 413.854 1605.09 415.24 1604.53 416.531C1603.97 417.802 1603.21 418.927 1602.25 419.906C1601.29 420.865 1600.17 421.625 1598.88 422.188C1597.58 422.729 1596.21 423 1594.75 423Z" fill="#E3DEDB"/>
<path d="M1628.31 423H1608.81V414.5H1628.31C1628.9 414.5 1629.4 414.292 1629.81 413.875C1630.23 413.458 1630.44 412.958 1630.44 412.375C1630.44 411.771 1630.23 411.375 1629.81 411.188C1629.4 411 1628.9 410.906 1628.31 410.906H1619.44C1617.96 410.906 1616.57 410.625 1615.28 410.062C1613.99 409.5 1612.86 408.74 1611.91 407.781C1610.95 406.802 1610.19 405.667 1609.62 404.375C1609.08 403.083 1608.81 401.698 1608.81 400.219C1608.81 398.74 1609.08 397.354 1609.62 396.062C1610.19 394.771 1610.95 393.646 1611.91 392.688C1612.86 391.729 1613.99 390.979 1615.28 390.438C1616.57 389.875 1617.96 389.594 1619.44 389.594H1636.72V398.094H1619.44C1618.85 398.094 1618.35 398.302 1617.94 398.719C1617.52 399.135 1617.31 399.635 1617.31 400.219C1617.31 400.823 1617.52 401.344 1617.94 401.781C1618.35 402.198 1618.85 402.406 1619.44 402.406H1628.31C1629.77 402.406 1631.15 402.656 1632.44 403.156C1633.73 403.635 1634.85 404.312 1635.81 405.188C1636.77 406.062 1637.53 407.115 1638.09 408.344C1638.66 409.573 1638.94 410.917 1638.94 412.375C1638.94 413.854 1638.66 415.24 1638.09 416.531C1637.53 417.802 1636.77 418.927 1635.81 419.906C1634.85 420.865 1633.73 421.625 1632.44 422.188C1631.15 422.729 1629.77 423 1628.31 423Z" fill="#E3DEDB"/>
<path d="M1656.81 414.812C1657.15 414.917 1657.48 414.99 1657.81 415.031C1658.15 415.052 1658.48 415.062 1658.81 415.062C1659.65 415.062 1660.45 414.948 1661.22 414.719C1661.99 414.49 1662.71 414.167 1663.38 413.75C1664.06 413.312 1664.67 412.792 1665.19 412.188C1665.73 411.562 1666.17 410.875 1666.5 410.125L1672.75 416.406C1671.96 417.531 1671.04 418.542 1670 419.438C1668.98 420.333 1667.86 421.094 1666.66 421.719C1665.47 422.344 1664.21 422.812 1662.88 423.125C1661.56 423.458 1660.21 423.625 1658.81 423.625C1656.46 423.625 1654.24 423.188 1652.16 422.312C1650.09 421.438 1648.28 420.219 1646.72 418.656C1645.18 417.094 1643.96 415.24 1643.06 413.094C1642.17 410.927 1641.72 408.552 1641.72 405.969C1641.72 403.323 1642.17 400.906 1643.06 398.719C1643.96 396.531 1645.18 394.667 1646.72 393.125C1648.28 391.583 1650.09 390.385 1652.16 389.531C1654.24 388.677 1656.46 388.25 1658.81 388.25C1660.21 388.25 1661.57 388.417 1662.91 388.75C1664.24 389.083 1665.5 389.562 1666.69 390.188C1667.9 390.812 1669.02 391.583 1670.06 392.5C1671.1 393.396 1672.02 394.406 1672.81 395.531L1656.81 414.812ZM1661.19 397.219C1660.79 397.073 1660.4 396.979 1660 396.938C1659.62 396.896 1659.23 396.875 1658.81 396.875C1657.65 396.875 1656.54 397.094 1655.5 397.531C1654.48 397.948 1653.58 398.552 1652.81 399.344C1652.06 400.135 1651.47 401.094 1651.03 402.219C1650.59 403.323 1650.38 404.573 1650.38 405.969C1650.38 406.281 1650.39 406.635 1650.41 407.031C1650.45 407.427 1650.5 407.833 1650.56 408.25C1650.65 408.646 1650.74 409.031 1650.84 409.406C1650.95 409.781 1651.08 410.115 1651.25 410.406L1661.19 397.219Z" fill="#E3DEDB"/>
<path d="M1685.72 423H1677.12V376.219H1685.72V423Z" fill="#E3DEDB"/>
<path d="M101.242 393.469C101.242 394.859 100.977 396.172 100.445 397.406C99.9141 398.625 99.1875 399.695 98.2656 400.617C97.3594 401.523 96.2969 402.242 95.0781 402.773C93.8594 403.305 92.5547 403.57 91.1641 403.57H87.7891C87.3203 403.57 86.8828 403.656 86.4766 403.828C86.0703 404 85.7109 404.242 85.3984 404.555C85.1016 404.852 84.8672 405.203 84.6953 405.609C84.5234 406.016 84.4375 406.453 84.4375 406.922V410.273H100.328V417H77.7109V406.922C77.7109 405.531 77.9766 404.227 78.5078 403.008C79.0391 401.773 79.7578 400.703 80.6641 399.797C81.5859 398.875 82.6562 398.156 83.875 397.641C85.0938 397.109 86.3984 396.844 87.7891 396.844H91.1641C91.6328 396.844 92.0703 396.758 92.4766 396.586C92.8828 396.414 93.2344 396.18 93.5312 395.883C93.8438 395.57 94.0859 395.211 94.2578 394.805C94.4297 394.383 94.5156 393.938 94.5156 393.469C94.5156 393 94.4297 392.562 94.2578 392.156C94.0859 391.75 93.8438 391.398 93.5312 391.102C93.2344 390.789 92.8828 390.547 92.4766 390.375C92.0703 390.203 91.6328 390.117 91.1641 390.117H79.1641V383.391H91.1641C92.5547 383.391 93.8594 383.656 95.0781 384.188C96.2969 384.719 97.3594 385.445 98.2656 386.367C99.1875 387.273 99.9141 388.336 100.445 389.555C100.977 390.773 101.242 392.078 101.242 393.469Z" fill="#E3DEDB"/>
<path d="M114.977 417H108.25V390.117H104.898V383.391H114.977V417Z" fill="#E3DEDB"/>
<path d="M129.016 401.156C129.016 401.719 128.906 402.25 128.688 402.75C128.484 403.234 128.203 403.656 127.844 404.016C127.484 404.375 127.062 404.664 126.578 404.883C126.094 405.086 125.578 405.188 125.031 405.188C124.469 405.188 123.945 405.086 123.461 404.883C122.977 404.664 122.547 404.375 122.172 404.016C121.812 403.656 121.523 403.234 121.305 402.75C121.102 402.25 121 401.719 121 401.156C121 400.625 121.102 400.117 121.305 399.633C121.523 399.148 121.812 398.727 122.172 398.367C122.547 397.992 122.977 397.703 123.461 397.5C123.945 397.281 124.469 397.172 125.031 397.172C125.578 397.172 126.094 397.281 126.578 397.5C127.062 397.703 127.484 397.992 127.844 398.367C128.203 398.727 128.484 399.148 128.688 399.633C128.906 400.117 129.016 400.625 129.016 401.156ZM129.016 414.609C129.016 415.172 128.906 415.703 128.688 416.203C128.484 416.688 128.203 417.109 127.844 417.469C127.484 417.828 127.062 418.109 126.578 418.312C126.094 418.531 125.578 418.641 125.031 418.641C124.469 418.641 123.945 418.531 123.461 418.312C122.977 418.109 122.547 417.828 122.172 417.469C121.812 417.109 121.523 416.688 121.305 416.203C121.102 415.703 121 415.172 121 414.609C121 414.062 121.102 413.547 121.305 413.062C121.523 412.578 121.812 412.156 122.172 411.797C122.547 411.438 122.977 411.156 123.461 410.953C123.945 410.734 124.469 410.625 125.031 410.625C125.578 410.625 126.094 410.734 126.578 410.953C127.062 411.156 127.484 411.438 127.844 411.797C128.203 412.156 128.484 412.578 128.688 413.062C128.906 413.547 129.016 414.062 129.016 414.609Z" fill="#E3DEDB"/>
<path d="M154.117 400.195C154.117 396.461 153.492 393.688 152.242 391.875C151.008 390.062 149.281 389.156 147.062 389.156C144.859 389.156 143.148 390.055 141.93 391.852C140.711 393.648 140.102 396.43 140.102 400.195C140.102 403.93 140.711 406.703 141.93 408.516C143.148 410.328 144.859 411.234 147.062 411.234C148.172 411.234 149.164 411.016 150.039 410.578C150.914 410.125 151.648 409.445 152.242 408.539C152.852 407.633 153.312 406.492 153.625 405.117C153.953 403.727 154.117 402.086 154.117 400.195ZM160.516 400.195C160.516 403.383 160.164 406.078 159.461 408.281C158.758 410.484 157.797 412.266 156.578 413.625C155.359 414.984 153.93 415.969 152.289 416.578C150.664 417.172 148.922 417.469 147.062 417.469C145.203 417.469 143.453 417.164 141.812 416.555C140.188 415.93 138.766 414.938 137.547 413.578C136.344 412.203 135.391 410.422 134.688 408.234C133.984 406.031 133.633 403.352 133.633 400.195C133.633 397.008 133.984 394.32 134.688 392.133C135.391 389.93 136.344 388.148 137.547 386.789C138.766 385.43 140.188 384.445 141.812 383.836C143.453 383.227 145.203 382.922 147.062 382.922C148.922 382.922 150.664 383.234 152.289 383.859C153.93 384.469 155.359 385.461 156.578 386.836C157.797 388.211 158.758 389.992 159.461 392.18C160.164 394.367 160.516 397.039 160.516 400.195Z" fill="#E3DEDB"/>
<path d="M184.961 400.195C184.961 396.461 184.336 393.688 183.086 391.875C181.852 390.062 180.125 389.156 177.906 389.156C175.703 389.156 173.992 390.055 172.773 391.852C171.555 393.648 170.945 396.43 170.945 400.195C170.945 403.93 171.555 406.703 172.773 408.516C173.992 410.328 175.703 411.234 177.906 411.234C179.016 411.234 180.008 411.016 180.883 410.578C181.758 410.125 182.492 409.445 183.086 408.539C183.695 407.633 184.156 406.492 184.469 405.117C184.797 403.727 184.961 402.086 184.961 400.195ZM191.359 400.195C191.359 403.383 191.008 406.078 190.305 408.281C189.602 410.484 188.641 412.266 187.422 413.625C186.203 414.984 184.773 415.969 183.133 416.578C181.508 417.172 179.766 417.469 177.906 417.469C176.047 417.469 174.297 417.164 172.656 416.555C171.031 415.93 169.609 414.938 168.391 413.578C167.188 412.203 166.234 410.422 165.531 408.234C164.828 406.031 164.477 403.352 164.477 400.195C164.477 397.008 164.828 394.32 165.531 392.133C166.234 389.93 167.188 388.148 168.391 386.789C169.609 385.43 171.031 384.445 172.656 383.836C174.297 383.227 176.047 382.922 177.906 382.922C179.766 382.922 181.508 383.234 183.133 383.859C184.773 384.469 186.203 385.461 187.422 386.836C188.641 388.211 189.602 389.992 190.305 392.18C191.008 394.367 191.359 397.039 191.359 400.195Z" fill="#E3DEDB"/>
<path d="M193.812 50.5938C193.812 52.6562 193.542 54.6458 193 56.5625C192.479 58.4583 191.729 60.2396 190.75 61.9062C189.771 63.5521 188.604 65.0625 187.25 66.4375C185.896 67.7917 184.385 68.9583 182.719 69.9375C181.052 70.9167 179.26 71.6771 177.344 72.2188C175.448 72.7396 173.469 73 171.406 73H157.906V28.1875H171.406C173.469 28.1875 175.448 28.4583 177.344 29C179.26 29.5208 181.052 30.2708 182.719 31.25C184.385 32.2292 185.896 33.4062 187.25 34.7812C188.604 36.1354 189.771 37.6458 190.75 39.3125C191.729 40.9583 192.479 42.7396 193 44.6562C193.542 46.5521 193.812 48.5312 193.812 50.5938ZM184.844 50.5938C184.844 48.7396 184.49 47 183.781 45.375C183.094 43.75 182.135 42.3333 180.906 41.125C179.698 39.8958 178.271 38.9271 176.625 38.2188C175 37.5104 173.26 37.1562 171.406 37.1562H166.938V64.0312H171.406C173.26 64.0312 175 63.6875 176.625 63C178.271 62.2917 179.698 61.3333 180.906 60.125C182.135 58.8958 183.094 57.4688 183.781 55.8438C184.49 54.1979 184.844 52.4479 184.844 50.5938Z" fill="#973123"/>
<path d="M208.75 73H199.781V28.1875H208.75V73Z" fill="#973123"/>
<path d="M243.469 55.0938V46.125C243.469 44.8958 243.229 43.7396 242.75 42.6562C242.292 41.5521 241.656 40.5938 240.844 39.7812C240.031 38.9688 239.073 38.3333 237.969 37.875C236.885 37.3958 235.729 37.1562 234.5 37.1562C233.271 37.1562 232.104 37.3958 231 37.875C229.917 38.3333 228.969 38.9688 228.156 39.7812C227.344 40.5938 226.698 41.5521 226.219 42.6562C225.76 43.7396 225.531 44.8958 225.531 46.125V55.0938H243.469ZM252.438 73H243.469V64.0312H225.531V73H216.594V46.125C216.594 43.6458 217.062 41.3229 218 39.1562C218.938 36.9688 220.208 35.0625 221.812 33.4375C223.438 31.8125 225.333 30.5312 227.5 29.5938C229.688 28.6562 232.021 28.1875 234.5 28.1875C236.979 28.1875 239.302 28.6562 241.469 29.5938C243.656 30.5312 245.562 31.8125 247.188 33.4375C248.812 35.0625 250.094 36.9688 251.031 39.1562C251.969 41.3229 252.438 43.6458 252.438 46.125V73Z" fill="#973123"/>
<path d="M289.875 73H280.906V37.1562H276.438V28.1875H289.875V73Z" fill="#973123"/>
<path d="M327.281 28.1875L311.969 73H302.375L314.969 37.1562H295.906V28.1875H327.281Z" fill="#973123"/>
<path d="M375.406 46.125V54.625H349.156V46.125H375.406Z" fill="#973123"/>
<path d="M437.25 50.5938C437.25 52.6562 436.979 54.6458 436.438 56.5625C435.917 58.4583 435.167 60.2396 434.188 61.9062C433.208 63.5521 432.042 65.0625 430.688 66.4375C429.333 67.7917 427.823 68.9583 426.156 69.9375C424.49 70.9167 422.698 71.6771 420.781 72.2188C418.885 72.7396 416.906 73 414.844 73H401.344V28.1875H414.844C416.906 28.1875 418.885 28.4583 420.781 29C422.698 29.5208 424.49 30.2708 426.156 31.25C427.823 32.2292 429.333 33.4062 430.688 34.7812C432.042 36.1354 433.208 37.6458 434.188 39.3125C435.167 40.9583 435.917 42.7396 436.438 44.6562C436.979 46.5521 437.25 48.5312 437.25 50.5938ZM428.281 50.5938C428.281 48.7396 427.927 47 427.219 45.375C426.531 43.75 425.573 42.3333 424.344 41.125C423.135 39.8958 421.708 38.9271 420.062 38.2188C418.438 37.5104 416.698 37.1562 414.844 37.1562H410.375V64.0312H414.844C416.698 64.0312 418.438 63.6875 420.062 63C421.708 62.2917 423.135 61.3333 424.344 60.125C425.573 58.8958 426.531 57.4688 427.219 55.8438C427.927 54.1979 428.281 52.4479 428.281 50.5938Z" fill="#973123"/>
<path d="M487.125 50.7812C487.125 52.9062 486.844 54.9583 486.281 56.9375C485.74 58.8958 484.969 60.7396 483.969 62.4688C482.969 64.1771 481.76 65.7396 480.344 67.1562C478.927 68.5729 477.365 69.7917 475.656 70.8125C473.948 71.8125 472.104 72.5833 470.125 73.125C468.146 73.6875 466.094 73.9688 463.969 73.9688C461.844 73.9688 459.792 73.6875 457.812 73.125C455.854 72.5833 454.01 71.8125 452.281 70.8125C450.573 69.7917 449.01 68.5729 447.594 67.1562C446.177 65.7396 444.958 64.1771 443.938 62.4688C442.938 60.7396 442.156 58.8958 441.594 56.9375C441.052 54.9583 440.781 52.9062 440.781 50.7812C440.781 48.6562 441.052 46.6042 441.594 44.625C442.156 42.6458 442.938 40.8021 443.938 39.0938C444.958 37.3854 446.177 35.8229 447.594 34.4062C449.01 32.9896 450.573 31.7812 452.281 30.7812C454.01 29.7812 455.854 29.0104 457.812 28.4688C459.792 27.9062 461.844 27.625 463.969 27.625C466.094 27.625 468.146 27.9062 470.125 28.4688C472.104 29.0104 473.948 29.7812 475.656 30.7812C477.365 31.7812 478.927 32.9896 480.344 34.4062C481.76 35.8229 482.969 37.3854 483.969 39.0938C484.969 40.8021 485.74 42.6458 486.281 44.625C486.844 46.6042 487.125 48.6562 487.125 50.7812ZM478.219 50.7812C478.219 48.8229 477.844 46.9792 477.094 45.25C476.344 43.5 475.323 41.9896 474.031 40.7188C472.76 39.4271 471.25 38.4062 469.5 37.6562C467.771 36.9062 465.927 36.5312 463.969 36.5312C461.99 36.5312 460.135 36.9062 458.406 37.6562C456.677 38.4062 455.167 39.4271 453.875 40.7188C452.583 41.9896 451.562 43.5 450.812 45.25C450.062 46.9792 449.688 48.8229 449.688 50.7812C449.688 52.7396 450.062 54.5833 450.812 56.3125C451.562 58.0208 452.583 59.5208 453.875 60.8125C455.167 62.1042 456.677 63.125 458.406 63.875C460.135 64.625 461.99 65 463.969 65C465.927 65 467.771 64.625 469.5 63.875C471.25 63.125 472.76 62.1042 474.031 60.8125C475.323 59.5208 476.344 58.0208 477.094 56.3125C477.844 54.5833 478.219 52.7396 478.219 50.7812Z" fill="#973123"/>
<path d="M537.5 73H528.562V41C528.562 40.375 528.438 39.7917 528.188 39.25C527.958 38.7083 527.635 38.2396 527.219 37.8438C526.823 37.4271 526.354 37.1042 525.812 36.875C525.271 36.6458 524.688 36.5312 524.062 36.5312C523.438 36.5312 522.854 36.6458 522.312 36.875C521.771 37.1042 521.292 37.4271 520.875 37.8438C520.479 38.2396 520.167 38.7083 519.938 39.25C519.708 39.7917 519.594 40.375 519.594 41V73H510.625V41C510.625 40.375 510.51 39.7917 510.281 39.25C510.052 38.7083 509.729 38.2396 509.312 37.8438C508.917 37.4271 508.448 37.1042 507.906 36.875C507.365 36.6458 506.781 36.5312 506.156 36.5312C505.531 36.5312 504.948 36.6458 504.406 36.875C503.865 37.1042 503.385 37.4271 502.969 37.8438C502.573 38.2396 502.26 38.7083 502.031 39.25C501.802 39.7917 501.688 40.375 501.688 41V73H492.719V41C492.719 39.1458 493.062 37.4062 493.75 35.7812C494.458 34.1354 495.417 32.7083 496.625 31.5C497.854 30.2708 499.281 29.3125 500.906 28.625C502.552 27.9167 504.302 27.5625 506.156 27.5625C507.823 27.5625 509.427 27.8646 510.969 28.4688C512.51 29.0521 513.896 29.9062 515.125 31.0312C516.354 29.9062 517.729 29.0521 519.25 28.4688C520.792 27.8646 522.396 27.5625 524.062 27.5625C525.917 27.5625 527.656 27.9167 529.281 28.625C530.927 29.3125 532.354 30.2708 533.562 31.5C534.792 32.7083 535.75 34.1354 536.438 35.7812C537.146 37.4062 537.5 39.1458 537.5 41V73Z" fill="#973123"/>
<path d="M554.5 73H545.531V28.1875H554.5V73Z" fill="#973123"/>
<path d="M598.688 73H589.094L571.812 43.5V73H562.844V28.1875H572.438L589.719 57.7188V28.1875H598.688V73Z" fill="#973123"/>
<path d="M642.688 68.4688C640.604 70.2396 638.281 71.6042 635.719 72.5625C633.156 73.5 630.49 73.9688 627.719 73.9688C625.594 73.9688 623.542 73.6875 621.562 73.125C619.604 72.5833 617.771 71.8125 616.062 70.8125C614.354 69.7917 612.792 68.5833 611.375 67.1875C609.958 65.7708 608.75 64.2083 607.75 62.5C606.75 60.7708 605.969 58.9167 605.406 56.9375C604.865 54.9583 604.594 52.9062 604.594 50.7812C604.594 48.6562 604.865 46.6146 605.406 44.6562C605.969 42.6979 606.75 40.8646 607.75 39.1562C608.75 37.4271 609.958 35.8646 611.375 34.4688C612.792 33.0521 614.354 31.8438 616.062 30.8438C617.771 29.8438 619.604 29.0729 621.562 28.5312C623.542 27.9688 625.594 27.6875 627.719 27.6875C630.49 27.6875 633.156 28.1667 635.719 29.125C638.281 30.0625 640.604 31.4167 642.688 33.1875L638 41C636.646 39.625 635.083 38.5521 633.312 37.7812C631.542 36.9896 629.677 36.5938 627.719 36.5938C625.76 36.5938 623.917 36.9688 622.188 37.7188C620.479 38.4688 618.979 39.4896 617.688 40.7812C616.396 42.0521 615.375 43.5521 614.625 45.2812C613.875 46.9896 613.5 48.8229 613.5 50.7812C613.5 52.7604 613.875 54.6146 614.625 56.3438C615.375 58.0729 616.396 59.5833 617.688 60.875C618.979 62.1667 620.479 63.1875 622.188 63.9375C623.917 64.6875 625.76 65.0625 627.719 65.0625C628.844 65.0625 629.938 64.9271 631 64.6562C632.062 64.3854 633.073 64.0104 634.031 63.5312V50.7812H642.688V68.4688Z" fill="#973123"/>
<path d="M693.5 50.7812C693.5 52.9062 693.219 54.9583 692.656 56.9375C692.115 58.8958 691.344 60.7396 690.344 62.4688C689.344 64.1771 688.135 65.7396 686.719 67.1562C685.302 68.5729 683.74 69.7917 682.031 70.8125C680.323 71.8125 678.479 72.5833 676.5 73.125C674.521 73.6875 672.469 73.9688 670.344 73.9688C668.219 73.9688 666.167 73.6875 664.188 73.125C662.229 72.5833 660.385 71.8125 658.656 70.8125C656.948 69.7917 655.385 68.5729 653.969 67.1562C652.552 65.7396 651.333 64.1771 650.312 62.4688C649.312 60.7396 648.531 58.8958 647.969 56.9375C647.427 54.9583 647.156 52.9062 647.156 50.7812C647.156 48.6562 647.427 46.6042 647.969 44.625C648.531 42.6458 649.312 40.8021 650.312 39.0938C651.333 37.3854 652.552 35.8229 653.969 34.4062C655.385 32.9896 656.948 31.7812 658.656 30.7812C660.385 29.7812 662.229 29.0104 664.188 28.4688C666.167 27.9062 668.219 27.625 670.344 27.625C672.469 27.625 674.521 27.9062 676.5 28.4688C678.479 29.0104 680.323 29.7812 682.031 30.7812C683.74 31.7812 685.302 32.9896 686.719 34.4062C688.135 35.8229 689.344 37.3854 690.344 39.0938C691.344 40.8021 692.115 42.6458 692.656 44.625C693.219 46.6042 693.5 48.6562 693.5 50.7812ZM684.594 50.7812C684.594 48.8229 684.219 46.9792 683.469 45.25C682.719 43.5 681.698 41.9896 680.406 40.7188C679.135 39.4271 677.625 38.4062 675.875 37.6562C674.146 36.9062 672.302 36.5312 670.344 36.5312C668.365 36.5312 666.51 36.9062 664.781 37.6562C663.052 38.4062 661.542 39.4271 660.25 40.7188C658.958 41.9896 657.938 43.5 657.188 45.25C656.438 46.9792 656.062 48.8229 656.062 50.7812C656.062 52.7396 656.438 54.5833 657.188 56.3125C657.938 58.0208 658.958 59.5208 660.25 60.8125C661.542 62.1042 663.052 63.125 664.781 63.875C666.51 64.625 668.365 65 670.344 65C672.302 65 674.146 64.625 675.875 63.875C677.625 63.125 679.135 62.1042 680.406 60.8125C681.698 59.5208 682.719 58.0208 683.469 56.3125C684.219 54.5833 684.594 52.7396 684.594 50.7812Z" fill="#973123"/>
</svg>
