<?xml version="1.0" encoding="UTF-8" standalone="no"?>
<svg
   xmlns:dc="http://purl.org/dc/elements/1.1/"
   xmlns:cc="http://creativecommons.org/ns#"
   xmlns:rdf="http://www.w3.org/1999/02/22-rdf-syntax-ns#"
   xmlns:svg="http://www.w3.org/2000/svg"
   xmlns="http://www.w3.org/2000/svg"
   xmlns:sodipodi="http://sodipodi.sourceforge.net/DTD/sodipodi-0.dtd"
   xmlns:inkscape="http://www.inkscape.org/namespaces/inkscape"
   width="1920"
   height="1922"
   viewBox="0 0 1920 1922"
   fill="none"
   version="1.1"
   id="svg8"
   sodipodi:docname="back.svg"
   inkscape:version="0.92.3 (2405546, 2018-03-11)">
  <metadata
     id="metadata14">
    <rdf:RDF>
      <cc:Work
         rdf:about="">
        <dc:format>image/svg+xml</dc:format>
        <dc:type
           rdf:resource="http://purl.org/dc/dcmitype/StillImage" />
      </cc:Work>
    </rdf:RDF>
  </metadata>
  <defs
     id="defs12" />
  <sodipodi:namedview
     pagecolor="#ffffff"
     bordercolor="#666666"
     borderopacity="1"
     objecttolerance="10"
     gridtolerance="10"
     guidetolerance="10"
     inkscape:pageopacity="0"
     inkscape:pageshadow="2"
     inkscape:window-width="1920"
     inkscape:window-height="1058"
     id="namedview10"
     showgrid="false"
     inkscape:zoom="0.49115504"
     inkscape:cx="712.75086"
     inkscape:cy="1653.6759"
     inkscape:window-x="-8"
     inkscape:window-y="-8"
     inkscape:window-maximized="1"
     inkscape:current-layer="svg8" />
  <path
     d="m 582.694,783.222 c -0.381,-0.381 -0.693,-17.627 -0.693,-38.326 0,-27.937 0.309,-37.942 1.2,-38.833 0.931,-0.931 150.934,-1.2 668.999,-1.2 H 1920 v 16.5 16.5 H 1266.52 613.039 l -0.269,22.75 -0.269,22.75 -14.557,0.275 c -8.007,0.152 -14.87,-0.037 -15.25,-0.416 z m 0.839,-103.609 c -0.769,-2.373 -2.471,-29.746 -1.936,-31.14 0.438,-1.14 5.982,-3.446 17.154,-7.135 0.769,-0.253 1.249,-2.253 1.248,-5.194 -0.004,-8.159 -2.021,-31.705 -2.779,-32.441 -0.395,-0.385 -4.544,-1.455 -9.219,-2.38 -4.675,-0.924 -8.95,-2.103 -9.5,-2.62 -1.209,-1.137 -3.312,-30.526 -2.301,-32.162 0.732,-1.184 7.677,0.426 54.801,12.707 11.275,2.939 29.5,7.666 40.5,10.506 18.195,4.697 26.323,6.969 26.604,7.437 0.436,0.723 2.537,34.423 2.201,35.307 -0.237,0.625 -2.765,2.054 -5.618,3.177 -2.853,1.123 -9.012,3.68 -13.687,5.683 -4.675,2.004 -11.65,4.915 -15.5,6.47 -3.85,1.555 -9.7,3.95 -13,5.323 -51.554,21.441 -66.86,27.712 -67.635,27.712 -0.51,0 -1.11,-0.563 -1.333,-1.25 z m 55.49,-52.809 c 6.313,-2.233 14.272,-4.945 17.686,-6.027 6.238,-1.978 8.547,-3.606 6.106,-4.304 -2.535,-0.725 -34.327,-6.653 -35.564,-6.632 -0.805,0.015 -1.25,1.571 -1.25,4.375 0,3.881 1.085,16.647 1.415,16.647 0.071,0 5.295,-1.827 11.607,-4.059 z m 40.978,-92.962 c -3.025,-0.418 -13.825,-1.707 -24,-2.866 -10.175,-1.159 -20.075,-2.305 -22,-2.548 -1.925,-0.243 -10.025,-1.174 -18,-2.069 -7.975,-0.894 -15.85,-1.818 -17.5,-2.052 -1.65,-0.234 -8.815,-1.093 -15.922,-1.908 -7.108,-0.815 -13.303,-1.861 -13.767,-2.326 -1.1,-1.099 -8.023,-33.214 -7.471,-34.653 0.374,-0.974 25.025,-16.557 26.192,-16.557 0.255,0 6.652,-3.738 14.216,-8.307 7.564,-4.569 20.277,-12.161 28.252,-16.872 7.975,-4.711 19.892,-11.765 26.482,-15.675 9.375,-5.563 12.235,-6.842 13.143,-5.878 1.423,1.512 7.487,29.277 6.79,31.094 -0.616,1.606 -45.2,26.469 -62.665,34.946 -7.012,3.404 -12.75,6.527 -12.75,6.94 0,0.414 4.163,0.772 9.25,0.797 5.088,0.026 11.5,0.226 14.25,0.448 2.75,0.222 11.525,0.916 19.5,1.542 27.34,2.148 42.17,3.734 43.001,4.599 1.22,1.269 7.208,30.219 6.491,31.38 -0.684,1.106 -5.31,1.093 -13.492,-0.035 z M 540.15,420.113 c -0.972,-1.847 -8.644,-19.792 -10.111,-23.651 -0.474,-1.246 -0.535,-2.794 -0.136,-3.439 1.049,-1.699 106.244,-46.247 108.452,-45.928 1.352,0.196 3.346,3.845 7.37,13.484 3.034,7.269 5.284,13.82 5.001,14.559 -0.474,1.235 -106.199,46.725 -108.596,46.725 -0.582,0 -1.473,-0.787 -1.98,-1.75 z m -54.671,-91.366 c -4.938,-5.564 -9.116,-10.923 -9.286,-11.91 -0.217,-1.266 8.6,-9.799 30,-29.033 16.67,-14.981 31.387,-28.261 32.705,-29.509 l 2.396,-2.27 -10.146,-11.051 c -5.581,-6.078 -10.147,-11.637 -10.147,-12.352 0,-0.716 3.378,-4.361 7.505,-8.099 12.18,-11.031 13.309,-11.865 14.861,-10.975 2.3,1.319 62.61,68.704 62.623,69.969 0.015,1.57 -19.639,19.346 -21.39,19.346 -0.768,0 -5.803,-4.95 -11.189,-11 -5.386,-6.05 -10.062,-11 -10.392,-11 -0.33,0 -15.072,13.05 -32.761,29 -17.688,15.95 -32.98,29 -33.981,29 -1.049,0 -5.625,-4.287 -10.798,-10.116 z m -82.978,-65.853 c -16.066,-3.467 -32.647,-13.801 -41.905,-26.117 -5.365,-7.137 -10.993,-18.435 -10.205,-20.488 0.496,-1.293 23.539,-13.426 25.499,-13.426 0.506,0 2.286,2.42 3.955,5.378 7.012,12.424 21.023,23.622 29.556,23.622 3.905,0 6.6,-2.134 6.6,-5.227 0,-2.511 -4.147,-8.139 -8.974,-12.179 -9.81,-8.209 -17.966,-17.694 -21.685,-25.22 -3.549,-7.18 -3.841,-8.42 -3.841,-16.322 0,-7.49 0.384,-9.359 3.092,-15.052 5.266,-11.072 13.288,-17.286 24.684,-19.122 16.161,-2.602 39.222,6.543 53.962,21.402 5.76,5.805 12.948,15.952 13.143,18.55 0.138,1.845 -20.579,14.019 -24.016,14.112 -1.268,0.035 -2.865,-1.058 -3.934,-2.692 -3.736,-5.713 -12.067,-13.507 -17.89,-16.739 -7.747,-4.299 -12.038,-5.014 -14.616,-2.436 -3.653,3.653 -2.501,5.672 11.037,19.339 15.155,15.301 16.226,16.613 19.819,24.284 5.741,12.255 2.374,28 -8.24,38.534 -7.144,7.09 -14.032,10.084 -23.933,10.402 -4.459,0.143 -9.908,-0.128 -12.108,-0.603 z M 268.444,224.919 c -18.731,-2.035 -34.593,-4.031 -35.25,-4.437 -1.792,-1.107 -1.599,-3.726 4.642,-62.94 4.09,-38.808 6.159,-55.057 7.082,-55.628 0.718,-0.443 2.042,-0.656 2.944,-0.472 0.902,0.184 17.839,1.982 37.639,3.997 19.8,2.014 36.367,3.998 36.815,4.408 1.001,0.916 -1.718,26.837 -2.937,27.994 -0.483,0.458 -10.962,-0.252 -23.288,-1.579 -12.326,-1.326 -22.552,-2.27 -22.725,-2.097 -0.173,0.173 -0.614,3.527 -0.979,7.453 -0.789,8.499 -2.938,7.475 20.614,9.816 9.328,0.928 17.058,2.168 17.783,2.854 1.039,0.982 1.05,3.455 0.059,12.965 -0.674,6.464 -1.701,12.365 -2.283,13.115 -0.89,1.146 -3.843,1.058 -18.559,-0.552 -9.625,-1.052 -18.454,-1.923 -19.621,-1.933 -1.93,-0.018 -2.184,0.706 -2.826,8.07 -0.388,4.45 -0.5,8.297 -0.247,8.549 0.252,0.252 10.974,1.584 23.826,2.96 12.853,1.376 23.781,2.915 24.286,3.419 0.883,0.883 -0.963,25.437 -2.044,27.186 -0.814,1.318 -9.254,0.727 -44.931,-3.148 z m -144.243,-8.256 c -1.732,-1.733 -1.732,-116.8673 0,-118.5999 1.723,-1.723 77.877,-1.723 79.6,0 0.059,2.0229 -0.03,26.2199 0,28.5999 0.016,1.223 -7.711,1.2 -24.5,1.2 h -23.3 v 8.979 8.98 l 20.25,0.27 20.25,0.271 v 14.5 14.5 l -20.25,0.271 -20.25,0.27 v 19.78 c 0,14.05 -0.347,20.127 -1.2,20.979 -0.82,0.82 -5.666,1.2 -15.3,1.2 -9.633,0 -14.48,-0.38 -15.3,-1.2 z"
     id="path2"
     inkscape:connector-curvature="0"
     style="fill:#963022"
     sodipodi:nodetypes="cssscccccccccccccccccccccscscscccccssccsscscccsssccccscsccccccccccscccccccscccssscsccccscssccscccccccscccccccccsccccscccccccccccccccccscccccccccscsc" />
  <path
     d="m 102.332,1876.94 c 43.87,27.78 81.957,40.16 135.918,44.21 7.562,0.56 36.757,-0.37 47.5,-1.52 38.064,-4.08 72.128,-16.52 100.319,-36.61 9.941,-7.09 27.308,-24.2 34.794,-34.27 19.961,-26.87 32.884,-59.67 38.877,-98.68 3.761,-24.48 4.126,-45.18 3.812,-216.32 -0.285,-155.05 -0.404,-164.69 -2.069,-167.73 -0.656,-1.2 -1.108,-2.19 -1.774,-3 -3.245,-3.97 -11.574,-3.77 -73.459,-3.77 -61.885,0 -70.214,-0.2 -73.46,3.77 -0.665,0.81 -1.117,1.8 -1.773,3 -1.665,3.04 -1.799,13.55 -2.321,181.23 -0.5,160.78 -0.713,178.64 -2.2,184.59 -7.817,31.26 -25.128,43.92 -60.062,43.91 -27.34,-0.01 -53.94,-8.06 -77.87,-23.56 -9.024,-5.84 -13.808,-6.68 -18.613,-3.28 -2.263,1.61 -12.907,17.41 -33.906,50.34 -16.8346,26.4 -31.4886,49.98 -32.5649,52.4 -1.6562,3.72 -1.7839,4.98 -0.8313,8.16 1.425,4.75 4.8655,7.75 19.6832,17.13 z m 417.439,-320.19 c -0.615,10.03 -1.014,84.47 -1.017,189.75 l -0.004,173.25 h 83.5 83.5 v -60 -60 h 37 37 v 60 60 h 83.546 83.545 L 926.488,1731 c -0.326,-173.62 -0.198,-196.35 -4.013,-218.39 -0.764,-4.42 -1.685,-8.8 -2.799,-14.36 -14.399,-71.84 -53.001,-114.92 -117.777,-131.46 -23.515,-6.01 -56.941,-8.78 -85.519,-7.1 -38.871,2.28 -68.547,9.72 -96.63,24.2 -16.782,8.65 -28.728,17.53 -43.523,32.33 -34.59,34.61 -52.729,79.76 -56.456,140.53 z m 235.84,-12.71 c 3.564,11.53 4.139,20.53 4.139,64.78 v 42.93 h -37 -37 v -41.37 c 0,-46.93 0.698,-54.12 6.436,-66.29 6.452,-13.67 15.03,-19.4 30.169,-20.13 13.134,-0.63 19.305,1.33 26.076,8.28 4.046,4.16 5.62,6.74 7.18,11.8 z m 233.139,214.2 v 80.25 80.26 h 196 196 v -80.5 -80.49 l -93.48,-0.26 -93.48,-0.25 93.48,-118.98 93.48,-118.98 v -80.27 -80.27 h -195.5 -195.5 v 80.49 80.5 l 82.5,0.25 82.51,0.26 -83.01,118.99 z m 459,0 v 80.25 80.26 h 196 196 v -80.5 -80.49 l -93.48,-0.26 -93.48,-0.25 93.48,-118.98 93.48,-118.98 v -80.27 -80.27 h -195.5 -195.5 v 80.49 80.5 l 82.5,0.25 82.51,0.26 -83.01,118.99 z m -1069,-556.49 v 6.05 6.05 l 23.952,-0.3 c 14.232,-0.18 24.348,-0.71 24.929,-1.3 2.235,-2.29 2.333,-6.29 0.205,-8.41 -1.997,-2 -3.094,-2.09 -25.586,-2.09 z m 4.955,-112.78 c -9.663,13.34 -4.395,31.49 11.089,38.2 4.19,1.82 11.825,2 17.149,0.4 5.011,-1.5 12.275,-7.88 15.029,-13.19 2.95,-5.7 2.95,-15.56 0,-21.26 -2.911,-5.62 -10.22,-11.83 -15.738,-13.37 -10.048,-2.82 -21.617,1.06 -27.529,9.22 z M 638.75,877.75 v 162 162 h 31.951 c 19.557,0 33.95,-0.43 37.105,-1.1 6.021,-1.29 11.969,-6.54 15.01,-13.24 1.824,-4.01 1.889,-9.09 1.912,-146.23 0.019,-125.392 -0.16,-142.677 -1.527,-147.28 -1.97,-6.635 -8.335,-13.495 -13.951,-15.038 -2.533,-0.696 -16.2,-1.101 -37.25,-1.105 z m 51,31.916 v 129.544 129.54 h -8.004 -8.003 l 0.253,-129.25 0.254,-129.25 7.75,-0.292 z m 64,-31.916 v 162 l -10e-4,162 h 30 30 v -15.5 -15.5 h -12.5 -12.5 v -72.5 -72.5 h 12.5 12.5 v -16 -16.001 h -12.011 -12.011 l 0.262,-41.75 0.261,-41.75 11.75,-0.281 11.75,-0.282 V 893.718 877.75 h -30 z"
     id="path4"
     style="clip-rule:evenodd;fill:#272018;fill-opacity:1;fill-rule:evenodd"
     inkscape:connector-curvature="0"
     sodipodi:nodetypes="cccccccccscccccccccccccccccccccccccccccccccscccsccccccccccccccccccccccccccccccccccccccccccccccccccccscccccccccccsccccccccccccccccccccccccccccccccccccccccc" />
  <path
     fill-rule="evenodd"
     clip-rule="evenodd"
     d="M60.7498 1835.06C53.5596 1834.3 14.9727 1827.61 7.74978 1825.86L-0.5 1824V1040V256L3.49917 254.823C11.5998 252.653 38.0091 247.77 52.2498 245.809C116.566 236.952 201.751 236.949 266.25 245.802C336.724 255.476 394.218 277.643 436.75 311.541C502.44 363.896 540.666 452.169 554.195 582.749C560.561 644.197 560.907 670.03 560.557 1058.85L560.25 1400.46L556.464 1404.85C540.467 1423.43 532.778 1434.66 523.777 1452.57C511.243 1477.52 503.191 1506.76 499.77 1539.75C499.22 1545.05 498.777 1581.73 498.767 1622.8L498.748 1696.35L491.271 1707.8L483.794 1719.25L483.771 1542.18C483.745 1339.38 484.674 1358.49 474.341 1348.16C464.416 1338.23 469.264 1338.75 386.248 1338.75C325.471 1338.75 314.365 1338.97 309.986 1340.27C303.592 1342.17 294.838 1349.9 291.571 1356.53L289.248 1361.25L288.661 1538.25C288.015 1732.72 288.323 1723.55 281.982 1737.04C276.224 1749.29 268.33 1753.67 250.57 1754.5C226.857 1755.61 203.033 1748.63 179.91 1733.79C175.416 1730.91 169.645 1727.92 167.085 1727.15C160.938 1725.3 151.377 1725.37 144.82 1727.32C135.23 1730.17 131.251 1735.29 97.6697 1788C78.1953 1818.57 66.7086 1835.69 65.7483 1835.59C65.126 1835.52 63.6938 1835.37 62.2014 1835.21L60.7498 1835.06ZM264.681 1455.75C259.326 1513.71 233.704 1542.24 181.25 1548.65C170.742 1549.93 146.434 1549.89 135.953 1548.58C116.431 1546.13 96.8257 1538.54 85.5295 1529.05C69.6168 1515.69 59.8059 1495.87 54.9475 1467.25C53.3694 1457.95 53.2498 1428.12 53.2498 1043.75C53.2498 651.084 53.3401 629.68 55.0422 618.946C60.4073 585.111 71.6334 562.251 89.4514 548.879C106.831 535.836 129.025 529.755 159.25 529.755C204.851 529.755 234.273 544.146 249.853 574.07C257.795 589.325 262.6 607.969 264.719 631.75C266.17 648.044 266.133 1440.02 264.681 1455.75ZM378.75 1239.75V1258.75V1277.75H365.75H352.75V1226.71V1175.66L392.5 1175.96L432.25 1176.25L437.836 1178.88C444.597 1182.05 450.34 1187.57 452.912 1193.39C457.735 1204.29 455.86 1219.99 448.78 1227.97L445.03 1232.2L448.387 1238.3C453.024 1246.74 455.75 1258.07 455.75 1268.92V1277.76H442.883H430.017L429.541 1267.86C428.964 1255.88 426.476 1249.95 419.974 1245.05C413.938 1240.51 410.221 1239.77 393.5 1239.76L378.75 1239.75ZM440.708 1139.37C433.792 1146.25 427.654 1150.02 418.894 1152.76C414.493 1154.14 409.881 1154.73 403.894 1154.68C388.401 1154.57 378.464 1150.46 367.752 1139.75C357.227 1129.22 352.75 1118.48 352.75 1103.75C352.75 1089.3 357.177 1078.44 367.25 1068.21C377.858 1057.44 389.082 1052.75 404.278 1052.75C418.085 1052.75 428.672 1056.99 438.959 1066.65C446.598 1073.81 451.624 1081.89 453.916 1090.67C458.564 1108.47 453.684 1126.47 440.708 1139.37ZM378.75 993.75V1012.75V1031.75H365.75H352.75V980.75V929.75H365.75H378.75V948.75V967.75H404.25H429.75V948.75V929.75H442.75H455.75V980.75V1031.75H442.75H429.75V1012.75V993.75H404.25H378.75ZM455.75 882.75V895.75V908.75H404.25H352.75V857.75V806.75H365.75H378.75V844.75V882.75H417.25H455.75ZM455.75 759.75V772.75V785.75H404.25H352.75V734.75V683.75H404.25H455.75V696.75V709.75H417.25H378.75V715.75V721.75H393.25H407.75V734.75V747.75H393.25H378.75V753.75V759.75H417.25H455.75ZM378.75 599.279V631.014V662.75H365.75H352.75V611.75V560.75H364.987H377.224L390.75 574.25L404.277 587.751L417.749 574.25L431.222 560.75H443.486H455.75V611.75V662.75H442.75H429.75V631.005V599.259L417.009 612L404.269 624.741L391.509 612.01L378.75 599.279Z"
     fill="#1B140F"
     id="path6"
     style="fill:#272018;fill-opacity:1" />
</svg>
