<svg width="1780" height="640" viewBox="0 0 1780 640" fill="none" xmlns="http://www.w3.org/2000/svg">
<path d="M317 440H1780V640H317V440Z" fill="#272018"/>
<path fill-rule="evenodd" clip-rule="evenodd" d="M1780 445H317V440H1780V445Z" fill="#DAA520"/>
<path d="M928.488 507.44H944.04C952.808 507.44 959.208 509.328 963.24 513.104C967.336 516.816 969.384 521.936 969.384 528.464C969.384 536.016 967.176 541.808 962.76 545.84C958.344 549.872 951.784 551.888 943.08 551.888H939.336V578H928.488V507.44ZM943.368 542.384C949 542.384 952.936 541.136 955.176 538.64C957.416 536.144 958.536 533.136 958.536 529.616C958.536 525.84 957.448 522.768 955.272 520.4C953.096 518.032 949.448 516.848 944.328 516.848H939.336V542.384H943.368Z" fill="#E3DEDB"/>
<path d="M1014.63 578L1000.42 551.312C997.474 551.44 994.85 551.504 992.546 551.504H989.858V578H979.394V507.44H995.426C1003.55 507.44 1010.24 509.136 1015.49 512.528C1020.74 515.856 1023.36 521.296 1023.36 528.848C1023.36 533.584 1022.24 537.68 1020 541.136C1017.83 544.528 1014.56 547.152 1010.21 549.008L1027.01 578H1014.63ZM996.674 542.768C1002.95 542.768 1007.23 541.424 1009.54 538.736C1011.91 535.984 1013.09 532.72 1013.09 528.944C1013.09 520.56 1007.49 516.368 996.29 516.368H989.858V542.768H996.674Z" fill="#E3DEDB"/>
<path d="M1070.44 578.96C1064.04 578.96 1058.12 577.488 1052.68 574.544C1047.3 571.536 1043.01 567.28 1039.81 561.776C1036.61 556.272 1035.01 549.872 1035.01 542.576C1035.01 535.216 1036.61 528.816 1039.81 523.376C1043.01 517.872 1047.3 513.648 1052.68 510.704C1058.12 507.76 1064.04 506.288 1070.44 506.288C1076.84 506.288 1082.72 507.76 1088.1 510.704C1093.54 513.648 1097.86 517.872 1101.06 523.376C1104.26 528.816 1105.86 535.216 1105.86 542.576C1105.86 549.872 1104.26 556.272 1101.06 561.776C1097.86 567.28 1093.54 571.536 1088.1 574.544C1082.72 577.488 1076.84 578.96 1070.44 578.96ZM1070.44 569.264C1074.85 569.264 1078.88 568.24 1082.53 566.192C1086.18 564.08 1089.06 561.04 1091.17 557.072C1093.35 553.04 1094.44 548.24 1094.44 542.672C1094.44 537.04 1093.35 532.24 1091.17 528.272C1089.06 524.24 1086.18 521.2 1082.53 519.152C1078.95 517.104 1074.92 516.08 1070.44 516.08C1065.96 516.08 1061.89 517.104 1058.24 519.152C1054.6 521.2 1051.72 524.24 1049.6 528.272C1047.49 532.24 1046.44 537.04 1046.44 542.672C1046.44 548.24 1047.52 553.04 1049.7 557.072C1051.88 561.04 1054.79 564.08 1058.44 566.192C1062.15 568.24 1066.15 569.264 1070.44 569.264Z" fill="#E3DEDB"/>
<path d="M1150.79 578.96C1143.82 578.96 1137.58 577.36 1132.07 574.16C1126.57 570.96 1122.25 566.576 1119.11 561.008C1116.04 555.376 1114.5 549.072 1114.5 542.096C1114.5 535.312 1116.07 529.2 1119.21 523.76C1122.34 518.32 1126.7 514.064 1132.26 510.992C1137.83 507.92 1144.1 506.384 1151.08 506.384C1154.85 506.384 1158.25 506.736 1161.26 507.44C1164.33 508.08 1166.82 508.848 1168.74 509.744C1170.66 510.576 1171.97 511.312 1172.68 511.952L1168.45 520.976C1164.49 517.776 1158.63 516.176 1150.89 516.176C1145.77 516.176 1141.32 517.296 1137.54 519.536C1133.77 521.776 1130.89 524.816 1128.9 528.656C1126.92 532.496 1125.93 536.784 1125.93 541.52C1125.93 546.896 1126.98 551.696 1129.09 555.92C1131.27 560.144 1134.25 563.44 1138.02 565.808C1141.86 568.112 1146.18 569.264 1150.98 569.264C1153.99 569.264 1156.87 568.912 1159.62 568.208C1162.38 567.44 1164.71 566.256 1166.63 564.656V551.024H1152.14V541.136H1177.29V568.784C1174.98 571.664 1171.49 574.096 1166.82 576.08C1162.22 578 1156.87 578.96 1150.79 578.96Z" fill="#E3DEDB"/>
<path d="M1224.53 578L1210.32 551.312C1207.38 551.44 1204.76 551.504 1202.45 551.504H1199.76V578H1189.3V507.44H1205.33C1213.46 507.44 1220.15 509.136 1225.4 512.528C1230.64 515.856 1233.27 521.296 1233.27 528.848C1233.27 533.584 1232.15 537.68 1229.91 541.136C1227.73 544.528 1224.47 547.152 1220.12 549.008L1236.92 578H1224.53ZM1206.58 542.768C1212.85 542.768 1217.14 541.424 1219.44 538.736C1221.81 535.984 1223 532.72 1223 528.944C1223 520.56 1217.4 516.368 1206.2 516.368H1199.76V542.768H1206.58Z" fill="#E3DEDB"/>
<path d="M1273.72 507.344L1307.7 578H1295.32L1289.27 564.176H1256.92L1250.87 578H1238.87L1272.66 507.344H1273.72ZM1268.92 537.392L1261.24 554.48H1285.05L1277.46 537.488L1273.33 527.792H1273.14L1268.92 537.392Z" fill="#E3DEDB"/>
<path d="M1331.76 545.072L1327.34 535.088L1325.32 545.072L1318.8 578H1308.14L1322.73 507.44H1323.89L1343.28 545.552L1349.04 558.32L1354.8 545.552L1373.81 507.44H1374.86L1390.03 578H1379.47L1372.36 545.072L1370.25 535.088L1366.41 545.072L1349.32 578H1348.75L1331.76 545.072Z" fill="#E3DEDB"/>
<path d="M1425.31 507.344L1459.3 578H1446.91L1440.86 564.176H1408.51L1402.46 578H1390.46L1424.26 507.344H1425.31ZM1420.51 537.392L1412.83 554.48H1436.64L1429.06 537.488L1424.93 527.792H1424.74L1420.51 537.392Z" fill="#E3DEDB"/>
<path d="M1513.47 573.2C1512.25 574.288 1510.04 575.408 1506.84 576.56C1503.71 577.648 1500.41 578.32 1496.96 578.576C1497.08 579.408 1497.72 580.56 1498.88 582.032C1499.9 583.376 1500.7 584.656 1501.28 585.872C1501.85 587.152 1502.14 588.688 1502.14 590.48C1502.14 594.896 1500.83 598.128 1498.2 600.176C1495.64 602.288 1492.12 603.344 1487.64 603.344C1486.11 603.344 1484.38 603.184 1482.46 602.864L1483.32 593.936C1484.22 594.064 1485.12 594.128 1486.01 594.128C1490.56 594.128 1492.83 592.688 1492.83 589.808C1492.83 589.232 1492.7 588.624 1492.44 587.984C1492.19 587.408 1491.93 586.928 1491.68 586.544C1491.48 586.224 1491.36 586 1491.29 585.872C1490.72 585.04 1490.24 584.24 1489.85 583.472C1489.53 582.704 1489.37 581.84 1489.37 580.88C1489.37 579.6 1489.53 578.8 1489.85 578.48C1483.45 577.776 1477.92 575.76 1473.24 572.432C1468.57 569.04 1465.02 564.752 1462.59 559.568C1460.16 554.32 1458.94 548.656 1458.94 542.576C1458.94 535.6 1460.44 529.36 1463.45 523.856C1466.52 518.352 1470.81 514.064 1476.32 510.992C1481.82 507.856 1488.06 506.288 1495.04 506.288C1498.17 506.288 1501.08 506.64 1503.77 507.344C1506.52 507.984 1508.8 508.752 1510.59 509.648C1512.38 510.48 1513.56 511.184 1514.14 511.76L1509.44 521.36C1505.53 517.904 1500.44 516.176 1494.17 516.176C1489.76 516.176 1485.76 517.264 1482.17 519.44C1478.59 521.616 1475.77 524.72 1473.72 528.752C1471.68 532.784 1470.65 537.456 1470.65 542.768C1470.65 547.632 1471.55 552.048 1473.34 556.016C1475.2 559.984 1477.88 563.12 1481.4 565.424C1484.92 567.728 1489.12 568.88 1493.98 568.88C1499.61 568.88 1505.05 567.28 1510.3 564.08L1513.47 573.2Z" fill="#E3DEDB"/>
<path d="M1550.47 507.344L1584.45 578H1572.07L1566.02 564.176H1533.67L1527.62 578H1515.62L1549.41 507.344H1550.47ZM1545.67 537.392L1537.99 554.48H1561.8L1554.21 537.488L1550.08 527.792H1549.89L1545.67 537.392ZM1556.52 500.624C1554.66 500.624 1553.12 500.336 1551.91 499.76C1550.76 499.184 1549.54 498.352 1548.26 497.264C1547.04 496.304 1546.02 495.632 1545.19 495.248C1544.42 494.8 1543.46 494.576 1542.31 494.576C1541.16 494.576 1540.26 494.96 1539.62 495.728C1539.04 496.432 1538.28 497.872 1537.32 500.048L1533.19 493.616C1533.7 491.44 1534.98 489.552 1537.03 487.952C1539.08 486.352 1541.32 485.552 1543.75 485.552C1545.92 485.552 1547.62 485.872 1548.84 486.512C1550.12 487.152 1551.43 488.08 1552.77 489.296C1553.73 490.128 1554.53 490.736 1555.17 491.12C1555.81 491.504 1556.61 491.696 1557.57 491.696C1560.39 491.696 1562.37 490.224 1563.52 487.28L1567.17 492.848C1566.85 495.152 1565.64 497.04 1563.52 498.512C1561.41 499.92 1559.08 500.624 1556.52 500.624Z" fill="#E3DEDB"/>
<path d="M1619.9 578.96C1613.5 578.96 1607.58 577.488 1602.14 574.544C1596.77 571.536 1592.48 567.28 1589.28 561.776C1586.08 556.272 1584.48 549.872 1584.48 542.576C1584.48 535.216 1586.08 528.816 1589.28 523.376C1592.48 517.872 1596.77 513.648 1602.14 510.704C1607.58 507.76 1613.5 506.288 1619.9 506.288C1626.3 506.288 1632.19 507.76 1637.57 510.704C1643.01 513.648 1647.33 517.872 1650.53 523.376C1653.73 528.816 1655.33 535.216 1655.33 542.576C1655.33 549.872 1653.73 556.272 1650.53 561.776C1647.33 567.28 1643.01 571.536 1637.57 574.544C1632.19 577.488 1626.3 578.96 1619.9 578.96ZM1619.9 569.264C1624.32 569.264 1628.35 568.24 1632 566.192C1635.65 564.08 1638.53 561.04 1640.64 557.072C1642.82 553.04 1643.9 548.24 1643.9 542.672C1643.9 537.04 1642.82 532.24 1640.64 528.272C1638.53 524.24 1635.65 521.2 1632 519.152C1628.42 517.104 1624.38 516.08 1619.9 516.08C1615.42 516.08 1611.36 517.104 1607.71 519.152C1604.06 521.2 1601.18 524.24 1599.07 528.272C1596.96 532.24 1595.9 537.04 1595.9 542.672C1595.9 548.24 1596.99 553.04 1599.17 557.072C1601.34 561.04 1604.26 564.08 1607.9 566.192C1611.62 568.24 1615.62 569.264 1619.9 569.264Z" fill="#E3DEDB"/>
<path d="M640 320C640 496.731 496.731 640 320 640C143.269 640 0 496.731 0 320C0 143.269 143.269 0 320 0C496.731 0 640 143.269 640 320Z" fill="#272018"/>
<path d="M616.739 440H23.2606C23.9381 441.674 24.6294 443.341 25.3343 445H614.666C615.37 443.341 616.062 441.674 616.739 440Z" fill="#DAA520"/>
<path d="M88.3019 177.635H61.0419V163.425H131.947V177.635H104.397V270H88.3019V177.635Z" fill="#DAA520"/>
<path d="M147.437 163.425H194.127V177.635H163.532V207.07H188.182V221.57H163.532V255.645H198.912V270H147.437V163.425Z" fill="#DAA520"/>
<path d="M254.273 163.28L305.603 270H286.898L277.763 249.12H228.898L219.763 270H201.638L252.678 163.28H254.273ZM247.023 208.665L235.423 234.475H271.383L259.928 208.81L253.693 194.165H253.403L247.023 208.665Z" fill="#DAA520"/>
<path d="M326.193 177.635H298.933V163.425H369.838V177.635H342.288V270H326.193V177.635Z" fill="#DAA520"/>
<path d="M438.688 270L417.228 229.69C412.781 229.883 408.818 229.98 405.338 229.98H401.278V270H385.473V163.425H409.688C421.964 163.425 432.066 165.987 439.993 171.11C447.919 176.137 451.883 184.353 451.883 195.76C451.883 202.913 450.191 209.1 446.808 214.32C443.521 219.443 438.591 223.407 432.018 226.21L457.393 270H438.688ZM411.573 216.785C421.046 216.785 427.523 214.755 431.003 210.695C434.579 206.538 436.368 201.608 436.368 195.905C436.368 183.242 427.909 176.91 410.993 176.91H401.278V216.785H411.573Z" fill="#DAA520"/>
<path d="M522.984 271.45C513.317 271.45 504.375 269.227 496.159 264.78C488.039 260.237 481.562 253.808 476.729 245.495C471.895 237.182 469.479 227.515 469.479 216.495C469.479 205.378 471.895 195.712 476.729 187.495C481.562 179.182 488.039 172.802 496.159 168.355C504.375 163.908 513.317 161.685 522.984 161.685C532.65 161.685 541.544 163.908 549.664 168.355C557.88 172.802 564.405 179.182 569.239 187.495C574.072 195.712 576.489 205.378 576.489 216.495C576.489 227.515 574.072 237.182 569.239 245.495C564.405 253.808 557.88 260.237 549.664 264.78C541.544 269.227 532.65 271.45 522.984 271.45ZM522.984 256.805C529.654 256.805 535.744 255.258 541.254 252.165C546.764 248.975 551.114 244.383 554.304 238.39C557.59 232.3 559.234 225.05 559.234 216.64C559.234 208.133 557.59 200.883 554.304 194.89C551.114 188.8 546.764 184.208 541.254 181.115C535.84 178.022 529.75 176.475 522.984 176.475C516.217 176.475 510.079 178.022 504.569 181.115C499.059 184.208 494.709 188.8 491.519 194.89C488.329 200.883 486.734 208.133 486.734 216.64C486.734 225.05 488.377 232.3 491.664 238.39C494.95 244.383 499.349 248.975 504.859 252.165C510.465 255.258 516.507 256.805 522.984 256.805Z" fill="#DAA520"/>
<path d="M31.4102 308.125H54.7852C67.9518 308.125 76.7018 310.333 81.0352 314.75C85.3685 319.167 87.5352 324.5 87.5352 330.75C87.5352 334.917 86.6185 338.875 84.7852 342.625C82.9518 346.292 80.0352 349.042 76.0352 350.875C81.9518 352.375 86.2852 355 89.0352 358.75C91.8685 362.5 93.2852 366.917 93.2852 372C93.2852 377.333 92.4518 382 90.7852 386C89.1185 390 85.6602 393.333 80.4102 396C75.1602 398.667 67.5768 400 57.6602 400H31.4102V308.125ZM57.0352 347.125C62.9518 347.125 67.1602 345.708 69.6602 342.875C72.1602 339.958 73.4102 336.292 73.4102 331.875C73.4102 323.958 67.7435 320 56.4102 320H45.1602V347.125H57.0352ZM59.5352 388.25C67.1185 388.25 72.2018 386.75 74.7852 383.75C77.4518 380.667 78.7852 376.792 78.7852 372.125C78.7852 367.708 77.2852 364.292 74.2852 361.875C71.2852 359.458 66.7435 358.25 60.6602 358.25H45.1602V388.25H59.5352Z" fill="#DAA520"/>
<path d="M141.282 401.25C129.782 401.25 121.449 397.792 116.282 390.875C111.116 383.958 108.532 373.917 108.532 360.75V308.125H122.532V361C122.532 370.75 123.991 377.75 126.907 382C129.824 386.167 134.616 388.25 141.282 388.25C147.949 388.25 152.699 386.208 155.532 382.125C158.449 377.958 159.907 370.917 159.907 361V308.125H174.032V360.75C174.032 373.833 171.282 383.875 165.782 390.875C160.366 397.792 152.199 401.25 141.282 401.25Z" fill="#DAA520"/>
<path d="M238.296 400L219.796 365.25C215.963 365.417 212.546 365.5 209.546 365.5H206.046V400H192.421V308.125H213.296C223.879 308.125 232.588 310.333 239.421 314.75C246.254 319.083 249.671 326.167 249.671 336C249.671 342.167 248.213 347.5 245.296 352C242.463 356.417 238.213 359.833 232.546 362.25L254.421 400H238.296ZM214.921 354.125C223.088 354.125 228.671 352.375 231.671 348.875C234.754 345.292 236.296 341.042 236.296 336.125C236.296 325.208 229.004 319.75 214.421 319.75H206.046V354.125H214.921Z" fill="#DAA520"/>
<path d="M268.715 308.125H282.84V387.5H309.215V400H268.715V308.125Z" fill="#DAA520"/>
<path d="M322.545 308.125H362.795V320.375H336.42V345.75H357.67V358.25H336.42V387.625H366.92V400H322.545V308.125Z" fill="#DAA520"/>
<path d="M402.145 401.25C397.145 401.25 392.186 400.375 387.27 398.625C382.353 396.875 378.811 394.917 376.645 392.75L383.27 380.875C385.02 382.458 387.728 384.125 391.395 385.875C395.145 387.542 398.728 388.375 402.145 388.375C406.561 388.375 410.145 387.333 412.895 385.25C415.728 383.167 417.145 380.292 417.145 376.625C417.145 373.792 416.395 371.333 414.895 369.25C413.395 367.167 411.561 365.458 409.395 364.125C407.228 362.708 404.145 361 400.145 359C395.395 356.667 392.145 354.917 390.395 353.75C382.311 348.333 378.27 340.833 378.27 331.25C378.27 323.333 380.895 317.292 386.145 313.125C391.395 308.875 398.02 306.75 406.02 306.75C414.603 306.75 421.895 309.208 427.895 314.125L421.27 325.5C419.686 323.833 417.436 322.417 414.52 321.25C411.686 320 408.645 319.375 405.395 319.375C401.228 319.375 397.936 320.333 395.52 322.25C393.186 324.083 392.02 326.833 392.02 330.5C392.02 333.083 392.77 335.417 394.27 337.5C395.77 339.5 397.645 341.25 399.895 342.75C402.228 344.25 405.353 346.083 409.27 348.25C413.02 350.333 415.895 352 417.895 353.25C419.895 354.417 421.77 355.833 423.52 357.5C425.936 359.667 427.895 362.25 429.395 365.25C430.895 368.25 431.645 371.542 431.645 375.125C431.645 380.708 430.353 385.458 427.77 389.375C425.27 393.292 421.77 396.25 417.27 398.25C412.853 400.25 407.811 401.25 402.145 401.25Z" fill="#DAA520"/>
<path d="M488.443 400.875C478.943 400.875 470.693 398.75 463.693 394.5C456.777 390.25 451.485 384.583 447.818 377.5C444.152 370.333 442.318 362.458 442.318 353.875C442.318 344.792 444.277 336.667 448.193 329.5C452.193 322.333 457.777 316.75 464.943 312.75C472.11 308.667 480.235 306.625 489.318 306.625C493.402 306.625 497.193 307.083 500.693 308C504.277 308.833 507.235 309.833 509.568 311C511.902 312.083 513.443 313 514.193 313.75L508.068 326.25C502.985 321.75 496.36 319.5 488.193 319.5C482.443 319.5 477.235 320.917 472.568 323.75C467.902 326.583 464.235 330.625 461.568 335.875C458.902 341.125 457.568 347.208 457.568 354.125C457.568 360.458 458.735 366.208 461.068 371.375C463.485 376.542 466.985 380.625 471.568 383.625C476.152 386.625 481.61 388.125 487.943 388.125C495.277 388.125 502.36 386.042 509.193 381.875L513.318 393.75C511.485 395.417 508.11 397.042 503.193 398.625C498.36 400.125 493.443 400.875 488.443 400.875Z" fill="#DAA520"/>
<path d="M566.336 401.25C558.003 401.25 550.294 399.333 543.211 395.5C536.211 391.583 530.628 386.042 526.461 378.875C522.294 371.708 520.211 363.375 520.211 353.875C520.211 344.292 522.294 335.958 526.461 328.875C530.628 321.708 536.211 316.208 543.211 312.375C550.294 308.542 558.003 306.625 566.336 306.625C574.669 306.625 582.336 308.542 589.336 312.375C596.419 316.208 602.044 321.708 606.211 328.875C610.378 335.958 612.461 344.292 612.461 353.875C612.461 363.375 610.378 371.708 606.211 378.875C602.044 386.042 596.419 391.583 589.336 395.5C582.336 399.333 574.669 401.25 566.336 401.25ZM566.336 388.625C572.086 388.625 577.336 387.292 582.086 384.625C586.836 381.875 590.586 377.917 593.336 372.75C596.169 367.5 597.586 361.25 597.586 354C597.586 346.667 596.169 340.417 593.336 335.25C590.586 330 586.836 326.042 582.086 323.375C577.419 320.708 572.169 319.375 566.336 319.375C560.503 319.375 555.211 320.708 550.461 323.375C545.711 326.042 541.961 330 539.211 335.25C536.461 340.417 535.086 346.667 535.086 354C535.086 361.25 536.503 367.5 539.336 372.75C542.169 377.917 545.961 381.875 550.711 384.625C555.544 387.292 560.753 388.625 566.336 388.625Z" fill="#DAA520"/>
</svg>
