<svg width="1782" height="640" viewBox="0 0 1782 640" fill="none" xmlns="http://www.w3.org/2000/svg">
<path d="M0 440H1484V640H0V440Z" fill="#E3DEDB"/>
<path fill-rule="evenodd" clip-rule="evenodd" d="M1484 445H0V440H1484V445Z" fill="#973123"/>
<path d="M139.688 522.234V549.141H153.141C154.984 549.141 156.719 548.797 158.344 548.109C159.969 547.391 161.391 546.422 162.609 545.203C163.828 543.984 164.781 542.562 165.469 540.938C166.188 539.281 166.547 537.531 166.547 535.688C166.547 533.844 166.188 532.109 165.469 530.484C164.781 528.828 163.828 527.391 162.609 526.172C161.391 524.953 159.969 524 158.344 523.312C156.719 522.594 154.984 522.234 153.141 522.234H139.688ZM139.688 576H126.234V508.781H153.141C155.609 508.781 157.984 509.109 160.266 509.766C162.547 510.391 164.672 511.297 166.641 512.484C168.641 513.641 170.453 515.047 172.078 516.703C173.734 518.328 175.141 520.141 176.297 522.141C177.484 524.141 178.391 526.281 179.016 528.562C179.672 530.844 180 533.219 180 535.688C180 539.375 179.297 542.859 177.891 546.141C176.484 549.391 174.562 552.234 172.125 554.672C169.688 557.109 166.828 559.031 163.547 560.438C160.297 561.844 156.828 562.547 153.141 562.547H139.688V576Z" fill="#272018"/>
<path d="M201.375 522.234V549.141H214.828C216.672 549.141 218.406 548.797 220.031 548.109C221.656 547.391 223.078 546.422 224.297 545.203C225.516 543.984 226.469 542.562 227.156 540.938C227.875 539.281 228.234 537.531 228.234 535.688C228.234 533.844 227.875 532.109 227.156 530.484C226.469 528.828 225.516 527.391 224.297 526.172C223.078 524.953 221.656 524 220.031 523.312C218.406 522.594 216.672 522.234 214.828 522.234H201.375ZM201.375 576H187.922V508.781H214.828C217.297 508.781 219.672 509.109 221.953 509.766C224.234 510.391 226.359 511.297 228.328 512.484C230.328 513.641 232.141 515.047 233.766 516.703C235.422 518.328 236.828 520.141 237.984 522.141C239.172 524.141 240.078 526.281 240.703 528.562C241.359 530.844 241.688 533.219 241.688 535.688C241.688 538 241.391 540.25 240.797 542.438C240.234 544.625 239.406 546.703 238.312 548.672C237.25 550.641 235.938 552.453 234.375 554.109C232.812 555.766 231.062 557.203 229.125 558.422L236.578 576H222.281L216.422 562.453L201.375 562.547V576Z" fill="#272018"/>
<path d="M316.406 542.672C316.406 545.859 315.984 548.938 315.141 551.906C314.328 554.844 313.172 557.609 311.672 560.203C310.172 562.766 308.359 565.109 306.234 567.234C304.109 569.359 301.766 571.188 299.203 572.719C296.641 574.219 293.875 575.375 290.906 576.188C287.938 577.031 284.859 577.453 281.672 577.453C278.484 577.453 275.406 577.031 272.438 576.188C269.5 575.375 266.734 574.219 264.141 572.719C261.578 571.188 259.234 569.359 257.109 567.234C254.984 565.109 253.156 562.766 251.625 560.203C250.125 557.609 248.953 554.844 248.109 551.906C247.297 548.938 246.891 545.859 246.891 542.672C246.891 539.484 247.297 536.406 248.109 533.438C248.953 530.469 250.125 527.703 251.625 525.141C253.156 522.578 254.984 520.234 257.109 518.109C259.234 515.984 261.578 514.172 264.141 512.672C266.734 511.172 269.5 510.016 272.438 509.203C275.406 508.359 278.484 507.938 281.672 507.938C284.859 507.938 287.938 508.359 290.906 509.203C293.875 510.016 296.641 511.172 299.203 512.672C301.766 514.172 304.109 515.984 306.234 518.109C308.359 520.234 310.172 522.578 311.672 525.141C313.172 527.703 314.328 530.469 315.141 533.438C315.984 536.406 316.406 539.484 316.406 542.672ZM303.047 542.672C303.047 539.734 302.484 536.969 301.359 534.375C300.234 531.75 298.703 529.484 296.766 527.578C294.859 525.641 292.594 524.109 289.969 522.984C287.375 521.859 284.609 521.297 281.672 521.297C278.703 521.297 275.922 521.859 273.328 522.984C270.734 524.109 268.469 525.641 266.531 527.578C264.594 529.484 263.062 531.75 261.938 534.375C260.812 536.969 260.25 539.734 260.25 542.672C260.25 545.609 260.812 548.375 261.938 550.969C263.062 553.531 264.594 555.781 266.531 557.719C268.469 559.656 270.734 561.188 273.328 562.312C275.922 563.438 278.703 564 281.672 564C284.609 564 287.375 563.438 289.969 562.312C292.594 561.188 294.859 559.656 296.766 557.719C298.703 555.781 300.234 553.531 301.359 550.969C302.484 548.375 303.047 545.609 303.047 542.672Z" fill="#272018"/>
<path d="M378.75 569.203C375.625 571.859 372.141 573.906 368.297 575.344C364.453 576.75 360.453 577.453 356.297 577.453C353.109 577.453 350.031 577.031 347.062 576.188C344.125 575.375 341.375 574.219 338.812 572.719C336.25 571.188 333.906 569.375 331.781 567.281C329.656 565.156 327.844 562.812 326.344 560.25C324.844 557.656 323.672 554.875 322.828 551.906C322.016 548.938 321.609 545.859 321.609 542.672C321.609 539.484 322.016 536.422 322.828 533.484C323.672 530.547 324.844 527.797 326.344 525.234C327.844 522.641 329.656 520.297 331.781 518.203C333.906 516.078 336.25 514.266 338.812 512.766C341.375 511.266 344.125 510.109 347.062 509.297C350.031 508.453 353.109 508.031 356.297 508.031C360.453 508.031 364.453 508.75 368.297 510.188C372.141 511.594 375.625 513.625 378.75 516.281L371.719 528C369.688 525.938 367.344 524.328 364.688 523.172C362.031 521.984 359.234 521.391 356.297 521.391C353.359 521.391 350.594 521.953 348 523.078C345.438 524.203 343.188 525.734 341.25 527.672C339.312 529.578 337.781 531.828 336.656 534.422C335.531 536.984 334.969 539.734 334.969 542.672C334.969 545.641 335.531 548.422 336.656 551.016C337.781 553.609 339.312 555.875 341.25 557.812C343.188 559.75 345.438 561.281 348 562.406C350.594 563.531 353.359 564.094 356.297 564.094C357.984 564.094 359.625 563.891 361.219 563.484C362.812 563.078 364.328 562.516 365.766 561.797V542.672H378.75V569.203Z" fill="#272018"/>
<path d="M402.562 522.234V549.141H416.016C417.859 549.141 419.594 548.797 421.219 548.109C422.844 547.391 424.266 546.422 425.484 545.203C426.703 543.984 427.656 542.562 428.344 540.938C429.062 539.281 429.422 537.531 429.422 535.688C429.422 533.844 429.062 532.109 428.344 530.484C427.656 528.828 426.703 527.391 425.484 526.172C424.266 524.953 422.844 524 421.219 523.312C419.594 522.594 417.859 522.234 416.016 522.234H402.562ZM402.562 576H389.109V508.781H416.016C418.484 508.781 420.859 509.109 423.141 509.766C425.422 510.391 427.547 511.297 429.516 512.484C431.516 513.641 433.328 515.047 434.953 516.703C436.609 518.328 438.016 520.141 439.172 522.141C440.359 524.141 441.266 526.281 441.891 528.562C442.547 530.844 442.875 533.219 442.875 535.688C442.875 538 442.578 540.25 441.984 542.438C441.422 544.625 440.594 546.703 439.5 548.672C438.438 550.641 437.125 552.453 435.562 554.109C434 555.766 432.25 557.203 430.312 558.422L437.766 576H423.469L417.609 562.453L402.562 562.547V576Z" fill="#272018"/>
<path d="M491.297 549.141V535.688C491.297 533.844 490.938 532.109 490.219 530.484C489.531 528.828 488.578 527.391 487.359 526.172C486.141 524.953 484.703 524 483.047 523.312C481.422 522.594 479.688 522.234 477.844 522.234C476 522.234 474.25 522.594 472.594 523.312C470.969 524 469.547 524.953 468.328 526.172C467.109 527.391 466.141 528.828 465.422 530.484C464.734 532.109 464.391 533.844 464.391 535.688V549.141H491.297ZM504.75 576H491.297V562.547H464.391V576H450.984V535.688C450.984 531.969 451.688 528.484 453.094 525.234C454.5 521.953 456.406 519.094 458.812 516.656C461.25 514.219 464.094 512.297 467.344 510.891C470.625 509.484 474.125 508.781 477.844 508.781C481.562 508.781 485.047 509.484 488.297 510.891C491.578 512.297 494.438 514.219 496.875 516.656C499.312 519.094 501.234 521.953 502.641 525.234C504.047 528.484 504.75 531.969 504.75 535.688V576Z" fill="#272018"/>
<path d="M583.125 576H569.719V528C569.719 527.062 569.531 526.188 569.156 525.375C568.812 524.562 568.328 523.859 567.703 523.266C567.109 522.641 566.406 522.156 565.594 521.812C564.781 521.469 563.906 521.297 562.969 521.297C562.031 521.297 561.156 521.469 560.344 521.812C559.531 522.156 558.812 522.641 558.188 523.266C557.594 523.859 557.125 524.562 556.781 525.375C556.438 526.188 556.266 527.062 556.266 528V576H542.812V528C542.812 527.062 542.641 526.188 542.297 525.375C541.953 524.562 541.469 523.859 540.844 523.266C540.25 522.641 539.547 522.156 538.734 521.812C537.922 521.469 537.047 521.297 536.109 521.297C535.172 521.297 534.297 521.469 533.484 521.812C532.672 522.156 531.953 522.641 531.328 523.266C530.734 523.859 530.266 524.562 529.922 525.375C529.578 526.188 529.406 527.062 529.406 528V576H515.953V528C515.953 525.219 516.469 522.609 517.5 520.172C518.562 517.703 520 515.562 521.812 513.75C523.656 511.906 525.797 510.469 528.234 509.438C530.703 508.375 533.328 507.844 536.109 507.844C538.609 507.844 541.016 508.297 543.328 509.203C545.641 510.078 547.719 511.359 549.562 513.047C551.406 511.359 553.469 510.078 555.75 509.203C558.062 508.297 560.469 507.844 562.969 507.844C565.75 507.844 568.359 508.375 570.797 509.438C573.266 510.469 575.406 511.906 577.219 513.75C579.062 515.562 580.5 517.703 581.531 520.172C582.594 522.609 583.125 525.219 583.125 528V576Z" fill="#272018"/>
<path d="M634.734 549.141V535.688C634.734 533.844 634.375 532.109 633.656 530.484C632.969 528.828 632.016 527.391 630.797 526.172C629.578 524.953 628.141 524 626.484 523.312C624.859 522.594 623.125 522.234 621.281 522.234C619.438 522.234 617.688 522.594 616.031 523.312C614.406 524 612.984 524.953 611.766 526.172C610.547 527.391 609.578 528.828 608.859 530.484C608.172 532.109 607.828 533.844 607.828 535.688V549.141H634.734ZM648.188 576H634.734V562.547H607.828V576H594.422V535.688C594.422 531.969 595.125 528.484 596.531 525.234C597.938 521.953 599.844 519.094 602.25 516.656C604.688 514.219 607.531 512.297 610.781 510.891C614.062 509.484 617.562 508.781 621.281 508.781C625 508.781 628.484 509.484 631.734 510.891C635.016 512.297 637.875 514.219 640.312 516.656C642.75 519.094 644.672 521.953 646.078 525.234C647.484 528.484 648.188 531.969 648.188 535.688V576Z" fill="#272018"/>
<path d="M683.484 597.609C682.359 597.547 681.281 597.312 680.25 596.906C679.219 596.5 678.297 596.062 677.484 595.594C676.547 595.031 675.672 594.422 674.859 593.766L677.438 586.734C678.156 587.266 678.875 587.719 679.594 588.094C680.219 588.438 680.859 588.75 681.516 589.031C682.172 589.312 682.766 589.453 683.297 589.453C683.984 589.453 684.547 589.234 684.984 588.797C685.453 588.359 685.688 587.781 685.688 587.062C685.688 586.188 685.344 585.562 684.656 585.188C684 584.812 683.281 584.625 682.5 584.625C681.5 584.625 680.609 584.891 679.828 585.422L683.016 576.469C679.172 575.594 675.609 574.109 672.328 572.016C669.047 569.922 666.203 567.391 663.797 564.422C661.422 561.422 659.562 558.078 658.219 554.391C656.875 550.703 656.203 546.797 656.203 542.672C656.203 539.484 656.609 536.406 657.422 533.438C658.266 530.469 659.438 527.703 660.938 525.141C662.469 522.547 664.297 520.188 666.422 518.062C668.547 515.938 670.891 514.125 673.453 512.625C676.047 511.094 678.812 509.922 681.75 509.109C684.719 508.266 687.797 507.844 690.984 507.844C695.141 507.844 699.156 508.562 703.031 510C706.906 511.406 710.406 513.469 713.531 516.188L706.406 527.906C704.438 525.781 702.109 524.156 699.422 523.031C696.734 521.875 693.922 521.297 690.984 521.297C688.016 521.297 685.234 521.859 682.641 522.984C680.047 524.109 677.781 525.641 675.844 527.578C673.906 529.484 672.375 531.75 671.25 534.375C670.125 536.969 669.562 539.734 669.562 542.672C669.562 545.609 670.125 548.375 671.25 550.969C672.375 553.531 673.906 555.781 675.844 557.719C677.781 559.656 680.047 561.188 682.641 562.312C685.234 563.438 688.016 564 690.984 564C693.922 564 696.734 563.438 699.422 562.312C702.109 561.156 704.438 559.516 706.406 557.391L713.531 569.109C710.406 571.797 706.906 573.859 703.031 575.297C699.156 576.734 695.141 577.453 690.984 577.453C690.547 577.453 690.125 577.438 689.719 577.406C689.312 577.375 688.891 577.359 688.453 577.359L687.703 579.656C688.672 579.781 689.594 580.062 690.469 580.5C691.344 580.938 692.094 581.5 692.719 582.188C693.375 582.906 693.891 583.734 694.266 584.672C694.641 585.641 694.828 586.688 694.828 587.812C694.828 589.375 694.562 590.766 694.031 591.984C693.5 593.203 692.766 594.219 691.828 595.031C690.891 595.875 689.766 596.516 688.453 596.953C687.172 597.391 685.766 597.609 684.234 597.609H683.484Z" fill="#272018"/>
<path d="M760.922 549.141V535.688C760.922 533.844 760.562 532.109 759.844 530.484C759.156 528.828 758.203 527.391 756.984 526.172C755.766 524.953 754.328 524 752.672 523.312C751.047 522.594 749.312 522.234 747.469 522.234C745.625 522.234 743.875 522.594 742.219 523.312C740.594 524 739.172 524.953 737.953 526.172C736.734 527.391 735.766 528.828 735.047 530.484C734.359 532.109 734.016 533.844 734.016 535.688V549.141H760.922ZM774.375 576H760.922V562.547H734.016V576H720.609V535.688C720.609 531.969 721.312 528.484 722.719 525.234C724.125 521.953 726.031 519.094 728.438 516.656C730.875 514.219 733.719 512.297 736.969 510.891C740.25 509.484 743.75 508.781 747.469 508.781C751.188 508.781 754.672 509.484 757.922 510.891C761.203 512.297 764.062 514.219 766.5 516.656C768.938 519.094 770.859 521.953 772.266 525.234C773.672 528.484 774.375 531.969 774.375 535.688V576ZM761.859 489.328C762.047 489.891 762.219 490.5 762.375 491.156C762.5 491.719 762.609 492.359 762.703 493.078C762.828 493.797 762.891 494.562 762.891 495.375C762.891 496.938 762.656 498.344 762.188 499.594C761.719 500.812 761.078 501.859 760.266 502.734C759.484 503.578 758.531 504.234 757.406 504.703C756.312 505.141 755.141 505.359 753.891 505.359C752.484 505.359 751.281 505.062 750.281 504.469C749.281 503.844 748.391 503.172 747.609 502.453C746.859 501.703 746.141 501.031 745.453 500.438C744.797 499.812 744.094 499.5 743.344 499.5C742.75 499.5 742.266 499.766 741.891 500.297C741.516 500.828 741.328 501.359 741.328 501.891C741.328 502.516 741.422 503.125 741.609 503.719C741.828 504.281 742.109 504.828 742.453 505.359L733.641 505.734C733.328 505.172 733.047 504.516 732.797 503.766C732.578 503.141 732.391 502.391 732.234 501.516C732.078 500.609 732 499.609 732 498.516C732 495.734 732.844 493.562 734.531 492C736.219 490.406 738.516 489.609 741.422 489.609C742.641 489.609 743.672 489.766 744.516 490.078C745.391 490.359 746.141 490.719 746.766 491.156C747.422 491.594 747.984 492.078 748.453 492.609C748.922 493.109 749.344 493.578 749.719 494.016C750.125 494.453 750.516 494.828 750.891 495.141C751.297 495.422 751.75 495.562 752.25 495.562C752.781 495.562 753.188 495.328 753.469 494.859C753.75 494.391 753.891 493.797 753.891 493.078C753.891 492.234 753.641 491.391 753.141 490.547L761.859 489.328Z" fill="#272018"/>
<path d="M851.906 542.672C851.906 545.859 851.484 548.938 850.641 551.906C849.828 554.844 848.672 557.609 847.172 560.203C845.672 562.766 843.859 565.109 841.734 567.234C839.609 569.359 837.266 571.188 834.703 572.719C832.141 574.219 829.375 575.375 826.406 576.188C823.438 577.031 820.359 577.453 817.172 577.453C813.984 577.453 810.906 577.031 807.938 576.188C805 575.375 802.234 574.219 799.641 572.719C797.078 571.188 794.734 569.359 792.609 567.234C790.484 565.109 788.656 562.766 787.125 560.203C785.625 557.609 784.453 554.844 783.609 551.906C782.797 548.938 782.391 545.859 782.391 542.672C782.391 539.484 782.797 536.406 783.609 533.438C784.453 530.469 785.625 527.703 787.125 525.141C788.656 522.578 790.484 520.234 792.609 518.109C794.734 515.984 797.078 514.172 799.641 512.672C802.234 511.172 805 510.016 807.938 509.203C810.906 508.359 813.984 507.938 817.172 507.938C820.359 507.938 823.438 508.359 826.406 509.203C829.375 510.016 832.141 511.172 834.703 512.672C837.266 514.172 839.609 515.984 841.734 518.109C843.859 520.234 845.672 522.578 847.172 525.141C848.672 527.703 849.828 530.469 850.641 533.438C851.484 536.406 851.906 539.484 851.906 542.672ZM838.547 542.672C838.547 539.734 837.984 536.969 836.859 534.375C835.734 531.75 834.203 529.484 832.266 527.578C830.359 525.641 828.094 524.109 825.469 522.984C822.875 521.859 820.109 521.297 817.172 521.297C814.203 521.297 811.422 521.859 808.828 522.984C806.234 524.109 803.969 525.641 802.031 527.578C800.094 529.484 798.562 531.75 797.438 534.375C796.312 536.969 795.75 539.734 795.75 542.672C795.75 545.609 796.312 548.375 797.438 550.969C798.562 553.531 800.094 555.781 802.031 557.719C803.969 559.656 806.234 561.188 808.828 562.312C811.422 563.438 814.203 564 817.172 564C820.109 564 822.875 563.438 825.469 562.312C828.094 561.188 830.359 559.656 832.266 557.719C834.203 555.781 835.734 553.531 836.859 550.969C837.984 548.375 838.547 545.609 838.547 542.672Z" fill="#272018"/>
<path d="M1782 320C1782 496.731 1638.73 640 1462 640C1285.27 640 1142 496.731 1142 320C1142 143.269 1285.27 0 1462 0C1638.73 0 1782 143.269 1782 320Z" fill="#E3DEDB"/>
<path d="M1165.26 440C1212.73 557.273 1327.7 640 1462 640C1551.38 640 1632.21 603.353 1690.27 544.265C1632.52 601.003 1553.35 636 1466 636C1333.24 636 1219.36 555.15 1170.91 440H1165.26Z" fill="#973123"/>
<path d="M1534.86 107.566C1534.86 114.207 1533.98 120.62 1532.23 126.805C1530.53 132.924 1528.12 138.686 1525 144.09C1521.88 149.428 1518.1 154.311 1513.67 158.738C1509.24 163.165 1504.36 166.974 1499.02 170.164C1493.68 173.289 1487.92 175.698 1481.74 177.391C1475.55 179.148 1469.14 180.027 1462.5 180.027C1455.86 180.027 1449.45 179.148 1443.26 177.391C1437.14 175.698 1431.38 173.289 1425.98 170.164C1420.64 166.974 1415.76 163.165 1411.33 158.738C1406.9 154.311 1403.09 149.428 1399.9 144.09C1396.78 138.686 1394.34 132.924 1392.58 126.805C1390.89 120.62 1390.04 114.207 1390.04 107.566C1390.04 100.926 1390.89 94.513 1392.58 88.3281C1394.34 82.1432 1396.78 76.3815 1399.9 71.043C1403.09 65.7044 1406.9 60.8216 1411.33 56.3945C1415.76 51.9674 1420.64 48.1914 1425.98 45.0664C1431.38 41.9414 1437.14 39.5326 1443.26 37.8398C1449.45 36.082 1455.86 35.2031 1462.5 35.2031C1469.14 35.2031 1475.55 36.082 1481.74 37.8398C1487.92 39.5326 1493.68 41.9414 1499.02 45.0664C1504.36 48.1914 1509.24 51.9674 1513.67 56.3945C1518.1 60.8216 1521.88 65.7044 1525 71.043C1528.12 76.3815 1530.53 82.1432 1532.23 88.3281C1533.98 94.513 1534.86 100.926 1534.86 107.566ZM1507.03 107.566C1507.03 101.447 1505.86 95.6849 1503.52 90.2812C1501.17 84.8125 1497.98 80.0924 1493.95 76.1211C1489.97 72.0846 1485.25 68.8945 1479.79 66.5508C1474.38 64.207 1468.62 63.0352 1462.5 63.0352C1456.32 63.0352 1450.52 64.207 1445.12 66.5508C1439.71 68.8945 1434.99 72.0846 1430.96 76.1211C1426.92 80.0924 1423.73 84.8125 1421.39 90.2812C1419.04 95.6849 1417.87 101.447 1417.87 107.566C1417.87 113.686 1419.04 119.448 1421.39 124.852C1423.73 130.19 1426.92 134.878 1430.96 138.914C1434.99 142.951 1439.71 146.141 1445.12 148.484C1450.52 150.828 1456.32 152 1462.5 152C1468.62 152 1474.38 150.828 1479.79 148.484C1485.25 146.141 1489.97 142.951 1493.95 138.914C1497.98 134.878 1501.17 130.19 1503.52 124.852C1505.86 119.448 1507.03 113.686 1507.03 107.566Z" fill="#272018"/>
<path d="M1284.34 308H1264.93V238.5C1264.93 237.143 1264.66 235.876 1264.11 234.699C1263.62 233.523 1262.91 232.505 1262.01 231.645C1261.15 230.74 1260.13 230.039 1258.95 229.541C1257.78 229.043 1256.51 228.794 1255.15 228.794C1253.8 228.794 1252.53 229.043 1251.35 229.541C1250.18 230.039 1249.14 230.74 1248.23 231.645C1247.37 232.505 1246.69 233.523 1246.19 234.699C1245.7 235.876 1245.45 237.143 1245.45 238.5V308H1225.97V238.5C1225.97 237.143 1225.72 235.876 1225.22 234.699C1224.72 233.523 1224.02 232.505 1223.12 231.645C1222.26 230.74 1221.24 230.039 1220.06 229.541C1218.89 229.043 1217.62 228.794 1216.26 228.794C1214.91 228.794 1213.64 229.043 1212.46 229.541C1211.29 230.039 1210.25 230.74 1209.34 231.645C1208.48 232.505 1207.8 233.523 1207.3 234.699C1206.81 235.876 1206.56 237.143 1206.56 238.5V308H1187.08V238.5C1187.08 234.473 1187.83 230.695 1189.32 227.166C1190.86 223.591 1192.94 220.492 1195.56 217.867C1198.23 215.198 1201.33 213.116 1204.86 211.623C1208.44 210.085 1212.24 209.315 1216.26 209.315C1219.88 209.315 1223.37 209.972 1226.72 211.284C1230.06 212.551 1233.07 214.406 1235.74 216.849C1238.41 214.406 1241.4 212.551 1244.7 211.284C1248.05 209.972 1251.53 209.315 1255.15 209.315C1259.18 209.315 1262.96 210.085 1266.49 211.623C1270.06 213.116 1273.16 215.198 1275.79 217.867C1278.46 220.492 1280.54 223.591 1282.03 227.166C1283.57 230.695 1284.34 234.473 1284.34 238.5V308Z" fill="#272018"/>
<path d="M1368.5 308H1301.78V210.673H1368.5V230.152H1321.26V249.631H1353.23V269.11H1321.26V288.521H1368.5V308Z" fill="#272018"/>
<path d="M1450.28 308H1382.14V210.673H1401.62V288.521H1450.28V308Z" fill="#272018"/>
<path d="M1479.94 308H1460.46V210.673H1479.94V249.631H1518.83V210.673H1538.31V308H1518.83V269.11H1479.94V308Z" fill="#272018"/>
<path d="M1651.79 259.744C1651.79 264.359 1651.18 268.816 1649.96 273.114C1648.78 277.368 1647.11 281.372 1644.94 285.127C1642.77 288.838 1640.14 292.231 1637.06 295.308C1633.99 298.385 1630.59 301.032 1626.88 303.249C1623.17 305.421 1619.17 307.095 1614.87 308.271C1610.57 309.493 1606.12 310.104 1601.5 310.104C1596.88 310.104 1592.43 309.493 1588.13 308.271C1583.88 307.095 1579.87 305.421 1576.12 303.249C1572.41 301.032 1569.01 298.385 1565.94 295.308C1562.86 292.231 1560.21 288.838 1557.99 285.127C1555.82 281.372 1554.13 277.368 1552.9 273.114C1551.73 268.816 1551.14 264.359 1551.14 259.744C1551.14 255.128 1551.73 250.672 1552.9 246.373C1554.13 242.075 1555.82 238.07 1557.99 234.36C1560.21 230.65 1562.86 227.256 1565.94 224.179C1569.01 221.102 1572.41 218.478 1576.12 216.306C1579.87 214.134 1583.88 212.46 1588.13 211.284C1592.43 210.062 1596.88 209.451 1601.5 209.451C1606.12 209.451 1610.57 210.062 1614.87 211.284C1619.17 212.46 1623.17 214.134 1626.88 216.306C1630.59 218.478 1633.99 221.102 1637.06 224.179C1640.14 227.256 1642.77 230.65 1644.94 234.36C1647.11 238.07 1648.78 242.075 1649.96 246.373C1651.18 250.672 1651.79 255.128 1651.79 259.744ZM1632.45 259.744C1632.45 255.49 1631.63 251.486 1630.01 247.73C1628.38 243.93 1626.16 240.649 1623.35 237.889C1620.59 235.084 1617.31 232.867 1613.51 231.238C1609.76 229.609 1605.75 228.794 1601.5 228.794C1597.2 228.794 1593.17 229.609 1589.42 231.238C1585.66 232.867 1582.38 235.084 1579.58 237.889C1576.77 240.649 1574.56 243.93 1572.93 247.73C1571.3 251.486 1570.48 255.49 1570.48 259.744C1570.48 263.997 1571.3 268.001 1572.93 271.757C1574.56 275.467 1576.77 278.725 1579.58 281.53C1582.38 284.336 1585.66 286.553 1589.42 288.182C1593.17 289.811 1597.2 290.625 1601.5 290.625C1605.75 290.625 1609.76 289.811 1613.51 288.182C1617.31 286.553 1620.59 284.336 1623.35 281.53C1626.16 278.725 1628.38 275.467 1630.01 271.757C1631.63 268.001 1632.45 263.997 1632.45 259.744Z" fill="#272018"/>
<path d="M1684.1 230.152V269.11H1703.58C1706.25 269.11 1708.76 268.612 1711.11 267.617C1713.46 266.576 1715.52 265.173 1717.29 263.409C1719.05 261.644 1720.43 259.585 1721.43 257.232C1722.47 254.834 1722.99 252.3 1722.99 249.631C1722.99 246.961 1722.47 244.45 1721.43 242.097C1720.43 239.699 1719.05 237.618 1717.29 235.853C1715.52 234.088 1713.46 232.708 1711.11 231.713C1708.76 230.672 1706.25 230.152 1703.58 230.152H1684.1ZM1684.1 308H1664.62V210.673H1703.58C1707.15 210.673 1710.59 211.148 1713.89 212.098C1717.2 213.003 1720.27 214.315 1723.12 216.035C1726.02 217.709 1728.65 219.745 1731 222.143C1733.4 224.496 1735.43 227.12 1737.11 230.016C1738.83 232.912 1740.14 236.011 1741.04 239.314C1741.99 242.618 1742.47 246.056 1742.47 249.631C1742.47 252.979 1742.04 256.237 1741.18 259.404C1740.36 262.572 1739.17 265.581 1737.58 268.431C1736.04 271.282 1734.14 273.906 1731.88 276.304C1729.62 278.702 1727.08 280.784 1724.28 282.548L1735.07 308H1714.37L1705.89 288.385L1684.1 288.521V308Z" fill="#272018"/>
<path d="M1204.69 419H1186.61V328.675H1249.85V346.752H1204.69V364.83H1231.77V382.908H1204.69V419Z" fill="#973123"/>
<path d="M1321.09 419H1259.17V328.675H1321.09V346.752H1277.25V364.83H1306.92V382.908H1277.25V400.922H1321.09V419Z" fill="#973123"/>
<path d="M1327.45 355.76C1327.45 352.022 1328.17 348.516 1329.59 345.241C1331.02 341.965 1332.95 339.11 1335.39 336.674C1337.87 334.197 1340.74 332.244 1344.02 330.816C1347.29 329.389 1350.8 328.675 1354.54 328.675H1395.98V346.752H1354.54C1353.28 346.752 1352.1 346.983 1351.01 347.445C1349.92 347.907 1348.95 348.558 1348.11 349.398C1347.32 350.196 1346.69 351.141 1346.22 352.232C1345.76 353.324 1345.53 354.5 1345.53 355.76C1345.53 357.02 1345.76 358.216 1346.22 359.35C1346.69 360.442 1347.32 361.408 1348.11 362.248C1348.95 363.045 1349.92 363.675 1351.01 364.137C1352.1 364.599 1353.28 364.83 1354.54 364.83H1372.62C1376.35 364.83 1379.86 365.544 1383.13 366.972C1386.45 368.357 1389.33 370.289 1391.76 372.767C1394.24 375.202 1396.17 378.079 1397.56 381.396C1398.99 384.671 1399.7 388.178 1399.7 391.915C1399.7 395.652 1398.99 399.159 1397.56 402.434C1396.17 405.709 1394.24 408.586 1391.76 411.063C1389.33 413.499 1386.45 415.431 1383.13 416.858C1379.86 418.286 1376.35 419 1372.62 419H1332.49V400.922H1372.62C1373.88 400.922 1375.05 400.691 1376.14 400.229C1377.23 399.768 1378.18 399.138 1378.98 398.34C1379.82 397.5 1380.47 396.534 1380.93 395.442C1381.39 394.351 1381.62 393.175 1381.62 391.915C1381.62 390.655 1381.39 389.479 1380.93 388.388C1380.47 387.296 1379.82 386.351 1378.98 385.553C1378.18 384.713 1377.23 384.062 1376.14 383.601C1375.05 383.139 1373.88 382.908 1372.62 382.908H1354.54C1350.8 382.908 1347.29 382.194 1344.02 380.766C1340.74 379.338 1337.87 377.407 1335.39 374.971C1332.95 372.494 1331.02 369.617 1329.59 366.342C1328.17 363.024 1327.45 359.497 1327.45 355.76Z" fill="#973123"/>
<path d="M1448.26 419H1430.25V346.752H1403.1V328.675H1475.35V346.752H1448.26V419Z" fill="#973123"/>
<path d="M1503 419H1484.92V328.675H1503V419Z" fill="#973123"/>
<path d="M1588.85 328.675L1559.19 419H1541.11L1511.57 328.675H1532.1L1550.12 388.955L1568.19 328.675H1588.85Z" fill="#973123"/>
<path d="M1648.69 382.908V364.83C1648.69 362.353 1648.21 360.022 1647.24 357.838C1646.32 355.613 1645.04 353.681 1643.4 352.043C1641.76 350.406 1639.83 349.125 1637.61 348.201C1635.42 347.235 1633.09 346.752 1630.62 346.752C1628.14 346.752 1625.79 347.235 1623.56 348.201C1621.38 349.125 1619.47 350.406 1617.83 352.043C1616.19 353.681 1614.89 355.613 1613.92 357.838C1613 360.022 1612.54 362.353 1612.54 364.83V382.908H1648.69ZM1666.77 419H1648.69V400.922H1612.54V419H1594.52V364.83C1594.52 359.833 1595.47 355.151 1597.36 350.784C1599.25 346.375 1601.81 342.532 1605.04 339.257C1608.32 335.981 1612.14 333.399 1616.51 331.509C1620.92 329.62 1625.62 328.675 1630.62 328.675C1635.61 328.675 1640.29 329.62 1644.66 331.509C1649.07 333.399 1652.91 335.981 1656.19 339.257C1659.46 342.532 1662.05 346.375 1663.94 350.784C1665.83 355.151 1666.77 359.833 1666.77 364.83V419Z" fill="#973123"/>
<path d="M1745.7 419H1682.46V328.675H1700.53V400.922H1745.7V419Z" fill="#973123"/>
<path d="M1461.88 469H1459.95L1456.85 464.693C1456.08 465.377 1455.27 466.021 1454.41 466.627C1453.57 467.213 1452.69 467.73 1451.75 468.18C1450.81 468.609 1449.84 468.951 1448.85 469.205C1447.87 469.459 1446.88 469.586 1445.86 469.586C1443.65 469.586 1441.57 469.176 1439.62 468.355C1437.69 467.516 1435.99 466.363 1434.52 464.898C1433.08 463.414 1431.93 461.666 1431.09 459.654C1430.25 457.623 1429.83 455.416 1429.83 453.033C1429.83 450.67 1430.25 448.473 1431.09 446.441C1431.93 444.41 1433.08 442.652 1434.52 441.168C1435.99 439.684 1437.69 438.521 1439.62 437.682C1441.57 436.842 1443.65 436.422 1445.86 436.422C1446.56 436.422 1447.29 436.48 1448.03 436.598C1448.79 436.715 1449.52 436.91 1450.22 437.184C1450.95 437.438 1451.62 437.779 1452.25 438.209C1452.87 438.639 1453.4 439.166 1453.83 439.791V425.143H1461.88V469ZM1453.83 453.033C1453.83 451.939 1453.61 450.885 1453.18 449.869C1452.77 448.834 1452.21 447.926 1451.48 447.145C1450.76 446.344 1449.91 445.709 1448.94 445.24C1447.98 444.752 1446.95 444.508 1445.86 444.508C1444.77 444.508 1443.73 444.703 1442.75 445.094C1441.8 445.484 1440.96 446.051 1440.23 446.793C1439.53 447.516 1438.97 448.404 1438.56 449.459C1438.15 450.514 1437.95 451.705 1437.95 453.033C1437.95 454.186 1438.15 455.279 1438.56 456.314C1438.97 457.35 1439.53 458.258 1440.23 459.039C1440.96 459.82 1441.8 460.436 1442.75 460.885C1443.73 461.334 1444.77 461.559 1445.86 461.559C1446.95 461.559 1447.98 461.324 1448.94 460.855C1449.91 460.367 1450.76 459.732 1451.48 458.951C1452.21 458.15 1452.77 457.242 1453.18 456.227C1453.61 455.191 1453.83 454.127 1453.83 453.033Z" fill="#272018"/>
<path d="M1480.49 461.324C1480.8 461.422 1481.11 461.49 1481.43 461.529C1481.74 461.549 1482.05 461.559 1482.36 461.559C1483.14 461.559 1483.9 461.451 1484.62 461.236C1485.34 461.021 1486.02 460.719 1486.64 460.328C1487.29 459.918 1487.85 459.43 1488.34 458.863C1488.85 458.277 1489.26 457.633 1489.57 456.93L1495.43 462.818C1494.69 463.873 1493.83 464.82 1492.85 465.66C1491.89 466.5 1490.85 467.213 1489.72 467.799C1488.6 468.385 1487.42 468.824 1486.17 469.117C1484.94 469.43 1483.67 469.586 1482.36 469.586C1480.16 469.586 1478.08 469.176 1476.12 468.355C1474.19 467.535 1472.49 466.393 1471.03 464.928C1469.58 463.463 1468.44 461.725 1467.6 459.713C1466.76 457.682 1466.34 455.455 1466.34 453.033C1466.34 450.553 1466.76 448.287 1467.6 446.236C1468.44 444.186 1469.58 442.438 1471.03 440.992C1472.49 439.547 1474.19 438.424 1476.12 437.623C1478.08 436.822 1480.16 436.422 1482.36 436.422C1483.67 436.422 1484.95 436.578 1486.2 436.891C1487.45 437.203 1488.63 437.652 1489.75 438.238C1490.88 438.824 1491.93 439.547 1492.91 440.406C1493.89 441.246 1494.75 442.193 1495.49 443.248L1480.49 461.324ZM1484.59 444.83C1484.22 444.693 1483.85 444.605 1483.48 444.566C1483.12 444.527 1482.75 444.508 1482.36 444.508C1481.27 444.508 1480.23 444.713 1479.26 445.123C1478.3 445.514 1477.46 446.08 1476.74 446.822C1476.04 447.564 1475.48 448.463 1475.07 449.518C1474.66 450.553 1474.45 451.725 1474.45 453.033C1474.45 453.326 1474.46 453.658 1474.48 454.029C1474.52 454.4 1474.57 454.781 1474.63 455.172C1474.71 455.543 1474.79 455.904 1474.89 456.256C1474.99 456.607 1475.12 456.92 1475.27 457.193L1484.59 444.83Z" fill="#272018"/>
<path d="M1363.48 532.908C1363.48 537.905 1362.54 542.608 1360.65 547.017C1358.76 551.384 1356.18 555.206 1352.9 558.481C1349.67 561.714 1345.85 564.276 1341.44 566.166C1337.07 568.055 1332.39 569 1327.39 569C1324.37 569 1321.34 568.622 1318.32 567.866V548.466C1319.66 549.264 1321.11 549.873 1322.67 550.292C1324.22 550.712 1325.79 550.922 1327.39 550.922C1329.87 550.922 1332.2 550.46 1334.38 549.537C1336.61 548.571 1338.54 547.269 1340.18 545.631C1341.81 543.994 1343.1 542.083 1344.02 539.899C1344.98 537.716 1345.47 535.385 1345.47 532.908V478.675H1363.48V532.908Z" fill="#272018"/>
<path d="M1431.76 532.908V514.83C1431.76 512.353 1431.28 510.022 1430.31 507.838C1429.39 505.613 1428.11 503.681 1426.47 502.043C1424.83 500.406 1422.9 499.125 1420.68 498.201C1418.49 497.235 1416.16 496.752 1413.68 496.752C1411.21 496.752 1408.85 497.235 1406.63 498.201C1404.45 499.125 1402.54 500.406 1400.9 502.043C1399.26 503.681 1397.96 505.613 1396.99 507.838C1396.07 510.022 1395.61 512.353 1395.61 514.83V532.908H1431.76ZM1449.84 569H1431.76V550.922H1395.61V569H1377.59V514.83C1377.59 509.833 1378.54 505.151 1380.43 500.784C1382.32 496.375 1384.88 492.532 1388.11 489.257C1391.39 485.981 1395.21 483.399 1399.57 481.509C1403.98 479.62 1408.69 478.675 1413.68 478.675C1418.68 478.675 1423.36 479.62 1427.73 481.509C1432.14 483.399 1435.98 485.981 1439.26 489.257C1442.53 492.532 1445.12 496.375 1447 500.784C1448.89 505.151 1449.84 509.833 1449.84 514.83V569Z" fill="#272018"/>
<path d="M1529.39 569H1459.48L1498.03 496.752H1459.48V478.675H1529.39L1490.97 550.922H1529.39V569Z" fill="#272018"/>
<path d="M1605.11 569H1535.19L1573.74 496.752H1535.19V478.675H1605.11L1566.68 550.922H1605.11V569Z" fill="#272018"/>
</svg>
