<svg width="265" height="265" viewBox="0 0 265 265" fill="none" xmlns="http://www.w3.org/2000/svg">
<path d="M0 75C0 33.5787 33.5786 0 75 0H190C231.421 0 265 33.5786 265 75V190C265 231.421 231.421 265 190 265H75C33.5787 265 0 231.421 0 190V75Z" fill="#973123"/>
<path d="M24 74C24 46.3858 46.3858 24 74 24H191C218.614 24 241 46.3858 241 74V191C241 218.614 218.614 241 191 241H74C46.3858 241 24 218.614 24 191V74Z" fill="#D7B882"/>
<path d="M201 132.5C201 170.332 170.332 201 132.5 201C94.6685 201 64 170.332 64 132.5C64 94.6685 94.6685 64 132.5 64C170.332 64 201 94.6685 201 132.5Z" fill="#973123"/>
<path d="M177 132.5C177 157.077 157.077 177 132.5 177C107.923 177 88 157.077 88 132.5C88 107.923 107.923 88 132.5 88C157.077 88 177 107.923 177 132.5Z" fill="#D7B882"/>
<path d="M221 62.5C221 71.6127 213.613 79 204.5 79C195.387 79 188 71.6127 188 62.5C188 53.3873 195.387 46 204.5 46C213.613 46 221 53.3873 221 62.5Z" fill="#973123"/>
</svg>
