<svg width="1920" height="491" viewBox="0 0 1920 491" fill="none" xmlns="http://www.w3.org/2000/svg">
<path d="M777 298.5C772.806 295.84 771.754 290.909 773.5 283.5C775.644 274.403 782.141 266.306 791 262C796.925 259.12 799.934 258.351 811.5 258C821.411 257.699 822.182 257.688 824.5 256.5C825.851 255.807 827.151 254.549 828 253.5C829.324 251.865 829.5 251.459 829.5 249C829.5 246.364 829.569 245.661 827.5 243C821 236 819.196 231.803 817 225C815.888 221.554 815.203 219.317 815 214C814.644 204.677 816.134 198.736 820 191C826.208 178.579 838.661 169.356 852.5 166.5C856.457 165.683 859.449 165.501 877 165.5C905.681 165.5 913.258 166.417 926.5 171.5C934.52 174.578 940.59 176.058 949.98 176.094C955.841 176.116 958.886 175.655 962 175C976.189 172.016 986 166 990.5 157.5C992 154 992.05 153.561 992 149C991.886 138.498 987.005 129.998 978 125C946.661 107.608 896.02 108.707 866.578 127.699C861.575 130.926 856.721 133.59 851 135.5C846.2 137.102 833.648 139.5 832 139.5C831.585 139.5 837.635 137.482 840.5 136C849.385 131.403 853.777 127.51 863.5 118C868.021 112.661 874.675 107.717 877 106C909.191 82.2234 958.427 77.1915 997.98 93C1000.73 94.0991 1006.63 96.2024 1011.09 97.6736C1020.3 100.711 1029.18 104.193 1036.48 107.628C1039.23 108.922 1044.12 110.65 1047.5 112C1058.91 116.559 1074.31 125.493 1079.84 130.36C1082.63 132.818 1084.87 137.059 1084.64 139.456C1084.49 140.998 1084.25 141.356 1082.5 141.5C1080.89 141.633 1080.01 141.513 1078.5 140C1077.52 139.02 1077.11 138 1077 138C1076.53 138 1076.79 140.038 1077.45 141.315C1078.39 143.149 1079.39 143.93 1081.36 144.372L1083.29 144.437L1080.29 147.937C1075.03 152.932 1063.52 157.467 1051.95 159.826C1041.35 161.988 1027.29 163.937 1014.77 163.677C1008.33 163.787 1003.39 163.837 1003.29 163.937C1002.98 164.246 1007.22 164.379 1015.29 164.937C1023.26 165.488 1030.89 165.089 1040.79 164.437L1046.29 163.937L1048.29 165.937C1052 170.207 1056.5 176.358 1058.29 179.937C1060.26 183.87 1062.62 189.673 1062.29 189.937C1062.18 190.021 1059.68 190.837 1057.48 191.603C1053.06 193.145 1045.99 196.55 1045.47 197.391C1045.29 197.688 1045.73 197.403 1046.79 196.937C1051.11 195.027 1060 191.902 1064.79 190.937C1076.22 188.632 1094.02 188.64 1105.29 190.937C1121.88 194.318 1136.48 202.7 1143.29 212.937C1147.19 218.811 1149.39 226.244 1148.29 229.937C1147.08 233.959 1143.29 236.937 1139.29 236.937C1134.89 236.937 1132.26 234.4 1129.79 228.437C1128.87 226.23 1127.53 223.25 1126.5 221.698C1122.44 215.577 1115.19 210.523 1107.73 208.614C1103.1 207.43 1091.07 207.806 1085.53 209.307C1079.2 211.02 1072.18 214.775 1066.23 219.627C1060.25 224.5 1053.27 228.249 1046.98 229.958C1041 231.937 1029 231.937 1023.48 229.958C1018.32 228.549 1010.13 225.084 1006 221.937C999.27 216.811 991.953 207.796 988 199.937C985.974 195.908 986.401 197.238 988.408 201.581C994.104 213.91 1004.45 224.524 1016 229.937C1023.48 232.937 1026.5 233.437 1036.23 234.074C1043.8 234.074 1044.92 233.69 1049 232.437C1051.44 231.686 1054.86 229.797 1055 229.937C1055.49 230.423 1049.6 237.389 1044.7 242.09C1031.39 254.867 1011.79 263.667 988.729 267.226C980.667 268.471 961.5 268.937 953.729 267.226C941.007 265.263 929.778 262.415 919.5 257.437C912.941 254.26 904.166 248.685 900 244.937L897 241.937L898.5 237.5C899.964 231.481 899.963 223.19 898.5 217.5C894.57 202.219 883 191.5 867.294 187.439C863.5 187 865.539 187.328 869 188.437C875.322 190.461 880.689 193.701 885.756 199.036C890.176 203.689 892.925 208.773 895 214.937C896.361 218.979 897.052 220.701 897.256 226.036C897.457 231.299 896.685 232.849 895.797 236.402C891.651 252.993 877.844 264.523 860.785 265.64C858.417 265.795 847.029 266.254 835.479 266.66C823.929 267.066 813.492 267.628 812.285 267.909C802.36 270.218 794.547 279.049 792.621 290.134C791.779 294.976 790.327 297.302 787.124 298.937C784.238 300.41 780.292 300.77 777.5 299L777 298.5ZM1039.5 132.5C1040.85 131.792 1042.5 130.475 1043.5 129C1044.5 126.5 1045.23 126.351 1045.23 123.557C1045 119.5 1044 117.5 1041.84 115.287C1037.5 111.5 1031.46 111.439 1027.16 115.872C1025.39 117.697 1024.71 118.859 1024.3 120.773C1023.63 123.873 1024.45 127.512 1026.37 130.034C1029.22 133.763 1035.14 134.782 1039.5 132.5Z" fill="#E3DEDB"/>
<path d="M1032.44 115.59C1034.47 115.05 1036.62 115.334 1038.43 116.382C1040.25 117.43 1041.57 119.155 1042.11 121.178C1042.66 123.201 1042.37 125.356 1041.33 127.17C1040.28 128.984 1038.56 130.308 1036.53 130.852C1034.51 131.395 1032.35 131.113 1030.54 130.068C1028.73 129.023 1027.4 127.3 1026.85 125.278C1026.31 123.256 1026.59 121.1 1027.63 119.284C1028.68 117.469 1030.4 116.142 1032.42 115.596" fill="#A0892C"/>
<path d="M961.02 125.254C955.013 130.102 948.753 134.774 942.084 138.627C921.701 146.943 899.959 153.062 877.753 152.251C865.73 152.251 853.674 151.963 841.745 150.344C836.559 147.843 829.83 146.717 825.511 143.623C828.033 140.803 833.293 141.88 836.911 140.535C847.066 138.446 857.336 135.843 866.491 130.885C872.052 126.996 878.253 123.913 884.539 121.443C900.524 116.351 917.366 115.111 934.02 114.254C945.345 117.212 957.29 118.372 968.02 123.254C965.687 123.92 963.354 124.587 961.02 125.254Z" fill="#C8BEB7"/>
<path d="M780.346 302.859C777.465 302.309 774.718 300.708 772.9 298.519C771.927 297.347 770.741 295.039 770.367 293.59C769.803 291.408 769.897 287.288 770.592 283.708C773.22 270.171 784.355 259.353 798.801 256.303C802.202 255.585 802.834 255.543 811.512 255.442C820.76 255.335 820.589 255.354 822.993 254.171C825.17 253.099 826.59 251.454 826.986 249.546C827.292 248.072 826.669 246.517 825.053 244.723C818.107 237.015 813.868 227.685 812.613 217.347C812.29 214.679 812.29 208.906 812.613 206.238C813.302 200.566 814.75 195.617 817.22 190.5C822.047 180.495 829.942 172.601 839.946 167.773C844.012 165.811 847.431 164.662 851.783 163.795C856.251 162.906 855.299 162.939 877.142 162.892C888.837 162.867 896.947 162.898 896.947 162.968C896.947 163.034 897.646 163.128 898.501 163.177C902.537 163.41 908.202 164.054 912.011 164.712C918.46 165.826 922.731 167.041 927.36 169.076C931.984 171.109 937.921 172.533 944.558 173.201C946.689 173.415 953.006 173.415 955.138 173.201C963.201 172.389 969.623 170.622 975.571 167.577C984.74 162.884 989.852 155.852 989.463 148.468C988.868 137.156 981.947 127.974 972.632 126.138C971.078 125.832 968.294 125.832 966.74 126.138C964.068 126.665 961.401 127.882 959.838 129.287C956.113 132.638 952.24 135.443 948.195 137.722C919.699 153.771 878.847 159.072 841.732 151.536C832.343 149.63 826.808 147.705 824.226 145.446C823.478 144.792 822.886 143.72 822.886 143.021C822.886 142.322 823.478 141.251 824.226 140.596C825.364 139.601 826.952 138.771 830.358 137.39C834.596 135.673 835.619 135.214 838.756 133.623C847.672 129.102 855.129 123.455 861.364 116.503C865.955 111.384 871.06 106.833 876.75 102.786C899.263 86.7738 930.162 78.9492 960.957 81.4621C975.647 82.6607 989.758 86.127 1002.68 91.7114C1003.99 92.2782 1006.26 93.0767 1008.63 93.8125C1020.46 97.4733 1030.27 101.326 1040.7 106.414C1042.34 107.212 1044.66 108.225 1045.86 108.665C1051.3 110.658 1056 112.666 1060.68 114.999C1064.54 116.928 1067.31 118.51 1070.46 120.595C1071.81 121.485 1073.52 122.551 1074.27 122.963C1077.75 124.889 1080.01 126.513 1082.26 128.708C1084.68 131.077 1086.15 133.354 1086.94 135.95C1087.26 137.007 1087.3 137.344 1087.3 139.053C1087.3 140.763 1087.26 141.1 1086.94 142.157C1085.22 147.814 1079.44 153.017 1070.4 157.041C1064.97 159.461 1058.58 161.433 1051.73 162.807L1049.2 163.314L1050.26 164.441C1055.05 169.5 1059.27 175.92 1062.01 182.327C1062.81 184.192 1064.38 188.685 1064.38 189.103C1064.38 189.468 1064.66 189.462 1066.37 189.057C1083.01 185.106 1101.95 186.11 1117.58 191.772C1126.66 195.058 1133.97 199.47 1139.81 205.174C1143.27 208.55 1145.75 211.883 1147.68 215.72C1149.6 219.558 1151 225.115 1150.82 228.257C1150.54 233.49 1147.03 237.803 1141.94 239.187C1141.08 239.421 1140.53 239.475 1138.97 239.475C1137.41 239.475 1136.85 239.421 1135.99 239.187C1132.63 238.273 1129.88 236.043 1128.33 232.965C1128.13 232.572 1127.71 231.501 1127.4 230.585C1126 226.524 1124.4 223.685 1121.7 220.529C1116.95 214.968 1109.73 211.297 1102.2 210.609C1098.07 210.232 1092.5 210.625 1088.12 211.604C1081.1 213.171 1073.66 216.794 1069.17 220.83C1066.38 223.339 1063.8 225.288 1060.94 227.036L1059.56 227.879L1058.5 229.655C1053.82 237.443 1047.64 244.178 1039.58 250.242C1021.81 263.622 996.797 271.305 971.008 271.305C942.724 271.305 915.796 262.165 897.724 246.43C896.771 245.6 895.953 244.907 895.907 244.889C895.861 244.871 895.484 245.526 895.069 246.344C889.015 258.294 877.037 266.696 863.752 268.312C861.116 268.633 861.017 268.637 838.756 269.322C827.081 269.682 817.113 270.011 816.604 270.053C808.403 270.744 801.334 275.614 797.569 283.166C796.285 285.742 795.447 288.563 795.055 291.623C794.804 293.587 794.476 294.688 793.685 296.225C792.915 297.723 791.813 299.112 790.586 300.131C789.412 301.106 787.103 302.292 785.657 302.663C784.288 303.014 781.664 303.111 780.346 302.859ZM784.863 300.07C786.772 299.578 788.93 298.222 790.095 296.782C791.433 295.129 792.096 293.495 792.405 291.097C793.06 285.994 794.972 281.293 798.004 277.323C798.861 276.201 801.084 273.934 802.255 272.988C806.172 269.823 810.836 267.913 815.744 267.465C816.581 267.388 826.849 267.031 838.562 266.67C858.775 266.048 861.405 265.937 863.752 265.612C867.78 265.053 872.103 263.7 875.787 261.846C887.221 256.092 894.955 245.095 896.618 232.225C897.433 225.923 896.454 218.609 893.946 212.255C889.284 200.442 879.259 191.302 867.256 187.92C865.081 187.307 865.156 187.331 865.235 187.253C865.272 187.216 866.032 187.341 866.925 187.529C880.528 190.401 891.638 199.768 896.724 212.652C897.964 215.793 898.787 218.988 899.279 222.571C899.609 224.977 899.609 230.348 899.279 232.754C898.87 235.731 897.977 239.474 897.214 241.409L896.956 242.065L898.175 243.186C910.245 254.282 927.636 262.557 946.674 266.262C962.975 269.434 979.041 269.434 995.343 266.262C1020.95 261.278 1042.83 248.273 1054.3 231.217L1054.97 230.209L1053.17 230.924C1045.38 234.007 1037.04 234.974 1028.89 233.741C1023.98 232.997 1019.47 231.573 1014.85 229.31C1004.02 224.002 994.962 214.725 989.027 202.865C988.063 200.939 986.568 197.511 986.654 197.425C986.688 197.39 987.189 198.333 987.766 199.519C995.65 215.714 1009.11 226.997 1024.72 230.493C1033.7 232.504 1043.17 231.844 1051.55 228.625C1057.68 226.272 1062.45 223.257 1067.96 218.26C1070.51 215.952 1075.55 213.048 1080.18 211.221C1086.02 208.916 1091.97 207.824 1098.69 207.825C1101.71 207.826 1103.68 207.991 1105.91 208.429C1114.09 210.041 1121.37 214.831 1125.99 221.637C1127.76 224.233 1128.85 226.444 1129.92 229.558C1130.24 230.492 1130.68 231.593 1130.9 232.005C1132.71 235.396 1136.72 237.401 1140.37 236.745C1144.44 236.013 1147.37 233.038 1148.06 228.936C1148.24 227.866 1148.24 227.614 1148.03 226.092C1147.06 219.018 1143.74 212.799 1137.89 207.091C1128.29 197.718 1113.25 191.47 1096.25 189.783C1089.67 189.131 1080.08 189.131 1073.5 189.783C1066.26 190.502 1059.12 192.091 1052.71 194.414C1050.47 195.227 1047.03 196.654 1045.7 197.328C1045.35 197.503 1045.07 197.595 1045.07 197.533C1045.07 197.409 1047.79 195.875 1049.63 194.958C1052.5 193.531 1057.32 191.621 1060.51 190.64C1061.26 190.411 1061.87 190.161 1061.87 190.085C1061.87 190.008 1061.51 188.895 1061.09 187.611C1059.1 181.657 1056.35 176.462 1052.47 171.323C1050.94 169.288 1050.01 168.19 1047.87 165.853L1046.06 163.887L1045.4 163.961C1045.04 164.001 1043.58 164.182 1042.16 164.363C1036.76 165.052 1032.43 165.349 1026.16 165.457C1018.75 165.586 1011.49 165.177 1004.37 164.229C1002.12 163.93 1002.26 163.723 1004.63 163.831C1014.94 164.301 1025.44 163.872 1033.63 162.649C1034.36 162.541 1036.38 162.304 1038.13 162.124C1053.55 160.529 1065.91 157.004 1074.87 151.651C1078.21 149.657 1081.35 146.861 1082.8 144.608L1083.01 144.278L1081.9 144.27C1080.9 144.262 1080.7 144.215 1079.81 143.776C1078.64 143.196 1077.87 142.415 1077.33 141.255C1076.92 140.372 1076.72 139.125 1076.87 138.336L1076.96 137.855L1077.41 138.769C1077.97 139.884 1078.77 140.651 1079.96 141.212C1080.75 141.583 1080.98 141.629 1082.03 141.631C1082.87 141.632 1083.41 141.561 1083.85 141.393C1084.43 141.166 1084.47 141.118 1084.57 140.533C1084.76 139.41 1084.67 137.85 1084.36 136.8C1083.08 132.568 1079.21 128.745 1072.51 125.102C1072 124.825 1070.48 123.868 1069.14 122.976C1062.64 118.67 1054.49 114.717 1044.8 111.18C1043.6 110.742 1041.28 109.729 1039.65 108.929C1029.34 103.889 1019.41 99.9862 1007.58 96.3254C1005.2 95.5896 1002.94 94.7911 1001.62 94.2242C987.207 87.9945 971.928 84.5601 955.138 83.7745C941.111 83.1182 925.099 85.0738 911.709 89.0783C901.131 92.2416 891.516 96.5294 882.964 101.896C875.767 106.413 868.888 112.156 863.81 117.887C855.717 127.02 845.86 133.851 832.805 139.375C831.521 139.918 831.447 139.922 835.318 139.247C847.638 137.097 858.158 133.4 864.942 128.835C868.978 126.12 873.092 123.845 877.408 121.941C905.624 109.496 943.602 109.497 971.767 121.942C975.691 123.676 979.965 125.982 981.761 127.334C986.256 130.717 989.621 135.938 991.19 141.963C991.983 145.006 992.358 149.193 992.049 151.551C991.473 155.939 989.403 159.921 985.823 163.524C984.098 165.259 982.838 166.283 980.537 167.817C974.093 172.114 965.675 174.832 955.667 175.847C953.503 176.066 946.193 176.066 944.029 175.847C937.292 175.164 930.99 173.65 926.302 171.589C920.664 169.11 914.528 167.587 906.072 166.569C898.289 165.631 896.477 165.57 876.25 165.57C859.628 165.57 857.973 165.59 856.214 165.807C850.703 166.489 846.088 167.838 841.161 170.208C829.863 175.643 821.357 185.338 817.345 197.353C815.746 202.143 815.029 206.609 815.029 211.792C815.029 218.983 816.476 225.26 819.655 231.87C821.657 236.032 823.887 239.34 827.148 242.983C828.293 244.263 828.869 245.164 829.34 246.41C829.813 247.665 829.838 249.8 829.394 251.088C828.58 253.445 826.896 255.247 824.275 256.565C823.412 256.998 822.282 257.438 821.497 257.645L820.175 257.994L812.041 258.088C803.37 258.188 802.73 258.231 799.347 258.945C794.41 259.987 789.283 262.312 785.332 265.301C778.975 270.108 774.67 276.864 773.227 284.295C772.584 287.612 772.477 290.964 772.958 292.797C773.249 293.906 774.064 295.554 774.811 296.541C775.837 297.898 777.622 299.174 779.4 299.821C781.009 300.407 783.172 300.505 784.863 300.07ZM1032.7 133.62C1028.09 132.709 1024.81 129.343 1024.03 124.712C1023.51 121.62 1024.7 118.037 1027.02 115.714C1029.06 113.673 1031.51 112.675 1034.49 112.675C1037.46 112.675 1039.92 113.673 1041.96 115.714C1044 117.754 1045 120.209 1045 123.183C1045 125.487 1044.53 127.114 1043.36 128.915C1041.87 131.197 1039.76 132.701 1037 133.453C1036.1 133.699 1033.59 133.796 1032.7 133.62ZM1036.83 130.66C1040.96 129.356 1043.3 124.895 1041.98 120.859C1041.17 118.366 1039.31 116.505 1036.81 115.689C1034.69 114.993 1032.2 115.322 1030.31 116.548C1025.42 119.727 1025.41 126.635 1030.3 129.809C1032.25 131.079 1034.55 131.379 1036.83 130.66ZM1033.89 128.333C1032.62 128.09 1031.8 127.658 1030.91 126.766C1030.01 125.866 1029.58 125.048 1029.34 123.747C1029.21 123.084 1029.33 122.355 1029.74 121.264C1030.15 120.156 1031.46 118.847 1032.57 118.433C1034.15 117.845 1034.83 117.845 1036.41 118.433C1037.52 118.847 1038.83 120.156 1039.24 121.264C1039.82 122.832 1039.83 123.532 1039.25 125.069C1038.92 125.945 1037.91 127.133 1037.08 127.604C1036.05 128.195 1034.74 128.494 1033.89 128.333ZM882.069 152.144C904.799 151.188 925.505 146.218 942.586 137.619C948.557 134.613 952.491 132.041 956.708 128.386C959.223 126.206 959.522 125.986 960.891 125.307C962.615 124.452 964.684 123.768 966.451 123.471L967.87 123.232L966.562 122.729C956.718 118.939 946.079 116.603 934.308 115.648C916.373 114.192 897.245 116.891 881.782 123.06C876.347 125.228 870.685 128.159 867.565 130.418C859.274 136.423 844.27 141.171 827.27 143.169C825.901 143.33 825.9 143.33 826.211 143.576C828.526 145.406 833.952 147.203 842.261 148.891C855.199 151.52 869.376 152.678 882.069 152.144Z" fill="black"/>
<path d="M1232 271C1231.46 121.238 1109.89 0 960 0C810.112 0 688.541 121.238 688.002 271H698.002C698.541 126.761 815.635 10 960 10C1104.36 10 1221.46 126.761 1222 271H1232Z" fill="#D7B882"/>
<path d="M708.002 271C708.541 132.284 821.158 20 960 20C1098.84 20 1211.46 132.284 1212 271H1202C1201.46 137.807 1093.32 30 960 30C826.68 30 718.541 137.807 718.002 271H708.002Z" fill="#D7B882"/>
<path d="M728.002 271C728.541 143.33 832.203 40 960 40C1087.8 40 1191.46 143.33 1192 271H1180C1179.46 149.957 1081.17 52 960 52C838.831 52 740.541 149.957 740.002 271H728.002Z" fill="#D7B882"/>
<path d="M708 271H718V310H708V271Z" fill="#D7B882"/>
<path d="M688 271H698V290H688V271Z" fill="#D7B882"/>
<path d="M728 271H740V330H728V271Z" fill="#D7B882"/>
<path d="M660 280H688V290H660V280Z" fill="#D7B882"/>
<path d="M660 290H670V491H660V290Z" fill="#D7B882"/>
<path d="M620 300H660V310H620V300Z" fill="#D7B882"/>
<path d="M620 310H629V491H620V310Z" fill="#D7B882"/>
<path d="M631 320H660V330H631V320Z" fill="#D7B882"/>
<path d="M672 300H708V310H672V300Z" fill="#D7B882"/>
<path d="M672 320H728V330H672V320Z" fill="#D7B882"/>
<path d="M1212 271H1202V310H1212V271Z" fill="#D7B882"/>
<path d="M1232 271H1222V290H1232V271Z" fill="#D7B882"/>
<path d="M1192 271H1180V330H1192V271Z" fill="#D7B882"/>
<path d="M1260 280H1232V290H1260V280Z" fill="#D7B882"/>
<path d="M1260 290H1250V491H1260V290Z" fill="#D7B882"/>
<path d="M1300 300H1260V310H1300V300Z" fill="#D7B882"/>
<path d="M1300 310H1291V491H1300V310Z" fill="#D7B882"/>
<path d="M1289 320H1260V330H1289V320Z" fill="#D7B882"/>
<path d="M1248 300H1212V310H1248V300Z" fill="#D7B882"/>
<path d="M1248 320H1192V330H1248V320Z" fill="#D7B882"/>
<path d="M823.004 320.104H833.529V362.77H863.711V372H823.004V320.104Z" fill="#D7B882"/>
<path d="M873.938 320.104H918.131V329.334H884.463V339.693H914.279V348.359H884.463V362.803H918.828V372H873.938V320.104Z" fill="#D7B882"/>
<path d="M930.516 320.104H958.24C961.627 320.104 964.571 320.469 967.072 321.199C969.596 321.908 971.688 322.893 973.348 324.154C975.008 325.416 976.236 326.921 977.033 328.67C977.852 330.396 978.262 332.267 978.262 334.281C978.262 337.579 977.221 340.468 975.141 342.947C977.531 344.364 979.313 346.201 980.486 348.459C981.66 350.717 982.246 353.285 982.246 356.162C982.246 358.575 981.837 360.755 981.018 362.703C980.221 364.651 978.992 366.322 977.332 367.717C975.694 369.089 973.613 370.152 971.09 370.904C968.589 371.635 965.633 372 962.225 372H930.516V320.104ZM962.291 340.025C963.199 340.025 964.084 340.059 964.947 340.125C966.43 338.708 967.172 337.092 967.172 335.277C967.172 333.396 966.43 331.946 964.947 330.928C963.486 329.887 961.339 329.367 958.506 329.367H941.041V340.025H962.291ZM962.49 362.836C965.324 362.836 967.471 362.227 968.932 361.01C970.415 359.792 971.156 358.077 971.156 355.863C971.156 353.65 970.415 351.923 968.932 350.684C967.471 349.444 965.324 348.824 962.49 348.824H941.041V362.836H962.49Z" fill="#D7B882"/>
<path d="M992.938 320.104H1019.33C1023.32 320.104 1026.77 320.524 1029.69 321.365C1032.62 322.184 1035.04 323.38 1036.96 324.951C1038.89 326.523 1040.32 328.438 1041.25 330.695C1042.2 332.953 1042.68 335.51 1042.68 338.365C1042.68 340.291 1042.44 342.128 1041.98 343.877C1041.51 345.604 1040.79 347.197 1039.82 348.658C1038.87 350.119 1037.66 351.425 1036.2 352.576C1034.74 353.705 1033.02 354.646 1031.05 355.398L1042.34 372H1029.46L1019.7 357.258H1019.4L1003.46 357.225V372H992.938V320.104ZM1019.6 348.127C1021.59 348.127 1023.33 347.895 1024.81 347.43C1026.32 346.965 1027.57 346.312 1028.56 345.471C1029.58 344.63 1030.34 343.611 1030.82 342.416C1031.33 341.199 1031.59 339.848 1031.59 338.365C1031.59 335.465 1030.59 333.23 1028.6 331.658C1026.61 330.064 1023.61 329.268 1019.6 329.268H1003.46V348.127H1019.6Z" fill="#D7B882"/>
<path d="M1055.16 320.104H1099.35V329.334H1065.69V339.693H1095.5V348.359H1065.69V362.803H1100.05V372H1055.16V320.104Z" fill="#D7B882"/>
<path d="M689.793 436.561C691.674 437.623 693.578 438.586 695.504 439.449C697.452 440.29 699.466 441.01 701.547 441.607C703.628 442.183 705.808 442.626 708.088 442.936C710.39 443.245 712.836 443.4 715.426 443.4C718.547 443.4 721.203 443.201 723.395 442.803C725.586 442.382 727.368 441.818 728.74 441.109C730.135 440.379 731.142 439.516 731.762 438.52C732.404 437.523 732.725 436.439 732.725 435.266C732.725 433.384 731.939 431.901 730.367 430.816C728.796 429.71 726.372 429.156 723.096 429.156C721.657 429.156 720.141 429.256 718.547 429.455C716.953 429.632 715.337 429.831 713.699 430.053C712.083 430.274 710.479 430.484 708.885 430.684C707.313 430.861 705.83 430.949 704.436 430.949C702.111 430.949 699.876 430.65 697.729 430.053C695.604 429.455 693.711 428.559 692.051 427.363C690.413 426.168 689.107 424.674 688.133 422.881C687.159 421.088 686.672 418.996 686.672 416.605C686.672 415.189 686.86 413.783 687.236 412.389C687.635 410.994 688.255 409.666 689.096 408.404C689.959 407.12 691.066 405.936 692.416 404.852C693.766 403.745 695.393 402.793 697.297 401.996C699.223 401.199 701.436 400.579 703.938 400.137C706.461 399.672 709.327 399.439 712.537 399.439C714.861 399.439 717.197 399.572 719.543 399.838C721.889 400.081 724.169 400.436 726.383 400.9C728.618 401.365 730.766 401.93 732.824 402.594C734.883 403.236 736.798 403.955 738.568 404.752L733.953 413.252C732.492 412.61 730.921 412.023 729.238 411.492C727.556 410.939 725.796 410.463 723.959 410.064C722.122 409.666 720.218 409.356 718.248 409.135C716.3 408.891 714.308 408.77 712.271 408.77C709.372 408.77 706.981 408.98 705.1 409.4C703.24 409.821 701.757 410.363 700.65 411.027C699.544 411.669 698.769 412.4 698.326 413.219C697.906 414.016 697.695 414.812 697.695 415.609C697.695 417.159 698.393 418.432 699.787 419.428C701.182 420.402 703.307 420.889 706.162 420.889C707.313 420.889 708.63 420.811 710.113 420.656C711.618 420.479 713.19 420.291 714.828 420.092C716.488 419.893 718.171 419.715 719.875 419.561C721.602 419.383 723.273 419.295 724.889 419.295C727.943 419.295 730.644 419.638 732.99 420.324C735.359 421.01 737.34 421.995 738.934 423.279C740.527 424.541 741.734 426.079 742.553 427.895C743.372 429.688 743.781 431.702 743.781 433.938C743.781 436.926 743.084 439.593 741.689 441.939C740.317 444.264 738.347 446.234 735.779 447.85C733.234 449.443 730.157 450.661 726.549 451.502C722.941 452.321 718.923 452.73 714.496 452.73C711.574 452.73 708.719 452.542 705.93 452.166C703.141 451.812 700.462 451.303 697.895 450.639C695.349 449.952 692.914 449.145 690.59 448.215C688.288 447.263 686.152 446.223 684.182 445.094L689.793 436.561Z" fill="#D7B882"/>
<path d="M773.066 400.104H784.223L809.324 452H798.268L794.117 443.268H763.803L759.785 452H748.695L773.066 400.104ZM789.967 434.602L778.744 411.027L767.82 434.602H789.967Z" fill="#D7B882"/>
<path d="M817.393 400.104H827.918V442.77H858.1V452H817.393V400.104Z" fill="#D7B882"/>
<path d="M883.965 409.334H864.807V400.104H913.648V409.334H894.49V452H883.965V409.334Z" fill="#D7B882"/>
<path d="M923.576 400.104H934.168V452H923.576V400.104Z" fill="#D7B882"/>
<path d="M963.254 409.334H944.096V400.104H992.938V409.334H973.779V452H963.254V409.334Z" fill="#D7B882"/>
<path d="M1021.89 400.104H1033.05L1058.15 452H1047.09L1042.94 443.268H1012.63L1008.61 452H997.52L1021.89 400.104ZM1038.79 434.602L1027.57 411.027L1016.64 434.602H1038.79Z" fill="#D7B882"/>
<path d="M1066.15 400.104H1076.68L1109.02 417.037V400.104H1119.54V452H1109.02V428.193L1076.68 411.359V452H1066.15V400.104Z" fill="#D7B882"/>
<path d="M1149.86 409.334H1130.7V400.104H1179.54V409.334H1160.38V452H1149.86V409.334Z" fill="#D7B882"/>
<path d="M1190.79 400.104H1234.99V409.334H1201.32V419.693H1231.14V428.359H1201.32V442.803H1235.69V452H1190.79V400.104Z" fill="#D7B882"/>
<path d="M688 270H698V272H688V270Z" fill="#D7B882"/>
<path d="M687 280H689V290H687V280Z" fill="#D7B882"/>
<path d="M660 289H670V291H660V289Z" fill="#D7B882"/>
<path d="M659 300H661V310H659V300Z" fill="#D7B882"/>
<path d="M620 309H629V311H620V309Z" fill="#D7B882"/>
<path d="M619 320H621V330H619V320Z" fill="#D7B882"/>
<path d="M659 320H661V330H659V320Z" fill="#D7B882"/>
<path d="M708 270H718V272H708V270Z" fill="#D7B882"/>
<path d="M728 270H740V272H728V270Z" fill="#D7B882"/>
<path d="M707 300H709V310H707V300Z" fill="#D7B882"/>
<path d="M727 320H729V330H727V320Z" fill="#D7B882"/>
<path d="M1232 270H1222V272H1232V270Z" fill="#D7B882"/>
<path d="M1233 280H1231V290H1233V280Z" fill="#D7B882"/>
<path d="M1260 289H1250V291H1260V289Z" fill="#D7B882"/>
<path d="M1261 300H1259V310H1261V300Z" fill="#D7B882"/>
<path d="M1300 309H1291V311H1300V309Z" fill="#D7B882"/>
<path d="M1301 320H1299V330H1301V320Z" fill="#D7B882"/>
<path d="M1261 320H1259V330H1261V320Z" fill="#D7B882"/>
<path d="M1212 270H1202V272H1212V270Z" fill="#D7B882"/>
<path d="M1192 270H1180V272H1192V270Z" fill="#D7B882"/>
<path d="M1213 300H1211V310H1213V300Z" fill="#D7B882"/>
<path d="M1193 320H1191V330H1193V320Z" fill="#D7B882"/>
<path d="M1300 320H1920V330H1300V320Z" fill="#D7B882"/>
<path d="M0 320H620V330H0V320Z" fill="#D7B882"/>
</svg>
