<svg width="142" height="715" viewBox="0 0 142 715" fill="none" xmlns="http://www.w3.org/2000/svg">
<path d="M113.421 601.569C144.663 632.81 150.995 677.132 127.563 700.563C104.132 723.995 59.8103 717.663 28.5684 686.421C-2.67358 655.179 -9.00523 610.858 14.4262 587.426C37.8577 563.995 82.1792 570.327 113.421 601.569Z" fill="#272018"/>
<path d="M113.421 601.569C144.663 632.81 150.995 677.132 127.563 700.563C104.132 723.995 59.8103 717.663 28.5684 686.421C-2.67358 655.179 -9.00523 610.858 14.4262 587.426C37.8577 563.995 82.1792 570.327 113.421 601.569Z" fill="#272018"/>
<path d="M28.5682 523.569C-2.67373 554.81 -9.00538 599.132 14.4261 622.563C37.8575 645.995 82.1791 639.663 113.421 608.421C144.663 577.179 150.995 532.858 127.563 509.426C104.132 485.995 59.8102 492.327 28.5682 523.569Z" fill="#E3DEDB"/>
<path d="M113.421 461.569C144.663 492.81 150.995 537.132 127.563 560.563C104.132 583.995 59.8103 577.663 28.5684 546.421C-2.67358 515.179 -9.00523 470.858 14.4262 447.426C37.8577 423.995 82.1792 430.327 113.421 461.569Z" fill="#272018"/>
<path d="M28.5682 383.569C-2.67373 414.81 -9.00538 459.132 14.4261 482.563C37.8575 505.995 82.1791 499.663 113.421 468.421C144.663 437.179 150.995 392.858 127.563 369.426C104.132 345.995 59.8102 352.327 28.5682 383.569Z" fill="#DAA520"/>
<path d="M113.421 303.569C144.663 334.81 150.995 379.132 127.563 402.563C104.132 425.995 59.8103 419.663 28.5684 388.421C-2.67358 357.179 -9.00523 312.858 14.4262 289.426C37.8577 265.995 82.1792 272.327 113.421 303.569Z" fill="#272018"/>
<path d="M28.5682 241.569C-2.67373 272.81 -9.00538 317.132 14.4261 340.563C37.8575 363.995 82.1791 357.663 113.421 326.421C144.663 295.179 150.995 250.858 127.563 227.426C104.132 203.995 59.8102 210.327 28.5682 241.569Z" fill="#973123"/>
<path d="M28.5682 241.569C-2.67373 272.81 -9.00538 317.132 14.4261 340.563C37.8575 363.995 82.1791 357.663 113.421 326.421C144.663 295.179 150.995 250.858 127.563 227.426C104.132 203.995 59.8102 210.327 28.5682 241.569Z" fill="#973123"/>
<path d="M113.421 168.569C144.663 199.81 150.995 244.132 127.563 267.563C104.132 290.995 59.8103 284.663 28.5684 253.421C-2.67358 222.179 -9.00523 177.858 14.4262 154.426C37.8577 130.995 82.1792 137.327 113.421 168.569Z" fill="#272018"/>
<path d="M28.5682 106.569C-2.67373 137.81 -9.00538 182.132 14.4261 205.563C37.8575 228.995 82.1791 222.663 113.421 191.421C144.663 160.179 150.995 115.858 127.563 92.4264C104.132 68.9949 59.8102 75.3266 28.5682 106.569Z" fill="#32527B"/>
<path d="M113.421 28.5685C144.663 59.8105 150.995 104.132 127.563 127.563C104.132 150.995 59.8103 144.663 28.5684 113.421C-2.67358 82.1794 -9.00523 37.8578 14.4262 14.4264C37.8577 -9.00507 82.1792 -2.67342 113.421 28.5685Z" fill="#272018"/>
</svg>
