<svg width="192" height="152" viewBox="0 0 192 152" fill="none" xmlns="http://www.w3.org/2000/svg">
<path d="M192 76C192 117.974 149.019 152 96 152C42.9807 152 0 117.974 0 76C0 34.0264 42.9807 0 96 0C149.019 0 192 34.0264 192 76Z" fill="#8B604D"/>
<path d="M121 91.5C121 96.1944 110.479 100 97.5 100C84.5213 100 74 96.1944 74 91.5C74 86.8056 84.5213 83 97.5 83C110.479 83 121 86.8056 121 91.5Z" fill="#CCB99B"/>
<path fill-rule="evenodd" clip-rule="evenodd" d="M108.309 91H85.638L74.2658 56H119.682L108.309 91ZM74.2658 56L74 56.0864V56H74.2658ZM81.1867 61H113.074L105.09 86H89.1714L81.1867 61Z" fill="#F2E8DE"/>
<path d="M81.1867 61H113.074L105.09 86H89.1714L81.1867 61Z" fill="#3D1806"/>
<path d="M68 71.5001C68 68.4855 68.8084 65.6597 70.2203 63.2278L74.5953 65.6529C73.5817 67.3662 73 69.3652 73 71.5001C73 75.8525 75.4179 79.6402 78.9838 81.5932L76.3307 85.839C71.3544 82.9977 68 77.6406 68 71.5001Z" fill="#F2E8DE"/>
<path d="M68 71.5001C68 68.4855 68.8084 65.6597 70.2203 63.2278L74.5953 65.6529C73.5817 67.3662 73 69.3652 73 71.5001C73 75.8525 75.4179 79.6402 78.9838 81.5932L76.3307 85.839C71.3544 82.9977 68 77.6406 68 71.5001Z" fill="#F2E8DE"/>
<path d="M68 71.5001C68 68.4855 68.8084 65.6597 70.2203 63.2278L74.5953 65.6529C73.5817 67.3662 73 69.3652 73 71.5001C73 75.8525 75.4179 79.6402 78.9838 81.5932L76.3307 85.839C71.3544 82.9977 68 77.6406 68 71.5001Z" fill="#F2E8DE"/>
<path d="M68 71.5001C68 68.4855 68.8084 65.6597 70.2203 63.2278L74.5953 65.6529C73.5817 67.3662 73 69.3652 73 71.5001C73 75.8525 75.4179 79.6402 78.9838 81.5932L76.3307 85.839C71.3544 82.9977 68 77.6406 68 71.5001Z" fill="#F2E8DE"/>
<path d="M52.5067 57.164C52.9276 57.3947 52.5671 58.5519 51.4252 60.6355C50.2833 62.7191 49.5018 63.6455 49.0809 63.4148L33.233 54.7292L31.1567 58.5176C30.9606 58.8753 30.3381 58.8626 29.2893 58.4793C28.7916 58.2887 28.3008 58.0608 27.8167 57.7955C27.3327 57.5302 26.8764 57.2391 26.448 56.9222C25.5606 56.2442 25.215 55.7264 25.411 55.3686L32.9374 41.6358C33.1335 41.278 33.756 41.2908 34.8049 41.674C35.3025 41.8647 35.7933 42.0926 36.2774 42.3579C36.7615 42.6232 37.2177 42.9143 37.6461 43.2312C38.5335 43.9091 38.8792 44.427 38.6831 44.7848L36.6588 48.4784L52.5067 57.164Z" fill="#F2E8DE"/>
<path d="M51.1334 35.7886C51.4563 35.4667 52.2108 35.9006 53.3969 37.0904C53.7528 37.4473 54.1339 37.9146 54.5403 38.4922C54.9467 39.0359 55.048 39.4094 54.844 39.6128L51.6061 42.8407L54.1478 45.3902L58.8389 40.7135C59.1278 40.4255 59.6961 40.6045 60.5436 41.2507C60.9165 41.5228 61.2894 41.8459 61.6622 42.2198C62.018 42.5767 62.433 43.095 62.9071 43.7745C63.3812 44.4541 63.4993 44.9125 63.2614 45.1497L54.542 53.8421C53.8962 54.486 53.3106 54.5445 52.7853 54.0176L36.4425 37.6242C36.0019 37.1823 35.9771 36.7665 36.3681 36.3768L45.4953 27.2777C45.8522 26.9218 46.7847 27.5003 48.2928 29.013C49.7839 30.5087 50.351 31.4345 49.994 31.7903L45.2774 36.4924L47.8445 39.0674L51.1334 35.7886Z" fill="#F2E8DE"/>
<path d="M80.5532 37.5987C78.6457 38.4479 77.4785 38.5998 77.0517 38.0542L74.0776 34.2949L68.8484 36.6231L69.7104 41.1258C69.8814 41.864 68.9803 42.6724 67.0071 43.551C65.9547 44.0195 65.1519 44.3113 64.5988 44.4261C64.036 44.5191 63.7399 44.5327 63.7106 44.4669L59.6188 19.6103C59.5407 19.4349 61.0035 18.6785 64.0072 17.3412C67.011 16.0038 68.5519 15.4228 68.63 15.5982L84.2472 35.3629C84.3155 35.5164 83.8649 35.8615 82.8954 36.3982C81.9259 36.935 81.1451 37.3351 80.5532 37.5987ZM67.811 32.0803L71.2642 30.5428L66.7533 24.394L66.5559 24.4818L67.811 32.0803Z" fill="#F2E8DE"/>
<path d="M88.9845 9.5963C90.7209 9.36279 92.2768 9.40782 93.6522 9.73139C95.0481 10.028 95.8021 10.5925 95.9141 11.425C96.026 12.2575 95.8441 13.3354 95.3682 14.6586C94.9129 15.9549 94.4712 16.6318 94.043 16.6894C93.9241 16.7054 93.7734 16.6651 93.5909 16.5686C93.429 16.445 93.053 16.3503 92.4629 16.2844C91.8935 16.1914 91.4066 16.1722 91.0022 16.2265C89.6226 16.4121 88.5703 17.05 87.8451 18.1404C87.1438 19.2276 86.929 20.7821 87.2009 22.8039C87.4696 24.8019 88.0977 26.2309 89.0851 27.091C90.0964 27.9478 91.268 28.2867 92.6 28.1076C93.1471 28.034 93.744 27.8811 94.3908 27.6488C95.0582 27.3895 95.5154 27.098 95.7625 26.7742C95.8037 26.7202 95.8956 26.6836 96.0383 26.6644C96.181 26.6452 96.4795 26.8836 96.9336 27.3795C97.4084 27.8484 97.8714 28.5005 98.3228 29.3358C98.7709 30.1473 99.027 30.7909 99.091 31.2666C99.2157 32.1943 98.6013 33.0276 97.2477 33.7666C95.8941 34.5056 94.2421 35.0063 92.2917 35.2686C89.1519 35.6908 86.4224 34.9318 84.1031 32.9916C81.7839 31.0514 80.3539 28.0714 79.8133 24.0516C79.2695 20.008 79.8772 16.6935 81.6363 14.108C83.4191 11.5192 85.8686 10.0153 88.9845 9.5963Z" fill="#F2E8DE"/>
<path d="M107.823 36.2451C104.539 35.5359 102.086 33.8768 100.464 31.2677C98.8656 28.6636 98.5122 25.2972 99.4038 21.1683C100.3 17.0161 102.023 14.0979 104.572 12.414C107.144 10.7351 110.084 10.2528 113.392 10.9671C116.723 11.6864 119.182 13.3221 120.767 15.8742C122.357 18.4028 122.691 21.8019 121.769 26.0715C120.852 30.3176 119.124 33.2592 116.585 34.8962C114.052 36.5098 111.131 36.9594 107.823 36.2451ZM111.863 17.7082C110.737 17.465 109.675 17.776 108.678 18.641C107.705 19.5111 107.015 20.8845 106.61 22.7613C106.21 24.6145 106.264 26.1241 106.774 27.2899C107.288 28.4322 108.132 29.13 109.305 29.3833C110.501 29.6417 111.572 29.345 112.517 28.4933C113.486 27.6466 114.173 26.2849 114.578 24.4082C114.983 22.5314 114.908 21.0051 114.351 19.8292C113.818 18.6583 112.989 17.9513 111.863 17.7082Z" fill="#F2E8DE"/>
<path d="M142.052 23.4898C142.403 23.6977 142.034 24.7206 140.946 26.5584C139.87 28.3756 139.156 29.1802 138.805 28.9723L133.137 25.615L131.045 29.1462L134.824 31.3843C135.175 31.5923 134.874 32.5016 133.92 34.1122C132.978 35.7023 132.342 36.3995 132.011 36.2038L128.202 33.9473L123.78 41.4122C123.609 41.7013 123.107 41.6547 122.273 41.2726C121.448 40.9233 120.777 40.5958 120.261 40.29L118.842 39.3658C117.903 38.6426 117.52 38.1365 117.691 37.8474L129.836 17.3421C130.031 17.0117 130.222 16.8316 130.407 16.8017C130.612 16.7841 130.85 16.8547 131.118 17.0137L142.052 23.4898Z" fill="#F2E8DE"/>
<path d="M157.476 37.3945C157.76 37.6878 157.134 38.5769 155.598 40.0619C154.08 41.5301 153.179 42.1177 152.896 41.8244L148.316 37.0889L145.366 39.942L148.419 43.099C148.703 43.3923 148.172 44.1897 146.826 45.4911C145.498 46.7758 144.7 47.2802 144.433 47.0042L141.355 43.8213L135.118 49.853C134.877 50.0865 134.405 49.9089 133.702 49.3201C132.998 48.7653 132.438 48.2722 132.021 47.8409L130.896 46.5746C130.182 45.6292 129.946 45.0397 130.187 44.8061L147.318 28.2378C147.594 27.9709 147.825 27.8474 148.011 27.8675C148.214 27.9048 148.424 28.0356 148.641 28.2599L157.476 37.3945Z" fill="#F2E8DE"/>
<path d="M157.748 58.3415C157.965 58.7427 157.334 59.3425 155.856 60.141C155.413 60.3805 154.856 60.6129 154.187 60.8381C153.55 61.073 153.163 61.0638 153.026 60.8104L150.853 56.7878L147.686 58.4988L150.834 64.3268C151.028 64.6858 150.694 65.1796 149.834 65.8082C149.467 66.0882 149.051 66.3537 148.586 66.6047C148.143 66.8442 147.528 67.0946 146.742 67.3557C145.955 67.6168 145.482 67.5996 145.323 67.3039L139.471 56.4714C139.038 55.669 139.148 55.091 139.803 54.7373L160.169 43.7357C160.718 43.4391 161.124 43.5337 161.386 44.0194L167.512 55.3587C167.751 55.8021 166.931 56.5315 165.052 57.5466C163.194 58.5504 162.145 58.8306 161.905 58.3871L158.74 52.5274L155.541 54.2555L157.748 58.3415Z" fill="#F2E8DE"/>
<path d="M31.5942 105.666C31.1732 105.897 30.3917 104.97 29.2496 102.887C28.1075 100.803 27.7469 99.6463 28.1678 99.4156L44.0151 90.7287L41.9385 86.9405C41.7424 86.5827 42.088 86.0648 42.9754 85.3869C43.4038 85.0699 43.86 84.7788 44.344 84.5134C44.8281 84.2481 45.3189 84.0201 45.8165 83.8294C46.8654 83.4461 47.4878 83.4333 47.684 83.7911L55.2114 97.5232C55.4076 97.881 55.062 98.3989 54.1746 99.0769C53.7462 99.3938 53.29 99.685 52.806 99.9503C52.3219 100.216 51.8311 100.444 51.3335 100.634C50.2846 101.018 49.6621 101.03 49.466 100.673L47.4414 96.9792L31.5942 105.666Z" fill="#F2E8DE"/>
<path d="M56.9344 113.143C57.2573 113.465 56.8257 114.221 55.6397 115.41C55.2839 115.767 54.8178 116.15 54.2414 116.558C53.699 116.966 53.3258 117.069 53.1218 116.865L49.8839 113.638L47.3423 116.187L52.0335 120.864C52.3225 121.152 52.1452 121.721 51.5016 122.57C51.2307 122.944 50.9088 123.318 50.5361 123.692C50.1802 124.049 49.6633 124.465 48.9852 124.941C48.3071 125.418 47.8491 125.537 47.6112 125.3L38.8916 116.608C38.2457 115.964 38.1854 115.378 38.7106 114.852L55.053 98.4578C55.4936 98.0158 55.9093 97.9897 56.3002 98.3794L65.4277 107.478C65.7847 107.834 65.2091 108.768 63.7011 110.281C62.2101 111.777 61.2861 112.347 60.9291 111.991L56.2124 107.289L53.6454 109.864L56.9344 113.143Z" fill="#F2E8DE"/>
<path d="M69.3262 135.827C67.4187 134.978 66.5249 134.212 66.6447 133.53L67.4483 128.804L62.2192 126.476L59.4498 130.129C59.0156 130.75 57.8119 130.622 55.8387 129.743C54.7862 129.274 54.0323 128.873 53.5768 128.539C53.1311 128.183 52.9229 127.972 52.9522 127.906L68.6863 108.233C68.7644 108.058 70.3053 108.639 73.3091 109.976C76.3128 111.313 77.7756 112.07 77.6975 112.245L73.4595 137.076C73.3911 137.23 72.8332 137.126 71.7856 136.764C70.738 136.403 69.9182 136.09 69.3262 135.827ZM64.901 122.665L68.3542 124.203L69.9053 116.736L69.7079 116.648L64.901 122.665Z" fill="#F2E8DE"/>
<path d="M91.4566 114.022C93.193 114.255 94.6817 114.71 95.9227 115.385C97.1907 116.04 97.7688 116.784 97.6568 117.616C97.5448 118.449 97.0846 119.44 96.276 120.591C95.4944 121.721 94.8896 122.257 94.4614 122.199C94.3425 122.183 94.2078 122.104 94.0573 121.963C93.9337 121.801 93.5961 121.611 93.0445 121.391C92.5198 121.151 92.0553 121.004 91.6509 120.949C90.2713 120.764 89.0878 121.101 88.1004 121.961C87.1367 122.824 86.5189 124.267 86.247 126.289C85.9783 128.287 86.2065 129.831 86.9316 130.921C87.6805 132.015 88.721 132.651 90.053 132.83C90.6001 132.904 91.2162 132.914 91.9014 132.861C92.6136 132.787 93.1316 132.627 93.4554 132.38C93.5094 132.339 93.6077 132.328 93.7504 132.347C93.8931 132.366 94.118 132.675 94.425 133.273C94.759 133.851 95.0333 134.602 95.2479 135.527C95.4658 136.428 95.5427 137.116 95.4787 137.592C95.3539 138.52 94.5412 139.161 93.0405 139.516C91.5397 139.871 89.8141 139.918 87.8637 139.655C84.724 139.233 82.292 137.78 80.5677 135.296C78.8434 132.812 78.2516 129.56 78.7922 125.54C79.3361 121.497 80.7978 118.46 83.1775 116.432C85.581 114.406 88.3407 113.603 91.4566 114.022Z" fill="#F2E8DE"/>
<path d="M111.254 138.46C107.97 139.17 105.051 138.671 102.497 136.964C99.9664 135.251 98.2551 132.331 97.3632 128.202C96.4662 124.05 96.8311 120.681 98.4577 118.095C100.108 115.504 102.587 113.851 105.894 113.137C109.226 112.417 112.14 112.893 114.637 114.563C117.129 116.21 118.836 119.168 119.758 123.438C120.675 127.684 120.316 131.076 118.679 133.615C117.037 136.131 114.562 137.746 111.254 138.46ZM107.284 119.908C106.158 120.151 105.319 120.873 104.768 122.072C104.24 123.267 104.179 124.802 104.584 126.679C104.985 128.532 105.657 129.885 106.603 130.736C107.543 131.564 108.599 131.852 109.772 131.598C110.969 131.34 111.821 130.628 112.331 129.462C112.863 128.291 112.927 126.767 112.522 124.891C112.116 123.014 111.418 121.655 110.426 120.813C109.457 119.967 108.41 119.665 107.284 119.908Z" fill="#F2E8DE"/>
<path d="M127.108 105.596C127.459 105.388 128.179 106.203 129.268 108.04C130.344 109.858 130.707 110.87 130.356 111.078L124.687 114.436L126.779 117.967L130.558 115.728C130.909 115.52 131.561 116.222 132.515 117.832C133.457 119.422 133.763 120.315 133.433 120.511L129.623 122.768L134.044 130.232C134.216 130.521 133.933 130.94 133.198 131.487C132.495 132.043 131.885 132.474 131.369 132.779L129.877 133.58C128.791 134.055 128.163 134.148 127.992 133.859L115.846 113.355C115.65 113.024 115.584 112.771 115.647 112.594C115.73 112.405 115.906 112.231 116.174 112.072L127.108 105.596Z" fill="#F2E8DE"/>
<path d="M137.218 95.6701C137.502 95.3768 138.411 95.9726 139.947 97.4575C141.465 98.9256 142.082 99.8064 141.799 100.1L137.219 104.835L140.169 107.688L143.222 104.531C143.506 104.238 144.32 104.742 145.666 106.043C146.995 107.328 147.525 108.108 147.258 108.384L144.18 111.567L150.417 117.599C150.659 117.832 150.497 118.31 149.932 119.032C149.401 119.754 148.927 120.331 148.51 120.762L147.282 121.928C146.361 122.674 145.779 122.929 145.538 122.696L128.406 106.129C128.13 105.862 127.999 105.635 128.013 105.448C128.043 105.244 128.167 105.03 128.384 104.805L137.218 95.6701Z" fill="#F2E8DE"/>
<path d="M153.085 89.587C153.301 89.1858 154.149 89.3844 155.627 90.183C156.07 90.4225 156.57 90.7605 157.125 91.1969C157.67 91.6008 157.875 91.9294 157.738 92.1828L155.565 96.2053L158.732 97.9164L161.881 92.0885C162.075 91.7296 162.67 91.7377 163.668 92.113C164.103 92.2664 164.553 92.4685 165.018 92.7195C165.461 92.9591 166.008 93.3361 166.657 93.8507C167.307 94.3652 167.551 94.7703 167.392 95.0659L161.54 105.898C161.106 106.701 160.562 106.925 159.908 106.571L139.542 95.5687C138.993 95.2721 138.849 94.881 139.112 94.3953L145.238 83.0563C145.477 82.6128 146.537 82.8988 148.416 83.914C150.274 84.9179 151.083 85.6416 150.844 86.085L147.678 91.9446L150.877 93.6728L153.085 89.587Z" fill="#F2E8DE"/>
</svg>
