<svg width="802" height="1796" viewBox="0 0 802 1796" fill="none" xmlns="http://www.w3.org/2000/svg">
<path d="M293 1.13282e-05L551 0L299 1796H40.0002L293 1.13282e-05Z" fill="#272018"/>
<path d="M253 4.64492e-05L273 9.67002e-05L22 1796H0L253 4.64492e-05Z" fill="#DAA520"/>
<path d="M451.517 0C356.896 37.5956 290 129.986 290 238C290 357.579 371.987 458.009 482.815 486.143L551.138 0L451.517 0Z" fill="#DAA520"/>
<path d="M551.137 0L482.815 486.143C503.025 491.274 524.194 494 545.999 494C687.382 494 801.995 379.385 801.995 238C801.995 129.986 735.1 37.5956 640.48 0H551.137Z" fill="#272018"/>
<path d="M225.059 53.5791L246 54L211 304H190L225.059 53.5791Z" fill="#D7B882"/>
</svg>
