<svg width="620" height="620" viewBox="0 0 620 620" fill="none" xmlns="http://www.w3.org/2000/svg">
<circle cx="310" cy="310" r="310" fill="#E3DEDB"/>
<path fill-rule="evenodd" clip-rule="evenodd" d="M534.625 523.644C587.529 468.038 620 392.811 620 310C620 220.633 582.185 140.098 521.683 83.5244L358.164 271.631L534.625 523.644ZM508.84 547.839L154.487 41.7701C138.835 50.8642 124.052 61.2889 110.293 72.8894L464.533 578.797C480.219 569.76 495.04 559.389 508.84 547.839ZM432.923 594.673L274.288 368.119L115.415 550.882L93.1149 531.497C149.021 586.246 225.569 620 310 620C353.672 620 395.235 610.969 432.923 594.673ZM89.244 527.639C34.0583 471.668 0 394.811 0 310C0 227.603 32.1467 152.714 84.5825 97.1915L253.598 338.571L89.244 527.639ZM186.021 25.7855L337.474 242.083L494.811 61.0883C443.205 22.7096 379.255 0 310 0C265.92 0 223.988 9.20033 186.021 25.7855Z" fill="#272018"/>
</svg>
